<svg width="170" height="130" fill="none" xmlns="http://www.w3.org/2000/svg"><g clip-path="url(#a)"><path opacity=".1" d="M166.336 29.6a34.622 34.622 0 0 0-6.713-9.042l-93.125-.776 76.673-9.103a50.523 50.523 0 0 0-15.556-2.609C120.234 3.031 110.747.008 100.399.008c-9.285 0-17.87 2.439-24.87 6.578-5.947-2.59-12.728-4.06-19.933-4.06-20.691 0-37.932 12.115-41.8 28.182l152.54-1.108ZM169.61 43.075a29.498 29.498 0 0 0-2.902-12.717L5.311 44.68a31.38 31.38 0 0 0-3.781 8.073l49.98 6.299L.39 63.643c1.538 18.19 19.981 32.55 42.512 32.55 11.34 0 21.645-3.638 29.28-9.573 7.66 6.047 18.064 9.765 29.527 9.765 17.008 0 31.688-8.187 38.524-20.023 13.714-3.681 24.368-12.92 28.014-24.48l-63.206-8.288h64.569v-.52ZM75.263 129.999c23.983 0 43.425-.868 43.425-1.938 0-1.07-19.442-1.938-43.425-1.938-23.983 0-43.425.868-43.425 1.938 0 1.07 19.442 1.938 43.425 1.938Z" fill="#00BAFC"/><path d="M101.037 124.652v1.171h-34.63v-.951a11.373 11.373 0 0 0 7.42-10.248 11.378 11.378 0 0 0-6.637-10.772h33.612a11.374 11.374 0 0 0-6.643 10.476 11.383 11.383 0 0 0 6.878 10.324Z" fill="#C8CAD7"/><path opacity=".1" d="M100.802 103.852a11.401 11.401 0 0 0-6.29 7.546h-21.03a11.396 11.396 0 0 0-6.29-7.546h33.61Z" fill="#000"/><path d="M26.746 97.886v6.574c0 3.63 2.657 6.572 5.935 6.572h101.895c3.278 0 5.934-2.942 5.934-6.572v-6.574H26.746Z" fill="#C8CAD7"/><path opacity=".1" d="M101.037 124.652v1.171h-34.63v-.951c.95-.353 1.847-.831 2.67-1.422h29.837c.662.475 1.374.878 2.123 1.202Z" fill="#000"/><path d="M111.058 123.815H56.385c-.785 0-1.422.637-1.422 1.423v.624c0 .786.637 1.423 1.422 1.423h54.673c.786 0 1.423-.637 1.423-1.423v-.624c0-.786-.637-1.423-1.423-1.423Z" fill="#C8CAD7"/><path d="M140.51 25.85a5.932 5.932 0 0 0-5.934-5.925H32.686a5.933 5.933 0 0 0-5.94 5.925v73.314H140.51V25.85Z" fill="#474157"/><path d="M137.413 28.498v62.996a2.912 2.912 0 0 1-1.803 2.7 2.922 2.922 0 0 1-1.118.222H32.777a2.92 2.92 0 0 1-2.922-2.922V28.498a2.922 2.922 0 0 1 2.922-2.922h101.707a2.93 2.93 0 0 1 2.071.853 2.917 2.917 0 0 1 .858 2.069Z" fill="#4C4C78"/><path d="M83.63 24.116a1.37 1.37 0 1 0 0-2.74 1.37 1.37 0 0 0 0 2.74ZM83.63 108.112a3.378 3.378 0 1 0 0-6.756 3.378 3.378 0 0 0 0 6.756ZM52.583 27.038v67.378H32.777a2.922 2.922 0 0 1-2.922-2.922V28.498l.107-.397.284-1.063h22.337Z" fill="#fff"/><path d="M55.124 28.101v6.065H29.855v-5.668l.107-.397h25.162Z" fill="#4C4C78"/><path d="M137.413 28.498H29.855a2.921 2.921 0 0 1 2.922-2.92h101.707a2.919 2.919 0 0 1 2.929 2.92Z" fill="#C8CAD7"/><path d="M32.777 27.769a.73.73 0 1 0 0-1.462.73.73 0 0 0 0 1.462ZM34.968 27.769a.73.73 0 1 0 0-1.462.73.73 0 0 0 0 1.462ZM37.159 27.769a.73.73 0 1 0 0-1.462.73.73 0 0 0 0 1.462Z" fill="#EDEDF4"/><path d="M48.806 30.771H33.632v1.397h15.174v-1.397Z" fill="#00BAFC"/><path opacity=".5" d="M48.806 37.585H33.632v1.397h15.174v-1.397ZM48.806 42.402H33.632V43.8h15.174v-1.398ZM48.806 47.22H33.632v1.397h15.174V47.22ZM48.806 52.036H33.632v1.397h15.174v-1.397ZM48.806 56.853H33.632v1.398h15.174v-1.398ZM48.806 61.671H33.632v1.397h15.174v-1.397ZM48.806 66.487H33.632v1.397h15.174v-1.397Z" fill="#00BAFC"/><path opacity=".5" d="M132.247 35.91h-67.24v.224h67.24v-.225ZM132.247 41.125h-67.24v.225h67.24v-.225ZM132.247 46.342h-67.24v.225h67.24v-.225ZM132.247 51.558h-67.24v.225h67.24v-.225ZM132.247 56.774h-67.24V57h67.24v-.225Z" fill="#DCE0ED"/><path opacity=".5" d="M132.248 56.997H64.924V46.74l6.175 3.043 6.39.866 5.606-1.691 6.764-5.246 3.403-1.965 2.487-.479 2.38.127 3.914 1.934 5.32 3.389 4.175.537 3.311-1.14 7.016-5.748 3.582-1.278 3.748.58 3.053 1.762v15.567Z" fill="#00BAFC"/><path d="M76.659 50.65c-6.062 0-11.666-3.707-11.735-3.755l.166-.249c.087.059 8.71 5.764 16.037 2.906 2.675-1.041 4.574-2.663 6.419-4.23 1.921-1.636 3.736-3.183 6.209-3.854 2.845-.768 5.937-.072 8.293 1.863 2.013 1.655 6.023 4.313 10.259 3.517 2.16-.404 3.981-1.982 5.908-3.652 3.69-3.205 7.518-6.513 14.12-1.762l-.175.242c-6.417-4.61-10.147-1.38-13.753 1.746-1.959 1.698-3.81 3.295-6.049 3.722-4.357.816-8.452-1.893-10.505-3.581-2.28-1.875-5.28-2.546-8.023-1.805-2.41.653-4.194 2.178-6.094 3.792-1.858 1.583-3.781 3.221-6.5 4.282a12.563 12.563 0 0 1-4.577.819Z" fill="#00BAFC"/><path d="M97.362 42.904a1.667 1.667 0 1 0 0-3.333 1.667 1.667 0 0 0 0 3.333Z" fill="#00BAFC"/><path d="M55.592 77.458c-2.278-1.312-3.145-1.637-3.145-1.638l-.047-.033a1.896 1.896 0 0 1-.575-.727v-.15.016c.038-.695.53-1.326 1-1.877l1.197-1.41c.138-.142.243-.312.309-.5.024-.097.035-.198.033-.299v-.123c0-.35-.017-.7-.029-1.048-.012-.307-.09-.692-.397-.749-.158-.032-.368.024-.449-.112a.252.252 0 0 1-.02-.181v.013c-.002-.005-.002-.01 0-.016.058-.236.096-.477.113-.72a1.032 1.032 0 0 0-.05-.364c-.178-.508-.787-.716-1.326-.812-.54-.096-1.144-.178-1.483-.599a4.921 4.921 0 0 0-.3-.406 1.18 1.18 0 0 0-.552-.272 3.103 3.103 0 0 0-2.004.175c-.26.117-.522.272-.808.256-.286-.017-.551-.225-.845-.274-.473-.081-.927.268-1.16.68-.139.244-.213.52-.215.801v.046c-.005.302.105.595.309.818.203.213.508.358.599.636.034.114.027.237.057.35 0 .016.009.03.013.044l-.016.02a3.56 3.56 0 0 0-.749 2.19 3.633 3.633 0 0 0 2.546 3.444v.107a1.549 1.549 0 0 1-.494 1.206l-3.232 1.297s-1.947-.231-2.648 2.613a4.812 4.812 0 0 0-.12 1.442c.026.43-.034 1.184-.532 2.16-.799 1.564-.617 5.15 1.015 5.506 1.54.335 2.144.196 2.207.18v.062c-.025.674-.27 6.479-1.157 7.189-.248.193-.201.325 0 .413v.105c-.027.425-.165 2.04-.76 2.962-.683 1.061-.605 7.201-.605 7.201l-.47 3.623s.29 2.237 0 2.628c-.259.349-.599 8.627-.677 10.421h-.03a.88.88 0 0 0-.698.426c-.386.62-1.719 1.762-1.719 1.762-.289.412-1.361.806-1.927.992a1.172 1.172 0 0 0-.219.094 1.145 1.145 0 0 0-.486.512.55.55 0 0 0-.051.427c.15.355 3.155.599 3.916.248.599-.278 2.97-.647 3.956-.79a.812.812 0 0 0 .704-.704.465.465 0 0 0-.09-.352c-.189-.234-.286-.872-.33-1.288a.873.873 0 0 0 .222-.132 9.447 9.447 0 0 1 .544-3.8c.725-1.917.943-5.469.762-7.779 0 0 2.212-9.519 3.954-10.407.027.033.871 1.117.979 4.474.108 3.41 1.34 5.647 1.34 5.647s-.543 5.79 0 7.957l-.714 3.413a1.353 1.353 0 0 1-.085-.078l.05.247-.014.072.03.007c.08.427.2 1.171.15 1.609-.03.25-.098.59-.15.925-.075.526-.096 1.036.18 1.147.45.183 3.12.433 3.574-.15a.839.839 0 0 0 .132-.877.874.874 0 0 0-.132-.223s-.709-1.158-.508-1.974a.596.596 0 0 0-.085-.467 24.11 24.11 0 0 1 .621-3.832c.45-1.709 1.41-5.456.707-7.921a4.271 4.271 0 0 0-.09-.284 10.635 10.635 0 0 1-.4-4.156 8.448 8.448 0 0 1 0-3.623c.432-1.987.736-3.934.736-3.934s.24-2.628.03-4.239l-.014-.103.114-.026s-.616-2.734-.834-4.474c-.051-.412-.118-.932-.192-1.487.2-.035.399-.085.592-.15 1.958-.676 2.574-6.785 2.574-6.785v-1.938s.653-2.96-1.632-4.28Zm-14.59 47.172-.097-.051.096.051Z" fill="url(#b)"/><path d="M54.41 112.711c.85 2.443-.15 6.407-.599 8.177a24.81 24.81 0 0 0-.599 3.893 8.223 8.223 0 0 1-3.115-.072l.749-3.645c-.53-2.159 0-7.929 0-7.929s-1.198-2.231-1.309-5.629c-.105-3.344-.928-4.425-.955-4.46-1.712.89-3.865 10.373-3.865 10.373.176 2.301-.036 5.841-.75 7.753a9.592 9.592 0 0 0-.53 3.787c-.248.209-.592.244-.964.185-1.01-.164-2.222-1.035-2.222-1.035s.39-10.333.672-10.725c.283-.393 0-2.62 0-2.62l.46-3.61s-.07-6.124.6-7.188c.58-.918.714-2.53.74-2.952v-.105l1.025-1.226s9.912-.749 10.655 0c.182.182.3.599.362 1.12.204 1.605-.03 4.224-.03 4.224s-.3 1.947-.722 3.928a8.598 8.598 0 0 0 0 3.611 10.782 10.782 0 0 0 .397 4.145Z" fill="#65617D"/><path d="M53.79 128.233c-.442.584-3.043.337-3.486.15-.271-.113-.25-.62-.177-1.144.047-.334.114-.674.14-.921.073-.638-.21-1.931-.21-1.931s.584.62.725 0a.678.678 0 0 1 .504-.479c.304-.092.63-.071.92.057.46.199 1.226.624 1.088 1.198-.194.813.496 1.966.496 1.966a.9.9 0 0 1 .129.223.851.851 0 0 1-.129.881Z" fill="#A27772"/><path opacity=".1" d="M53.79 128.233c-.442.584-3.043.337-3.486.15-.271-.113-.25-.62-.177-1.144.279.13.749.239 1.546.166.185-.018.37-.024.557-.018a12.87 12.87 0 0 0 1.689-.033.85.85 0 0 1-.129.879ZM44.717 113.419c.176 2.301-.036 5.841-.75 7.753a9.592 9.592 0 0 0-.53 3.787c-.248.208-.592.244-.964.184.215-1.497 1.123-7.926 1.708-13.007.663-5.788 3.769-9.77 3.769-9.77l.62.682c-1.7.888-3.853 10.371-3.853 10.371Z" fill="#000"/><path d="m52.728 76.216-.433 2.124-2.115 3.558-2.61-1.116s-3.55-3.716-1.32-4.247c.267-.057.52-.169.741-.329.438-.331.575-.81.578-1.28a3.939 3.939 0 0 0-.362-1.523l4.566-1.434c-.189.6-.3 1.222-.328 1.85-.035 1.243.427 1.857.806 2.149.14.114.303.198.477.248Z" fill="#FBBEBE"/><path opacity=".1" d="M51.773 71.97c-.189.6-.3 1.22-.328 1.849a3.609 3.609 0 0 1-3.876 1.107 3.937 3.937 0 0 0-.362-1.523l4.566-1.434Z" fill="#000"/><path d="M52.296 71.385a3.61 3.61 0 1 1-3.611-3.61 3.602 3.602 0 0 1 3.61 3.61Z" fill="#FBBEBE"/><path opacity=".1" d="m52.728 76.216-.433 2.124-2.115 3.558-2.61-1.116s-3.55-3.716-1.32-4.247c.267-.057.52-.169.741-.33-.402 1.108 1.26 3.41 1.26 3.41.193.284.638.106.638.106 1.069-.162 3.041-3.241 3.362-3.753.14.114.303.198.477.248ZM54.773 96.806c-.63.15-4.107.912-5.425.72-1.45-.212-4.273-.353-4.273-.353s-1.797.096-2.349-.15v-.105l1.025-1.226s9.912-.75 10.655 0c.194.176.3.591.367 1.114Z" fill="#000"/><path d="M48.25 79.72s-1.867-2.585-1.163-3.593l-3.155 1.294s-1.899-.231-2.583 2.602c-.11.472-.15.956-.119 1.44.026.426-.032 1.178-.52 2.151-.778 1.558-.598 5.134.992 5.487 1.59.354 2.16.177 2.16.177s-.213 6.478-1.133 7.22c-.919.744 2.347.567 2.347.567s2.821.15 4.273.355c1.45.205 5.52-.749 5.52-.749s-.598-2.725-.814-4.46c-.215-1.734-.707-5.427-.707-5.427l3.61-4.89s.637-2.957-1.593-4.265c-2.23-1.31-3.07-1.633-3.07-1.633s-2.246 3.65-3.408 3.827c0 .003-.443.182-.636-.102Z" fill="#FF748E"/><path opacity=".1" d="M44.109 80.748s-.035 1.168.178 1.628c.212.46.99 3.008.99 3.008h-1.769s.956-1.025.885-1.521c-.07-.496-.284-3.115-.284-3.115Z" fill="#000"/><path d="M49.349 89.56s-3.91-.956-4.273-1.77c-.364-.812-1.369-2.636-1.369-2.636l.412-.556 1.902 1.498s2.266 1.797 3.328 1.982c1.061.186 0 1.481 0 1.481Z" fill="#FBBEBE"/><path opacity=".05" d="M49.349 89.56s-3.91-.956-4.273-1.77c-.364-.812-1.369-2.636-1.369-2.636l.412-.556 1.902 1.498s2.266 1.797 3.328 1.982c1.061.186 0 1.481 0 1.481Z" fill="#000"/><path d="M52.728 84.96v2.12h-.341a9.92 9.92 0 0 0-4.813 1.247l-.638.353-.172.096-1.098-2.47 1.027-.922h.053c.251.024 1.337.114 1.797-.04.46-.154.98-.62 2.267-.29.635.161 1.176.872 1.797.65l.121-.744Z" fill="#FBBEBE"/><path opacity=".1" d="m56.144 81.101.709.797v1.929s-.6 6.089-2.513 6.761c-1.914.673-5.324-.39-5.324-.39s-.882-2.335-.47-2.478c.412-.142 3.645-.994 3.645-.994s-.047-3.572.662-4.633c0 0-.46-3.328 1.132-3.398 1.592-.07 2.16 2.406 2.16 2.406Z" fill="#000"/><path d="m56.248 81.101.708.797v1.929s-.6 6.089-2.515 6.761c-1.915.673-5.322-.39-5.322-.39s-.882-2.335-.47-2.478c.412-.142 3.644-.994 3.644-.994s-.045-3.572.663-4.633c0 0-.461-3.328 1.132-3.398 1.593-.07 2.16 2.406 2.16 2.406Z" fill="#FF748E"/><path opacity=".1" d="M51.306 72.919c.031-.233.003-.47-.081-.689a.528.528 0 0 0-.56-.324c-.3.07-.434.465-.731.56-.25.079-.524-.098-.644-.332a1.694 1.694 0 0 1-.123-.77v-.888c0-.322-.01-.669-.21-.922-.246-.315-.826-.45-1.212-.439a1.029 1.029 0 0 0-.694.279.899.899 0 0 1-.73.26.63.63 0 0 1-.507-.44v-.012a3.61 3.61 0 1 1 5.37 4.792c.06-.356.1-.715.122-1.075Z" fill="#000"/><path d="M46.32 69.548a.635.635 0 0 1-.509-.44c-.028-.114-.02-.237-.055-.35-.083-.278-.379-.423-.578-.634-.398-.422-.373-1.119-.091-1.628.229-.41.67-.756 1.133-.677.286.051.533.255.824.273.29.018.534-.138.789-.255a2.97 2.97 0 0 1 1.956-.174c.2.04.387.134.539.272.103.129.199.264.287.404.33.42.921.503 1.447.599.526.096 1.122.3 1.294.81.115.335 0 .7-.062 1.048a.3.3 0 0 0 .014.217c.082.137.287.08.45.111.299.063.373.45.384.749.014.347.023.697.028 1.048.01.13 0 .261-.03.388a1.372 1.372 0 0 1-.299.487l-1.17 1.404c-.518.623-1.067 1.348-.964 2.152-.245.11-.536-.101-.617-.359-.08-.258-.016-.533.039-.797.094-.455.156-.917.184-1.382.032-.233.004-.47-.08-.69a.53.53 0 0 0-.562-.324c-.3.07-.433.465-.73.559-.25.08-.524-.097-.644-.331a1.713 1.713 0 0 1-.122-.77v-.888c0-.322-.01-.67-.21-.922-.246-.315-.827-.45-1.213-.44a1.029 1.029 0 0 0-.693.28.9.9 0 0 1-.738.26Z" fill="#7C5C5C"/><path opacity=".1" d="m47.135 80.66 1.11 4.552s.873-.004-1.11-4.552ZM50.924 79.897s-1.453 2.378-.885 4.836l.27.02s-.483-1.139.615-4.856ZM51.843 93.35s1.782-.59 1.913.778c0 0-.337-.939-1.913-.778ZM46.693 85.49s-.353 2.479.283 3.47a7.778 7.778 0 0 1-3.114.424l-.213-3.893h3.044Z" fill="#000"/><path opacity=".1" d="m46.936 88.68-.172.096-1.098-2.47 1.027-.922h.053c-.017.12-.303 2.248.19 3.296Z" fill="#000"/><path d="M46.693 85.384s-.353 2.479.283 3.47a7.779 7.779 0 0 1-3.114.424l-1.239-3.894h4.07Z" fill="#FF748E"/><path d="M43.63 126.726a.8.8 0 0 1-.687.701c-.96.15-3.276.509-3.86.788-.749.355-3.681.106-3.823-.247a.565.565 0 0 1 .05-.427 1.165 1.165 0 0 1 .688-.599c.554-.186 1.6-.577 1.88-.987 0 0 1.304-1.141 1.675-1.756a.844.844 0 0 1 .681-.424c.31-.015.655.142.797.82 0 0 1.698.969 2.158.12 0 0 .07 1.305.352 1.662a.474.474 0 0 1 .09.349Z" fill="#A27772"/><path opacity=".1" d="M43.63 126.726a.8.8 0 0 1-.687.701c-.96.15-3.276.509-3.86.788-.749.355-3.681.106-3.823-.247a.565.565 0 0 1 .05-.427c.102-.215.268-.393.475-.509.48.317 1.543.629 3.882.263 2.231-.348 3.335-.69 3.874-.922a.467.467 0 0 1 .09.353Z" fill="#000"/><g opacity=".1" fill="#000"><path opacity=".1" d="M53.29 68.844v-.018c.07-.262.107-.531.11-.802-.023.216-.06.431-.11.644a.393.393 0 0 0 0 .176ZM51.225 72.157c.055.127.085.265.087.404a1.215 1.215 0 0 0-.087-.563.531.531 0 0 0-.562-.325c-.3.07-.432.466-.729.56-.25.08-.524-.099-.644-.332a1.675 1.675 0 0 1-.123-.77v-.887c0-.322-.01-.669-.21-.922-.246-.316-.826-.45-1.214-.44a1.023 1.023 0 0 0-.692.28.899.899 0 0 1-.73.259.628.628 0 0 1-.508-.44c-.03-.114-.021-.236-.056-.35-.082-.278-.378-.422-.578-.633a1.165 1.165 0 0 1-.3-.749 1.212 1.212 0 0 0 .3.908c.2.211.496.356.578.635.035.112.026.235.056.349a.634.634 0 0 0 .509.44.898.898 0 0 0 .73-.26c.187-.175.433-.274.69-.278.388-.012.967.126 1.214.44.2.254.208.6.21.923v.887c-.02.263.021.527.123.77.12.234.393.411.643.332.3-.094.427-.488.73-.56a.534.534 0 0 1 .563.322ZM54.135 71.182a1.395 1.395 0 0 1-.3.488c-.391.467-.781.935-1.17 1.403-.49.592-1.012 1.276-.974 2.03.035-.691.518-1.32.974-1.87l1.17-1.404c.133-.14.234-.306.3-.487.028-.127.038-.259.03-.39-.001.078-.011.155-.03.23ZM51.083 74.867a.832.832 0 0 1-.036-.19.946.946 0 0 0 .036.349c.079.258.37.469.617.36 0-.053-.011-.105-.013-.15-.242.097-.531-.117-.604-.369Z"/></g><path opacity=".1" d="M39.325 124.515s.37.65 1.712.076l-1.712-.076ZM50.654 124.67s1.158 1.362 2.615.45l-2.615-.45ZM54.02 108.569s-.817.511-.844.803c-.027.292.422-.213.422-.213l.423-.59ZM54.343 112.483a1.7 1.7 0 0 1-1.007.393c-.61.027-.56.823-.16.584.4-.24 1.167-.977 1.167-.977ZM54.498 112.994s-.392 1.926-.711 1.554l.711-1.554Z" fill="#000"/><g opacity=".5" fill="#DCE0ED"><path opacity=".5" d="M80.832 68.684H70.95v2.097h9.883v-2.097ZM103.527 68.684h-9.883v2.097h9.883v-2.097ZM126.222 68.684h-9.883v2.097h9.883v-2.097Z"/></g><path opacity=".1" d="M143.063 120.676c2.228 0 4.033-.305 4.033-.681 0-.376-1.805-.681-4.033-.681-2.227 0-4.032.305-4.032.681 0 .376 1.805.681 4.032.681ZM17.644 129.28c2.228 0 4.033-.305 4.033-.682 0-.376-1.805-.681-4.033-.681-2.227 0-4.032.305-4.032.681 0 .377 1.805.682 4.032.682Z" fill="#00BAFC"/><path d="M134.237 128.315c3.326 0 6.022-.456 6.022-1.018s-2.696-1.018-6.022-1.018-6.021.456-6.021 1.018 2.695 1.018 6.021 1.018Z" fill="#00BAFC"/><path d="M136.726 125.633c.275-.224.475-.526.574-.867.074-.344-.072-.756-.4-.882-.369-.141-.763.114-1.062.373-.3.259-.64.551-1.03.497a1.572 1.572 0 0 0 .485-1.469.614.614 0 0 0-.135-.299c-.205-.219-.575-.126-.821.046-.778.548-.995 1.605-1 2.558-.078-.343-.012-.701-.013-1.049-.002-.347-.099-.748-.396-.933a1.2 1.2 0 0 0-.599-.14c-.35-.014-.741.021-.979.277-.3.319-.22.852.037 1.198.258.346.653.569 1.014.811.29.174.538.41.725.691.021.04.039.081.052.124h2.196a6.17 6.17 0 0 0 1.352-.936ZM17.829 118.49s.823 1.077-.38 2.696c-1.202 1.618-2.193 2.995-1.796 4.008 0 0 1.815-3.017 3.294-3.059 1.48-.042.506-1.83-1.118-3.645Z" fill="#00BAFC"/><path opacity=".1" d="M17.829 118.49c.072.104.129.218.169.338 1.44 1.693 2.207 3.273.822 3.312-1.29.037-2.836 2.343-3.208 2.926.012.045.027.089.044.133 0 0 1.815-3.018 3.294-3.059 1.48-.042.503-1.835-1.121-3.65Z" fill="#000"/><path d="M19.358 119.862c0 .379-.042.686-.095.686-.052 0-.094-.3-.094-.686 0-.387.052-.201.105-.201.052 0 .084-.178.084.201Z" fill="#FFD037"/><path d="M19.883 120.314c-.332.181-.623.291-.647.244-.024-.046.223-.231.556-.412.332-.181.202-.049.226 0 .024.05.198-.013-.135.168Z" fill="#FFD037"/><path d="M13.484 118.49s-.823 1.077.38 2.696c1.202 1.618 2.193 2.995 1.796 4.008 0 0-1.813-3.017-3.294-3.059-1.481-.042-.506-1.83 1.118-3.645Z" fill="#00BAFC"/><path opacity=".1" d="M13.484 118.49a1.344 1.344 0 0 0-.169.338c-1.44 1.693-2.207 3.273-.822 3.312 1.29.037 2.836 2.343 3.208 2.926-.012.045-.027.09-.045.133 0 0-1.814-3.018-3.295-3.059-1.48-.042-.502-1.835 1.123-3.65Z" fill="#000"/><path d="M11.954 119.862c0 .379.043.686.096.686.052 0 .094-.3.094-.686 0-.387-.052-.201-.105-.201-.052 0-.085-.178-.085.201Z" fill="#FFD037"/><path d="M11.43 120.314c.332.181.621.291.647.244.025-.046-.223-.231-.556-.412-.332-.181-.202-.049-.228 0-.025.05-.196-.013.137.168Z" fill="#FFD037"/><path d="M12.22 125.058s2.3-.072 2.995-.564c.695-.493 3.54-1.085 3.711-.292.173.792 3.457 3.937.86 3.958-2.597.02-6.034-.405-6.726-.826-.691-.42-.84-2.276-.84-2.276Z" fill="#A8A8A8"/><path opacity=".2" d="M19.826 127.884c-2.596.021-6.035-.404-6.727-.825-.525-.322-.736-1.474-.805-2.004h-.078s.15 1.854.839 2.276c.688.423 4.128.846 6.725.825.749 0 1.008-.272.994-.667-.105.242-.39.39-.948.395Z" fill="#000"/><path d="M70.25 83.325c0-3.06 2.49-5.412 5.552-5.412h.044V76.52h-.044c-3.83 0-6.945 2.976-6.945 6.805a6.926 6.926 0 0 0 2.38 5.227l.986-.987a5.542 5.542 0 0 1-1.974-4.24Z" fill="#00BAFC"/><path opacity=".5" d="M75.985 76.522v1.393a5.551 5.551 0 1 1-3.623 9.789l-.99.987a6.942 6.942 0 1 0 4.61-12.169h.003ZM121.51 77.843c3.061 0 5.412 2.49 5.412 5.553v.043h1.392v-.043c0-3.83-2.975-6.946-6.804-6.946a6.927 6.927 0 0 0-5.227 2.38l.987.987a5.542 5.542 0 0 1 4.24-1.974Z" fill="#00BAFC"/><path d="M128.313 83.578h-1.393a5.55 5.55 0 0 1-7.478 5.17A5.56 5.56 0 0 1 116 84.953a5.546 5.546 0 0 1 1.131-4.997l-.983-.987a6.95 6.95 0 0 0-1.508 6.254 6.95 6.95 0 0 0 4.276 4.808 6.94 6.94 0 0 0 9.401-6.453h-.004Z" fill="#00BAFC"/><path opacity=".5" d="m101.323 76.93-.277 1.386c2.038.822 3.341 2.82 3.341 5.148a5.555 5.555 0 0 1-2.909 4.884 5.553 5.553 0 0 1-7.158-8.111 5.55 5.55 0 0 1 2.29-1.857l-.617-1.25a6.943 6.943 0 1 0 9.793 6.334c0-3.005-1.779-5.569-4.463-6.535Z" fill="#00BAFC"/><path d="M99.015 77.832c.665 0 1.324.137 1.934.402l.277-1.386a6.128 6.128 0 0 0-2.21-.408c-.982 0-1.952.208-2.846.612l.623 1.247a5.495 5.495 0 0 1 2.222-.467Z" fill="#00BAFC"/></g><defs><linearGradient id="b" x1="46.139" y1="128.598" x2="46.139" y2="65.355" gradientUnits="userSpaceOnUse"><stop stop-color="gray" stop-opacity=".25"/><stop offset=".54" stop-color="gray" stop-opacity=".12"/><stop offset="1" stop-color="gray" stop-opacity=".1"/></linearGradient><clipPath id="a"><path fill="#fff" transform="translate(.39)" d="M0 0h169.22v130H0z"/></clipPath></defs></svg>