<svg width="180" height="130" fill="none" xmlns="http://www.w3.org/2000/svg"><g clip-path="url(#a)"><path opacity=".1" d="M57.665 4.904C62.496.605 70.076-.276 76.975.066c21.674 1.076 41.238 11.54 58.16 23.377 6.127 4.283 12.159 8.901 16.135 14.802 8.101 12.01 5.694 28.65-5.562 38.544-3.83 3.368-8.473 5.952-13.24 8.235-8.475 4.07-17.619 7.335-27.237 8.267-6.86.661-13.803.124-20.622-.8-19.051-2.588-37.752-8.302-53.425-18.068-6.875-4.289-13.356-9.617-16.19-16.555-2.834-6.937-1.02-15.724 6-19.83 2.903-1.698 6.375-2.465 9.773-3.184 5.003-1.06 10.085-2.105 14.6-4.26 4.663-2.224 10.183-6.53 9.26-11.455-.99-5.294-1.785-9.937 3.038-14.235ZM141.152 118.215c9.995 0 18.097-.52 18.097-1.161s-8.102-1.16-18.097-1.16c-9.995 0-18.098.519-18.098 1.16 0 .641 8.103 1.161 18.098 1.161ZM94.113 110.448c9.995 0 18.097-.52 18.097-1.161s-8.102-1.161-18.097-1.161c-9.995 0-18.098.52-18.098 1.161s8.103 1.161 18.098 1.161ZM27.672 128.859c9.995 0 18.097-.519 18.097-1.16 0-.641-8.102-1.161-18.097-1.161-9.995 0-18.098.52-18.098 1.161s8.103 1.16 18.098 1.16ZM62.061 130c4.113 0 7.447-.214 7.447-.478s-3.334-.478-7.447-.478c-4.112 0-7.447.214-7.447.478s3.335.478 7.447.478ZM173.65 117.592c3.205 0 5.803-.167 5.803-.372 0-.206-2.598-.372-5.803-.372s-5.804.166-5.804.372c0 .205 2.599.372 5.804.372ZM120.387 109.783c2.718 0 4.921-.141 4.921-.316 0-.174-2.203-.316-4.921-.316-2.717 0-4.92.142-4.92.316 0 .175 2.203.316 4.92.316Z" fill="#00BAFC"/><path d="M174.485 108.292s.777 1.017-.358 2.551c-1.134 1.534-2.073 2.829-1.694 3.784 0 0 1.714-2.848 3.108-2.888 1.394-.04.48-1.733-1.056-3.447Z" fill="#00BAFC"/><path opacity=".1" d="M174.485 108.292c.069.098.125.205.165.319 1.361 1.599 2.085 3.09.777 3.128-1.219.035-2.68 2.214-3.031 2.764.012.042.025.084.042.124 0 0 1.714-2.848 3.108-2.888 1.394-.04.474-1.733-1.061-3.447Z" fill="#000"/><path d="M175.931 109.586c0 .359-.039.648-.089.648-.05 0-.089-.289-.089-.648 0-.358.049-.188.099-.188.049 0 .079-.169.079.188Z" fill="#FFD037"/><path d="M176.427 110.015c-.314.165-.587.274-.611.231-.025-.043.211-.218.525-.39.314-.172.19-.047.214 0 .023.046.186-.013-.128.159Z" fill="#FFD037"/><path d="M170.383 108.292s-.777 1.017.358 2.551c1.136 1.534 2.072 2.829 1.693 3.784 0 0-1.712-2.848-3.108-2.888-1.395-.04-.478-1.733 1.057-3.447Z" fill="#00BAFC"/><path opacity=".1" d="M170.383 108.292a1.242 1.242 0 0 0-.166.319c-1.36 1.599-2.086 3.09-.778 3.128 1.218.035 2.681 2.214 3.03 2.764a1.059 1.059 0 0 1-.041.124s-1.713-2.848-3.108-2.888c-1.396-.04-.472-1.733 1.063-3.447Z" fill="#000"/><path d="M168.938 109.586c0 .359.039.648.089.648.049 0 .091-.289.091-.648 0-.358-.051-.188-.101-.188-.05 0-.079-.169-.079.188Z" fill="#FFD037"/><path d="M168.442 110.015c.314.165.588.274.611.231.024-.043-.211-.218-.525-.39-.315-.172-.191-.047-.214 0-.023.046-.187-.013.128.159Z" fill="#FFD037"/><path d="M169.194 114.495s2.172-.066 2.827-.532c.655-.467 3.341-1.024 3.505-.276.164.747 3.264 3.718.812 3.738-2.452.02-5.699-.382-6.354-.779-.655-.397-.79-2.151-.79-2.151Z" fill="#A8A8A8"/><path opacity=".2" d="M176.373 117.165c-2.452.02-5.699-.382-6.352-.78-.496-.303-.697-1.391-.763-1.893h-.072s.137 1.752.79 2.149 3.9.799 6.354.779c.707 0 .952-.257.939-.63-.1.23-.369.37-.896.375Z" fill="#000"/><path d="M121.26 101.834s.662.868-.307 2.181c-.969 1.312-1.772 2.42-1.448 3.238 0 0 1.464-2.437 2.658-2.48 1.194-.043.407-1.474-.903-2.939Z" fill="#00BAFC"/><path opacity=".1" d="M121.26 101.834c.058.084.104.176.136.273 1.157 1.367 1.784 2.645.661 2.675-1.041.029-2.293 1.894-2.592 2.366.01.036.022.071.036.105 0 0 1.465-2.437 2.659-2.48 1.194-.043.41-1.474-.9-2.939Z" fill="#000"/><path d="M122.495 102.942c0 .305-.034.553-.076.553-.041 0-.077-.248-.077-.553 0-.306.043-.166.086-.166s.067-.14.067.166Z" fill="#FFD037"/><path d="M122.92 103.307c-.269.145-.496.235-.524.197-.028-.038.182-.185.45-.331.268-.145.165-.04.184 0 .018.04.158-.013-.11.134Z" fill="#FFD037"/><path d="M117.749 101.834s-.662.868.306 2.181c.967 1.312 1.774 2.42 1.45 3.238 0 0-1.467-2.437-2.661-2.48-1.193-.043-.408-1.474.905-2.939Z" fill="#00BAFC"/><path opacity=".1" d="M117.749 101.834a1.078 1.078 0 0 0-.138.273c-1.157 1.367-1.783 2.645-.661 2.675 1.043.029 2.293 1.894 2.593 2.366-.01.034-.022.071-.035.105 0 0-1.467-2.437-2.66-2.48-1.194-.043-.412-1.474.901-2.939Z" fill="#000"/><path d="M116.512 102.942c0 .305.035.553.078.553s.076-.248.076-.553c0-.306-.043-.166-.086-.166s-.068-.14-.068.166Z" fill="#FFD037"/><path d="M116.089 103.307c.268.145.496.235.522.197.027-.038-.18-.185-.45-.331-.269-.145-.165-.04-.183 0-.018.04-.159-.013.111.134Z" fill="#FFD037"/><path d="M116.724 107.141s1.858-.058 2.419-.456c.56-.399 2.86-.877 2.999-.237.139.64 2.792 3.183.694 3.199-2.098.017-4.876-.33-5.434-.661-.559-.331-.678-1.845-.678-1.845Z" fill="#A8A8A8"/><path opacity=".2" d="M122.874 109.424c-2.1.018-4.877-.33-5.436-.661-.425-.26-.595-1.19-.651-1.62h-.063s.117 1.498.678 1.838c.56.341 3.336.685 5.434.662.605 0 .815-.22.804-.539-.078.205-.316.317-.766.32Z" fill="#000"/><g opacity=".8"><path opacity=".8" d="M24.979 102.799a12.364 12.364 0 1 1-.011 24.728 12.364 12.364 0 0 1 .01-24.728Z" fill="#E74D89"/><path opacity=".8" d="M24.979 128.406a13.245 13.245 0 1 1 13.26-13.25 13.264 13.264 0 0 1-13.26 13.25Zm11.178-11.436a16.688 16.688 0 0 0-7.055-.496 48.298 48.298 0 0 1 2.204 8.068 11.239 11.239 0 0 0 4.85-7.572Zm-6.754 8.617a47.203 47.203 0 0 0-2.414-8.576.205.205 0 0 1-.073.02c-6.392 2.227-8.681 6.652-8.888 7.065a11.278 11.278 0 0 0 6.944 2.382 11.03 11.03 0 0 0 4.424-.891h.007Zm-12.835-2.848c.258-.435 3.366-5.572 9.209-7.469.144-.051.3-.092.445-.133-.28-.644-.59-1.285-.923-1.917-5.654 1.688-11.145 1.616-11.643 1.606 0 .114-.01.228-.01.34a11.31 11.31 0 0 0 2.922 7.573Zm-2.674-9.882a41.885 41.885 0 0 0 10.468-1.378 72.623 72.623 0 0 0-4.196-6.537 11.354 11.354 0 0 0-6.271 7.915Zm8.432-8.68a59.508 59.508 0 0 1 4.228 6.613c4.03-1.511 5.727-3.791 5.936-4.08a11.284 11.284 0 0 0-7.512-2.849 11.73 11.73 0 0 0-2.652.322v-.006Zm11.417 3.842c-.238.322-2.135 2.756-6.32 4.464.259.539.518 1.088.756 1.637.083.197.166.393.25.58 3.77-.478 7.51.289 7.883.362a11.282 11.282 0 0 0-2.57-7.045v.002Z" fill="#B2215A"/></g><path d="M55.64 77.426c-.3-.376-.64-2.957-.64-2.957l-1.323-6.576-.684-3.79s-.166-4.786-3.162-7.16l-.233-.184v-.127a4.342 4.342 0 0 0-.299-1.348.957.957 0 0 1-.107-.451.459.459 0 0 1 .06-.175c.14-.193.324-.348.538-.453.544-.331 1.007-.852 1.133-1.469v-.04c0-.027 0-.055.011-.084.012-.028 0-.03 0-.046a.771.771 0 0 0 0-.086V52.32c0-.038-.008-.078-.015-.116v-.008a1.339 1.339 0 0 0-.767-1.038.497.497 0 0 0 .34-.283.643.643 0 0 0 .069-.253v-.02a.794.794 0 0 0 0-.11v-.034a.73.73 0 0 0-.024-.107v-.029l-.01-.023c-.11-.317-.373-.562-.6-.816-1.306-1.464-1.559-3.522-1.914-5.43-.197-1.058-.569-2.263-1.594-2.665a7.916 7.916 0 0 0-.883-.225c-.91-.241-1.653-.876-2.543-1.187a3.838 3.838 0 0 0-1.87-.157c-.477.08-.878.314-1.339.425-.992.243-2.195-.028-2.976.774-.547.557-.59 1.407-.86 2.132-.509 1.348-1.831 2.328-2.174 3.729-.22.902.008 1.818.248 2.726.18.61.303 1.235.364 1.868.01.16.01.32 0 .48-.035.466-.14.924-.313 1.359-1.117.413-2.273.9-2.359 1.175-.165.54-2.863 2.082-2.863 2.082s-1.025.874-1.025 1.207c0 .332-.341 1.374-.556 1.374-.215 0-.64 4.204-.64 4.204v4.371s-1.579 5.162-1.942 9.742c0 0-.639 2.925.403 4.603.136.228.31.43.514.6l.532 1.39c.188-.312.426-.592.705-.826.026.173.056.377.092.603.045.285.098.607.166.953-.33.517-1.13 1.6-2.088 2.005-.887.374.267 1.362 1.064 1.94-.211 1.053-.517 2.346-.765 2.514-.428.291-1.794 3.955-1.794 3.955s-2.69 6.283 1.175 6.994c3.866.71 5.837-.958 5.837-.958h.926s1.126-.635 1.157-1.947c.63-.52 1.597-1.343 1.794-1.675.197-.332-.346-1.414-.69-2.004l.091-.165s3.676-4.704 4.145-4.205c.47.5.769 1.29.556 1.79l.201 2.882v4.496s-.527 2.04 0 2.248c.528.209 0 .992 0 .992s.197.916.234 1.207c.019.375.019.75 0 1.125l-.177 4.497-.343 6.659s-.383.543-.084.916c.3.374.165 1.25.084 1.416-.08.165-.127 1.54-.127 1.54s-1.24 1.29-.256 1.624l.038.012c-.407.377-.412 1.225-.38 1.488.031.262-.262 1.322-.481 1.922a1.49 1.49 0 0 1-.202.429c-.15.105 0 1.271 0 1.271s4.804.395 5.211 0c.165-.154.124-.527.008-.959a9.935 9.935 0 0 0-.734-1.81c-.28-.519-.148-1.186-.148-1.186v-.496c.322.052.532.081.532.081s.598-.496.342-.957c-.256-.461.47-3.037.47-3.037s.811-2.915.811-3.206c0-.291 1.069-4.079 1.069-4.079s1.58-6.702.811-9.867c0 0 .683-.79.597-.992-.086-.202-.284-1.083.008-1.456.293-.374 1.531-5.038 1.874-5.828.157-.366.55-1.374.927-2.358 1.701-.255 3.728-.724 3.728-.724s-.302-1.288-.527-2.604l.185-.905.066-.312c.153.15.289.316.405.496l.34-1.665s.039-.058.103-.165c.399-.624 1.85-2.864 2.547-3.543.811-.806.3-4.387 0-4.76Z" fill="url(#b)"/><path d="M45.275 49.572h-4.712v5.29h4.712v-5.29Z" fill="#925978"/><path opacity=".1" d="M45.275 49.572h-4.712v5.29h4.712v-5.29Z" fill="#000"/><path d="M33.658 95.163s1.2 1.9.91 2.397c-.29.496-2.27 2.108-2.27 2.108l-.586-3.968 1.946-.537Z" fill="#FF6484"/><path d="m29.939 101.28.874-.124h.896s1.19-.685 1.123-2.108c-.068-1.424 0-2.81 0-2.81l-2.893 5.042Z" fill="#575988"/><path opacity=".1" d="m29.939 101.28.874-.124h.896s1.19-.685 1.123-2.108c-.068-1.424 0-2.81 0-2.81l-2.893 5.042Z" fill="#000"/><path d="m31.71 81.895-4.96 5.456s-.58 3.596-.993 3.885c-.413.29-1.726 3.927-1.726 3.927s-2.6 6.241 1.138 6.944c3.738.702 5.64-.951 5.64-.951l3.175-5.745s3.556-4.671 4.011-4.175c.455.496.744 1.281.538 1.777l.193 2.852v4.464s-.51 2.026 0 2.232c.51.207 0 .992 0 .992s.192.91.227 1.199c.034.289 0 1.116 0 1.116l-.166 4.464-.33 6.613s-.373.538-.083.91.165 1.24.082 1.405c-.082.165-.123 1.529-.123 1.529s-1.2 1.282-.248 1.612c.95.331 3.72.744 3.72.744s.578-.496.33-.95c-.248-.455.455-3.018.455-3.018s.785-2.893.785-3.182c0-.29 1.033-4.051 1.033-4.051s1.53-6.655.786-9.796c0 0 .661-.785.578-.992-.082-.207-.276-1.075 0-1.447.277-.372 1.489-5.001 1.82-5.786.33-.786 1.735-4.588 1.735-4.588v-7.027l-17.618-.413Z" fill="#575988"/><path d="m46.517 56.97-2.854 5.392-.752 1.419-.114.216-7.358.29s-.21-.465-.507-1.186c-.515-1.248-1.292-3.268-1.684-4.973a10.22 10.22 0 0 1-.215-1.238c-.109-1.032.057-1.768.718-1.83.167-.016.336.002.496.05.46.136.941.183 1.419.138 1.746-.212 2.257-2.055 2.342-3.788 0-.122.012-.245.014-.365 0-.376 0-.74-.025-1.073a15.076 15.076 0 0 0-.195-1.69 7.174 7.174 0 0 1 1.365-.504c1.396-.358 3.362-.348 3.388 2.53-.003.637.06 1.273.189 1.897.074.356.194.701.355 1.027.485.93 1.157 1.032 1.473 1.02a.824.824 0 0 0 .174-.018l1.77 2.687Z" fill="#FFC5CB"/><path opacity=".1" d="M39.172 60.092c.102.293.154.601.154.911.031.327.024.656-.023.98a1.39 1.39 0 0 1-.46.849M41.254 52.675a4.423 4.423 0 1 0 0-8.845 4.423 4.423 0 0 0 0 8.845Z" fill="#000"/><path d="M45.675 48.087a4.421 4.421 0 1 1-8.704-1.105 4.42 4.42 0 0 1 8.702 1.105h.002Z" fill="#FFC5CB"/><path opacity=".1" d="M34.154 59.12s1.571 4.092 4.878 3.43c0 0 3.338.262 5.25-2.19 1.91-2.452 2.025 14.053 2.025 14.053l-.744 10.954s-5.33 3.182-7.644 2.769c-2.314-.413-3.43-1.653-3.43-1.653s-2.44-2.274-3.1-2.563c-.662-.29.289-14.384.289-14.384l.785-5.29 1.691-5.126Z" fill="#000"/><path d="M34.154 58.79s1.571 4.091 4.878 3.43c0 0 3.338.261 5.25-2.19 1.91-2.453 2.025 14.053 2.025 14.053l-.744 10.953s-5.33 3.183-7.644 2.77c-2.314-.414-3.43-1.654-3.43-1.654s-2.44-2.273-3.1-2.563c-.662-.29.289-14.384.289-14.384l.785-5.29 1.691-5.126Z" fill="#E8F4FF"/><path opacity=".1" d="M33.99 81.895s3.554 3.968 3.347 4.38c-.206.414-3.43-3.182-3.348-4.38ZM33.377 72.028s1.136 1.587 1.847 1.421l-1.846-1.421Z" fill="#000"/><path opacity=".1" d="M35.833 55.11s0 .048-.012.138c-.038.507-.18 2.348-.372 4.398-.107 1.157-.23 2.37-.355 3.455-.205 1.764-.424 3.176-.609 3.376-.537.579-.33 6.035-.33 6.035v6.903s-.453 2.19-.827 2.686c-.374.496-1.286 2.356-2.017 2.604-.257.141-.488.325-.683.544-.661.662-1.597 1.764-2.315 2.634-.592.726-1.03 1.286-1.03 1.286s-2.893-1.818-1.653-2.356c.928-.401 1.695-1.476 2.02-1.984.111-.165.166-.282.166-.282.058-.386.146-.766.262-1.138.105-.35.26-.685.459-.992.15-.256.397-.442.684-.517 1.075-.207 1.612-10.416 1.612-10.416l-3.307-7.216-.33-.72s.413-4.175.62-4.175c.206 0 .537-1.033.537-1.364 0-.33.992-1.199.992-1.199s2.622-1.534 2.788-2.071c.087-.283 1.29-.794 2.408-1.214 1.006-.377 1.943-.681 1.943-.681.547.833-.651 2.267-.651 2.267Z" fill="#000"/><path d="M35.667 55.11s0 .048-.011.138c-.038.507-.18 2.348-.372 4.398-.108 1.157-.23 2.37-.356 3.455-.205 1.764-.423 3.176-.608 3.376-.538.579-.33 6.035-.33 6.035v6.903s-.454 2.19-.828 2.686c-.373.496-1.286 2.356-2.017 2.604a2.56 2.56 0 0 0-.682.544c-.662.662-1.598 1.764-2.315 2.634-.592.726-1.03 1.286-1.03 1.286s-2.893-1.818-1.653-2.356c.927-.401 1.694-1.476 2.02-1.984.11-.165.165-.282.165-.282.059-.386.147-.766.263-1.138.105-.35.26-.685.458-.992.152-.256.397-.442.685-.517 1.074-.207 1.612-10.416 1.612-10.416l-3.307-7.216-.33-.72s.413-4.175.62-4.175c.206 0 .537-1.033.537-1.364 0-.33.992-1.199.992-1.199s2.622-1.534 2.787-2.071c.088-.283 1.29-.794 2.41-1.214 1.004-.377 1.942-.681 1.942-.681.547.833-.652 2.267-.652 2.267Z" fill="#FF6484"/><path opacity=".1" d="m52.108 64.607-3.57 4.185s3.1 16.079 2.729 16.823a.644.644 0 0 0-.055.195 4.94 4.94 0 0 0 .021 1.157c.044.405.11.855.184 1.303a50.96 50.96 0 0 0 .51 2.586s-4.174.992-5.455.868c-1.281-.124-.537-2.191-.33-3.142.206-.95-1.406-2.281-1.406-2.281l-2.273-9.333s-.166-2.067-.662-3.059-.041-2.067-.206-3.472c-.118-1.002.603-4.583 1.147-6.665.207-.791.389-1.365.496-1.5a.102.102 0 0 1 .017-.019c.33-.29 0-1.984 0-1.984s.785-4.464.702-4.836c-.046-.212.213-.73.447-1.14.176-.308.338-.555.338-.555s1.6 1.014 4.34 3.23l.248.201c2.894 2.356 3.06 7.11 3.06 7.11l-.282.328Z" fill="#000"/><path d="m52.273 64.607-3.57 4.185s3.1 16.079 2.729 16.823a.644.644 0 0 0-.055.195 4.94 4.94 0 0 0 .022 1.157c.043.405.109.855.183 1.303.219 1.306.511 2.586.511 2.586s-4.175.992-5.456.868c-1.281-.124-.537-2.191-.33-3.142.206-.95-1.406-2.281-1.406-2.281l-2.273-9.333s-.166-2.067-.661-3.059c-.496-.992-.042-2.067-.207-3.472-.117-1.002.603-4.583 1.147-6.665.207-.791.389-1.365.496-1.5a.105.105 0 0 1 .017-.019c.33-.29 0-1.984 0-1.984s.785-4.464.703-4.836c-.047-.212.213-.73.446-1.14.177-.308.339-.555.339-.555s1.599 1.014 4.34 3.23l.248.201c2.893 2.356 3.058 7.11 3.058 7.11l-.28.328Z" fill="#FF6484"/><path opacity=".1" d="M44.736 66.85c-.041.33.992 17.897 2.067 18.93l-2.067-18.93Z" fill="#000"/><path d="M30.8 91.277c-1.158.728-2.04-1.187-2.646-3.394-.282-1.037-.495-2.138-.66-3.06a36.753 36.753 0 0 1-.156-.946c-.114-.737-.166-1.22-.166-1.22l1.217-.245 1.346-.27.166 1.52.077.69s.212.35.496.897c.799 1.6 2.155 4.89.326 6.028ZM52.052 85.954l-.29 1.426-.18.898-.01.045s-3.612 4.897-4.77 2.872c-.884-1.548 1.274-4.086 2.338-5.195.331-.344.556-.55.556-.55l1.681.36.675.144Z" fill="#FFC5CB"/><path d="M42.132 127.485c-.394.392-5.043 0-5.043 0s-.145-1.157 0-1.261c.088-.131.154-.275.195-.427.214-.603.496-1.653.467-1.908-.042-.35-.02-1.756.929-1.653 0 0 1.24-2.521 2.605.579v.744c-.068.398-.018.807.144 1.177.294.575.533 1.176.711 1.797.112.428.146.797-.008.952Z" fill="#FF6484"/><path d="M42.132 127.485c-.394.392-5.043 0-5.043 0s-.145-1.157 0-1.261c.088-.131.154-.275.195-.427.615-.263 1.452-.517 2.037-.296.74.281 2.103.774 2.81 1.032.121.428.155.797 0 .952Z" fill="#E8F4FF"/><path opacity=".1" d="M37.998 51.46c.118.473.28.95.287 1.434.01.66-.277 1.299-.58 1.894-.348.681-.74 1.412-.624 2.168.063.286.145.568.246.843a3.702 3.702 0 0 1-.235 2.665c-.27.547-.826 1.076-1.42.9-.044-.584-.117-1.22-.393-1.718a1.642 1.642 0 0 0-.442-.52c-.43-.33-1.023-.4-1.413-.773a1.184 1.184 0 0 1-.184-.225 1.726 1.726 0 0 1-.231-1.065c0-.056.011-.112.021-.165.08-.403.215-.792.4-1.158.103-.221.21-.443.318-.66.248-.495.457-1.008.625-1.535 1.005-.377 1.942-.681 1.942-.681.55.826-.648 2.266-.648 2.266s0 .048-.011.138c1.746-.232 2.263-2.075 2.343-3.808ZM40.475 45.24c-.483.154-.944.461-1.157.924-.228.513-.11 1.105-.165 1.664a2.093 2.093 0 0 1-.07.362c-.205.686-.848 1.17-1.101 1.832a2.1 2.1 0 0 0-.05.152c-.066.26-.078.531-.034.797a4.42 4.42 0 1 1 5.604.922c.187-.557.384-1.112.536-1.681.357-1.338.418-2.884-.423-3.983a2.945 2.945 0 0 0-3.14-.989ZM49.112 58.627c-.145.528-.516 1.106-1.061 1.081-.26-.011-.496-.165-.756-.19-.368-.033-.717.205-.939.496-.2.313-.376.641-.522.982-.407.79-1.204 1.502-2.084 1.378l-.09-.017a1.342 1.342 0 0 1-.263-.08c-.789-.331-1.215-1.347-1.187-2.244.033-1.024.46-1.993.601-3.008.131-.936.012-1.89.113-2.829.034-.31.09-.617.165-.919.485.93 1.157 1.032 1.473 1.02.177-.309.34-.555.34-.555s1.598 1.013 4.34 3.229a4.417 4.417 0 0 1-.13 1.656Z" fill="#000"/><path d="M42.88 40.327c.857.309 1.58.939 2.46 1.178.288.057.574.131.854.222.992.398 1.352 1.595 1.543 2.645.342 1.895.588 3.938 1.851 5.392.225.258.486.506.59.826.105.321-.036.764-.371.835.575.243.858.954.737 1.568-.12.613-.569 1.119-1.096 1.456-.246.166-.544.33-.577.622a.97.97 0 0 0 .104.45c.34.884.39 1.853.14 2.767-.145.526-.515 1.106-1.06 1.082-.26-.012-.497-.166-.755-.19-.37-.034-.717.205-.94.495-.202.313-.377.641-.523.983-.405.79-1.202 1.5-2.083 1.377-1.014-.144-1.572-1.323-1.541-2.341.031-1.019.463-1.993.603-3.008.13-.936.01-1.89.113-2.829.149-1.375.762-2.653 1.12-3.99.356-1.335.416-2.883-.426-3.982a2.943 2.943 0 0 0-3.141-.992c-.485.154-.944.461-1.157.924-.278.625-.042 1.37-.237 2.026-.22.737-.947 1.243-1.157 1.983-.245.892.33 1.798.347 2.72.01.662-.276 1.3-.579 1.895-.349.681-.74 1.412-.623 2.167.062.287.144.569.245.844a3.71 3.71 0 0 1-.228 2.681c-.272.548-.837 1.077-1.42.9-.065-.819-.18-1.741-.836-2.237-.431-.33-1.025-.4-1.415-.776a1.597 1.597 0 0 1-.418-1.292c.062-.466.205-.917.421-1.333.475-1.025 1.052-2.047 1.118-3.174.1-1.702-.992-3.378-.595-5.038.33-1.389 1.614-2.363 2.1-3.705.26-.721.3-1.566.826-2.12.76-.795 1.923-.526 2.885-.765.447-.113.827-.344 1.297-.422a3.578 3.578 0 0 1 1.823.156Z" fill="#925978"/><path opacity=".1" d="M31.14 75.609v5.373c0 .222 0 .451-.013.683a32.805 32.805 0 0 1-.282 3.037 4.984 4.984 0 0 0-.946-1.04c-.792-.623-1.467-.544-1.974-.26-.22.128-.418.288-.589.475a28.708 28.708 0 0 1-.165-1.22l1.217-.245a1.13 1.13 0 0 1 .684-.517c1.075-.207 1.612-10.416 1.612-10.416l-3.306-7.216v-.352l1.117-1.777c1.86-1.612 2.315.703 2.315.703s.33 6.282.33 6.448v6.324Z" fill="#000"/><path d="M30.81 75.24v5.373c0 .222 0 .452-.013.683-.057 1.488-.283 3.037-.283 3.037-2.315-3.265-3.948-.231-3.948-.231l-.516-1.38a2.326 2.326 0 0 1-.496-.596c-1.007-1.666-.39-4.572-.39-4.572.352-4.546 1.88-9.672 1.88-9.672v-4.34l1.12-1.777c1.86-1.612 2.646.703 2.646.703V75.24Z" fill="#FF6484"/><path opacity=".1" d="M30.8 81.13a32.786 32.786 0 0 1-.283 3.038c-2.314-3.265-3.948-.232-3.948-.232l-.516-1.38a2.33 2.33 0 0 1-.496-.595c1.078-.594 3.454-1.688 5.243-.83Z" fill="#000"/><path d="M30.8 81.296a32.79 32.79 0 0 1-.283 3.037c-2.314-3.265-3.948-.231-3.948-.231l-.516-1.38a2.33 2.33 0 0 1-.496-.596c1.078-.594 3.454-1.688 5.243-.83Z" fill="#FF6484"/><path opacity=".1" d="M30.8 81.296a32.79 32.79 0 0 1-.283 3.037c-2.314-3.265-3.948-.231-3.948-.231l-.516-1.38a2.33 2.33 0 0 1-.496-.596c1.078-.594 3.454-1.688 5.243-.83Z" fill="#fff"/><path opacity=".1" d="M27.669 70.115s.744 4.092 1.488 5.29c.744 1.199-1.488-5.29-1.488-5.29ZM25.764 77.059s.454 2.48 1.405 2.769c.95.29-1.405-2.77-1.405-2.77ZM51.377 85.81l.675.144-.29 1.426A3.548 3.548 0 0 0 49.14 86c-.367-.024-.736 0-1.098.07a9.276 9.276 0 0 0 .311-1.719c.03-.218-.007-.44-.104-.638-.33-.454-.496-4.67-.496-4.67s.29-2.15.455-2.563c.165-.413-.744-2.526-.703-3.165.041-.638.537-6.135.537-6.424 0-.29 1.075-5.952 3.307-3.803l.868 1.199.056.32-3.57 4.185s3.1 16.079 2.729 16.823a.643.643 0 0 0-.055.195Z" fill="#000"/><path d="M55.114 82.225c-.675.675-2.078 2.9-2.464 3.519l-.099.165-.33 1.653s-1.158-1.984-3.844-1.488a9.285 9.285 0 0 0 .31-1.718c.03-.218-.006-.44-.104-.638-.33-.454-.496-4.67-.496-4.67s.29-2.15.455-2.563c.165-.413-.744-2.526-.703-3.165.041-.638.538-6.135.538-6.424 0-.29 1.074-5.952 3.306-3.803l.868 1.199.661 3.76 1.282 6.532s.33 2.562.62 2.934c.29.372.782 3.922 0 4.707Z" fill="#FF6484"/><path opacity=".1" d="m52.647 85.578-.1.166-.33 1.653s-1.157-1.984-3.844-1.488a9.285 9.285 0 0 0 .311-1.718c.92.058 2.776.317 3.963 1.387Z" fill="#000"/><path d="m52.647 85.744-.1.165-.33 1.653s-1.157-1.984-3.844-1.488a9.286 9.286 0 0 0 .311-1.718c.92.058 2.776.318 3.963 1.388Z" fill="#FF6484"/><path opacity=".1" d="m52.647 85.744-.1.165-.33 1.653s-1.157-1.984-3.844-1.488a9.286 9.286 0 0 0 .311-1.718c.92.058 2.776.318 3.963 1.388Z" fill="#fff"/><path opacity=".1" d="M49.944 74.124s2.81-.035 3.224 1.428c.413 1.464-3.224-1.428-3.224-1.428ZM49.407 78.257s4.753-.206 4.546 1.86c-.207 2.067-4.547-1.86-4.547-1.86ZM49.696 81.44s.372-.083.62.785-.62-.785-.62-.785ZM40.069 101.652s1.132-.331 1.653 0c.52.331-1.654 0-1.654 0ZM40.272 102.851s2.687.041 2.934.33c.248.29-2.934-.33-2.934-.33Z" fill="#000"/><g opacity=".1" fill="#000"><path opacity=".1" d="M34.55 51.725c.079-1.353-.587-2.687-.67-4.011-.086 1.336.592 2.681.661 4.044a.25.25 0 0 0 .009-.033ZM37.706 53.96c-.344.671-.728 1.389-.628 2.134.07-.567.362-1.116.628-1.636.302-.596.588-1.227.58-1.895 0-.073-.005-.146-.015-.218-.057.565-.306 1.104-.565 1.615ZM49.803 50.936c.123.052.235.126.331.218a.777.777 0 0 0 .043-.555s0-.015-.008-.023a.508.508 0 0 1-.366.36ZM37.093 59.636c-.272.547-.837 1.076-1.42.9-.065-.82-.18-1.742-.836-2.238-.431-.33-1.025-.4-1.413-.773a1.454 1.454 0 0 1-.41-.877c0 .027-.009.053-.01.08a1.592 1.592 0 0 0 .42 1.292c.388.376.982.45 1.413.776.662.496.77 1.419.835 2.237.584.177 1.15-.352 1.42-.9.283-.58.41-1.225.366-1.87a3.67 3.67 0 0 1-.365 1.373ZM50.54 52.503c-.12.612-.568 1.12-1.094 1.457-.248.165-.545.33-.578.622a.72.72 0 0 0 .056.33 1.45 1.45 0 0 1 .522-.45c.526-.33.974-.844 1.095-1.456.032-.178.032-.36 0-.537v.034ZM49.112 57.799c-.145.526-.514 1.106-1.061 1.081-.26-.011-.496-.165-.754-.19-.37-.033-.718.205-.94.496-.202.312-.376.64-.522.982-.406.79-1.203 1.501-2.083 1.377-.88-.124-1.443-1.071-1.53-1.998 0 .05-.01.102-.01.155-.034 1.023.525 2.197 1.54 2.341.88.124 1.677-.587 2.083-1.377.145-.342.32-.67.521-.982.223-.296.57-.534.94-.496.259.024.497.178.755.19.547.025.916-.556 1.061-1.081.128-.466.178-.95.147-1.432a4.368 4.368 0 0 1-.147.934ZM43.62 45.898c.419.578.65 1.27.661 1.984.043-.9-.125-1.785-.661-2.49a2.943 2.943 0 0 0-3.142-.992c-.484.154-.944.462-1.157.925-.28.624-.043 1.37-.238 2.025-.22.737-.947 1.243-1.157 1.984a1.897 1.897 0 0 0-.043.727 1.66 1.66 0 0 1 .043-.23c.203-.74.93-1.246 1.157-1.984.195-.66-.041-1.4.238-2.025.207-.463.662-.77 1.157-.924a2.944 2.944 0 0 1 3.142 1Z"/></g><g opacity=".8"><path opacity=".8" d="M94.432 109.289c7.323 0 13.26-5.937 13.26-13.26 0-7.323-5.937-13.26-13.26-13.26-7.323 0-13.26 5.937-13.26 13.26 0 7.323 5.937 13.26 13.26 13.26Z" fill="#1769FF"/><path opacity=".8" d="M90.538 90.02a7.499 7.499 0 0 1 1.566.151c.432.084.844.253 1.212.496.337.232.606.549.782.918.2.444.295.928.28 1.415a2.646 2.646 0 0 1-.414 1.514 3 3 0 0 1-1.22.993 2.895 2.895 0 0 1 1.653 1.119 3.674 3.674 0 0 1 .194 3.502 3.046 3.046 0 0 1-.951 1.084 4.22 4.22 0 0 1-1.364.624 6.27 6.27 0 0 1-1.572.201h-5.82V90.019h5.654Zm-.33 4.863c.41.018.817-.098 1.157-.33.304-.22.456-.586.455-1.095a1.401 1.401 0 0 0-.153-.69 1.124 1.124 0 0 0-.403-.421 1.721 1.721 0 0 0-.58-.21 3.925 3.925 0 0 0-.683-.058h-2.48v2.81l2.686-.006Zm.152 5.1c.249 0 .497-.025.74-.077.221-.044.432-.13.622-.251.182-.12.33-.286.43-.48.117-.241.173-.507.165-.775 0-.615-.173-1.057-.522-1.323a2.223 2.223 0 0 0-1.38-.397h-2.878v3.307l2.823-.005Zm7.919-.254c.36.348.875.523 1.548.523.444.011.881-.118 1.249-.367.295-.175.521-.445.64-.766h2.103c-.337 1.044-.853 1.79-1.549 2.239-.76.468-1.64.703-2.533.676a4.977 4.977 0 0 1-1.85-.331 3.834 3.834 0 0 1-1.397-.934 4.199 4.199 0 0 1-.884-1.447 5.326 5.326 0 0 1-.311-1.851 5.071 5.071 0 0 1 .319-1.819 4.207 4.207 0 0 1 2.314-2.422 4.494 4.494 0 0 1 1.81-.354 4.14 4.14 0 0 1 1.937.43c.535.275.999.671 1.354 1.157.36.497.62 1.058.766 1.654.157.632.213 1.286.165 1.936h-6.283c.033.77.23 1.332.589 1.678l.013-.002Zm2.702-4.576c-.287-.314-.722-.472-1.305-.472a2.075 2.075 0 0 0-.95.194 1.779 1.779 0 0 0-.926 1.085 2.804 2.804 0 0 0-.11.572h3.882c-.11-.605-.309-1.065-.598-1.38h.007Zm-3.707-4.527h4.856v1.347h-4.856v-1.347Z" fill="#fff"/></g><g opacity=".8"><path opacity=".8" d="M154.352 103.795v.375a13.26 13.26 0 1 1 .007-.375h-.007Z" fill="#B3BBC6"/><path opacity=".8" d="M154.345 104.17a13.26 13.26 0 0 1-11.657 12.788l-10.826-8.053 1.352-8.763 5.354.331 3.045 2.553 2.166-3.53 3.637 3.022 1.956 1.401v-4.42l4.93 4.563c.012.037.03.072.043.108Z" fill="#666C76"/><path opacity=".8" d="M140.143 104.12c0-2.81-1.728-4.715-5.018-4.715h-3.249v9.46h3.317c3.194 0 4.95-1.934 4.95-4.745Zm-2.359.015c0 2.029-1.042 2.907-2.713 2.907h-.852v-5.813h.852c1.603 0 2.713.917 2.713 2.906Zm11.696 4.73v-9.46h-2.181v5.291l-3.482-5.291h-2.277v9.459h2.181v-5.661l3.728 5.661h2.031v.001Z" fill="#fff"/></g><path d="M144.382 89.688c-.165-.33-1.708-2.543-1.708-2.543l-.046-.198-.506-2.257-.035-.165c.331-.084.569-.189.644-.32.363-.636-.308-1.41-.308-1.41l-.14-3.346-.364-8.101s-.756-2.712-.868-3.346c-.113-.635-1.148-1.965-1.148-1.965s.224-.66-.056-1.134c-.279-.473-.896-2.683-.896-2.683l-.531-6.117-.253-6.019c.254-.001.507.022.756.072.036.03.016-.045-.036-.179a.108.108 0 0 1 .036.013c.086.07-.144-.448-.392-.975l-.03-.062c.119-.431.612-2.179.954-2.81.255-.466-.234-3.685-.608-5.884l-.078-.453a639.923 639.923 0 0 1 1.303-2.265s1.762-5.033 2.49-7.219c.727-2.186 0-7.853 0-7.853s0-.278-.04-.711c-.114-1.17-.55-3.46-2.227-4.35-2.295-1.217-3.022-2.71-3.022-2.71s-2.864-2.606-3.226-1.73l-.025-.05a5.727 5.727 0 0 1-.494-1.525c.366-.289.684-.634.943-1.022 0 .073-.012.146-.017.219v.2a.69.69 0 0 0 0 .09v.055a.527.527 0 0 0 .521-.29c.089-.19.149-.394.177-.603.096-.445.274-.869.524-1.25.245-.375.572-.752.615-1.18a.989.989 0 0 0 0-.189c-.022-.218-.124-.421-.156-.638a1.407 1.407 0 0 1 0-.33c0-.065.015-.13.025-.192.01-.063.027-.166.038-.258.012-.093.022-.144.03-.217V5.78c.023-.19.023-.383 0-.574a1.11 1.11 0 0 0-.536-.863c-.165-.084-.355-.11-.52-.195-.437-.223-.576-.759-.827-1.172a2.069 2.069 0 0 0-1.637-.94c-.661-.027-1.309.262-1.959.165-.415-.067-.797-.291-1.217-.321-.613-.043-1.166.33-1.663.69-.352.252-.728.538-.843.955-.093.34 0 .732-.192 1.03-.124.193-.349.304-.488.496a.824.824 0 0 0-.165.53v.143c.011.127.034.256.056.382a.263.263 0 0 1 0 .04c.05.348-.063.593-.189.934a1.46 1.46 0 0 0-.089.448v.056a.767.767 0 0 0 0 .096c.015.119.067.23.149.317a.498.498 0 0 1 .165-.165v.16a4.374 4.374 0 0 0 1.323 3.125c0 .048-.013.097-.02.145a22.32 22.32 0 0 1-.279 1.564l-.04.166h-.827s.141-.609-1.231.139c-1.373.747-3.052 1.106-3.307 1.243-.255.137-3.358 2.546-3.358 2.546s-2.688 1.548-2.604 4.203l-.307 2.976-.224 5.558s-.42 4.73 0 5.394c.42.663 1.148 4.591 1.007 5.089-.101.36.913 2.893 1.617 4.37-.189.199-.364.41-.524.634 0 0-.281 1.108-.281 1.219 0 0 0 .011.013.018-.62.628-1.608 1.662-1.608 1.89 0 .33.196.62-.111.6-.308-.02-.318.34-.299.56.018.22-.374-.109-.346.305.028.413-2.855 6.914-2.855 6.914s-1.315 3.18-1.819 3.707c-.504.525-1.204 2.848-1.147 3.705.056.856.084 1.107-.141 1.107-.225 0-.671.774-.671.774l-2.211 6.804s-.645 2.101-.84 2.075c-.195-.027-.634 3.61-.634 3.61s-.475 1.078-.559 1.078c-.017 0 .061.078.205.2l-.096.082a7.072 7.072 0 0 1-.653.495c-.009 0-1.278-.88-2.15-.798-.871.083-2.658.302-3.556-.33-.496-.355-1.542-.662-2.384-.675-.671-.01-1.215.165-1.253.674-.085 1.133 3.05 3.264 3.05 3.264s3.307.94 3.947 1.819c.639.88 3.283 2.212 3.283 2.212s.795-.35 1.095-.703a.344.344 0 0 0 .109-.263c-.056-.415 1.091-1.984 1.091-1.984l.165-.778a41.006 41.006 0 0 1 .324-1.432.965.965 0 0 0 .386-.06c1.119-.441 1.231-1.653 1.231-1.653l1.675-3.504s.728-2.018.951-2.379c.223-.36 1.959-3.98 1.959-3.98s.308-1.55.589-2.02c.281-.47.307-1.488.307-1.488s.587-1.549 1.204-2.157a8.156 8.156 0 0 0 1.147-1.576s2.546-4.01 4.282-5.143c0 0 4.172-5.09 4.423-5.532.251-.444 1.035-1.604 1.984-.554.949 1.05 1.958 2.407 1.958 2.407l1.709 4.646 1.903 5.952s.895 1.437.84 1.74c-.055.305 1.455 3.016 1.455 3.016s.587.993.476 1.489c-.111.496.42.992.42.992l.165 2.018s.617 1.984.448 2.297c-.168.312.589 2.212.589 2.212s0 1.686.279 2.24c.28.554.62 2.764.592 2.93-.028.165 0 1.688 0 1.688s.197 0 .509-.01l.014.165.139 1.665.013.154a.66.66 0 0 0-.256.486c0 .45.066 1.77.122 2.81.013.277.028.531.041.745a.551.551 0 0 0 .391.492.55.55 0 0 0 .221.019c.796-.1 1.603-.07 2.389.089.871.2 1.768.266 2.659.195 0 0 .061-.623.071-1.182.008-.357-.005-.686-.07-.814Z" fill="url(#c)"/><path d="M142.241 87.223h-3.774l-.037-.444-.137-1.66-.102-1.257h3.306l.202.914.498 2.249.044.198ZM107.548 80.554c-.071.07-.189.487-.308.992-.213.886-.436 2.038-.436 2.038l-.139.033-2.943.711s-1.543-3.526-.827-3.609c.253-.053.491-.159.699-.31.236-.157.462-.328.677-.513.392-.331.691-.639.691-.639s2.779 1.103 2.586 1.297Z" fill="#FFAAB0"/><path opacity=".1" d="M107.548 80.554c-.071.07-.189.487-.308.992-1.017-.06-2.554-1.267-2.976-1.654.392-.33.691-.638.691-.638s2.786 1.106 2.593 1.3ZM141.697 84.775c-.906.244-2.567.319-3.406.342l-.102-1.257h3.307l.201.915Z" fill="#000"/><path d="M117.716 46.11s-2.067 2.038-2.067 2.37c0 .33.193.616-.109.598-.303-.019-.313.338-.294.558.018.22-.367-.11-.341.303.026.413-2.811 6.89-2.811 6.89s-1.294 3.169-1.79 3.691c-.496.523-1.186 2.84-1.129 3.694.056.855.082 1.101-.139 1.101-.222 0-.662.772-.662.772l-2.175 6.779s-.635 2.094-.827 2.066c-.192-.028-.661 3.61-.661 3.61s-.47 1.074-.553 1.074c-.082 0 2.398 2.15 3.5 1.71 1.103-.44 1.212-1.653 1.212-1.653l1.654-3.472s.717-2.013.937-2.371c.22-.36 1.93-3.968 1.93-3.968s.302-1.543.578-2.01c.276-.469.303-1.489.303-1.489s.578-1.544 1.185-2.15a8.096 8.096 0 0 0 1.129-1.57s2.509-3.996 4.216-5.125c0 0 4.106-5.07 4.354-5.512.248-.442 1.02-1.598 1.957-.55.938 1.046 1.928 2.396 1.928 2.396l1.681 4.63 1.874 5.924s.883 1.433.826 1.736c-.056.302 1.434 3.004 1.434 3.004s.578.992.468 1.488c-.111.496.413.992.413.992l.165 2.012s.607 1.984.442 2.286c-.166.303.578 2.204.578 2.204s0 1.682.277 2.232c.276.55.605 2.756.578 2.922-.026.165 0 1.681 0 1.681s4.158-.028 4.517-.661-.302-1.406-.302-1.406l-.139-3.334-.357-8.073s-.744-2.702-.855-3.335c-.111-.633-1.129-1.956-1.129-1.956s.219-.661-.057-1.131-.881-2.672-.881-2.672l-.524-6.09-.269-6.64-20.065-3.555Z" fill="#DCE6F2"/><path opacity=".1" d="M138.548 50.38c-.166-.139-6.944-.193-7.027-.193-.083 0-2.645-1.02-2.645-1.02s-5.704-.936-6.586-.523c-.881.414-3.61-.772-3.61-.772v-.524s-1.46-.496-1.46-.605c0-.11.276-1.214.276-1.214l.165-.057.632-.217 19.372 3.113s.256.526.496 1.04.471 1.042.387.972Z" fill="#000"/><path d="M138.548 50.215c-.166-.139-6.944-.193-7.027-.193-.083 0-2.645-1.02-2.645-1.02s-5.704-.936-6.586-.523c-.881.413-3.61-.772-3.61-.772v-.524s-1.46-.496-1.46-.605c0-.11.276-1.214.276-1.214l.165-.058.632-.216 19.372 3.113s.256.526.496 1.04.471 1.041.387.972Z" fill="#F1FAFF"/><path opacity=".1" d="m106.961 82.64-.166.779-.139.198-2.934.711s-1.543-3.526-.827-3.609c.253-.053.491-.159.699-.31-.15 1.104.706 2.266.706 2.266 1.209.91 2.661-.035 2.661-.035Z" fill="#000"/><path d="m106.961 82.807-.166.779s-1.129 1.57-1.074 1.984a.348.348 0 0 1-.108.263c-.294.35-1.078.7-1.078.7s-2.589-1.323-3.224-2.205c-.635-.88-3.885-1.818-3.885-1.818s-3.085-2.123-3.002-3.253c.036-.496.572-.68 1.233-.67.827.01 1.857.318 2.348.67.883.634 2.645.414 3.5.331.855-.082 2.111.797 2.111.797-.286 1.157.671 2.455.671 2.455 1.222.911 2.674-.033 2.674-.033Z" fill="#575988"/><path d="M105.621 85.831c-.294.35-1.077.7-1.077.7s-2.59-1.323-3.224-2.204c-.635-.882-3.886-1.82-3.886-1.82s-3.085-2.122-3.002-3.251c.036-.496.572-.681 1.233-.671.496.826 1.229 1.975 1.77 2.296.882.524 2.618 1.516 2.618 1.516s2.755 1.736 2.948 1.93c.159.16 1.754 1.215 2.62 1.504Z" fill="#F1FAFF"/><path opacity=".1" d="M142.245 87.222h-3.78l-.036-.445c.476-.448 1.496-.661 1.496-.661.708-.217 2.012.712 2.27.904l.05.202Z" fill="#000"/><path d="M143.992 90.565c-.01.557-.071 1.177-.071 1.177-.877.07-1.76.005-2.617-.194a7.144 7.144 0 0 0-2.351-.089.54.54 0 0 1-.604-.51c-.011-.21-.026-.465-.039-.74-.057-1.03-.121-2.346-.121-2.794 0-.77 1.736-1.13 1.736-1.13.787-.24 2.315.938 2.315.938s1.516 2.204 1.681 2.535c.064.127.078.455.071.807Z" fill="#575988"/><path d="M143.992 90.565c-.01.557-.071 1.177-.071 1.177-.877.07-1.76.005-2.617-.194a7.146 7.146 0 0 0-2.351-.089.542.542 0 0 1-.604-.51c-.011-.21-.026-.465-.039-.74.634-.096 1.57-.188 2.222-.038.757.175 2.496.323 3.46.394Z" fill="#F1FAFF"/><path opacity=".1" d="M106.349 74.01s-.579.992 0 1.447c.579.454 0-1.447 0-1.447ZM137.432 77.854c.165.33.605.827.529 1.405-.076.579-.529-1.405-.529-1.405Z" fill="#000"/><path d="M136.922 17.396s-2.524-.256-5.141-.603l-.108-.015c-3.039-.405-6.157-.93-5.553-1.311.269-.165.496-.585.682-1.114a9.75 9.75 0 0 0 .293-1.034l.038-.165c.114-.52.205-1.065.276-1.557.141-1.004.199-1.804.199-1.804s6.476-2.454 5.677.605a3.338 3.338 0 0 0-.023 1.498c.095.475.25.936.461 1.372 1.032 2.202 3.199 4.128 3.199 4.128Z" fill="#FFAAB0"/><path opacity=".1" d="M133.285 10.396a3.338 3.338 0 0 0-.023 1.498 4.381 4.381 0 0 1-5.853-.3c.141-1.003.199-1.803.199-1.803s6.476-2.453 5.677.605Z" fill="#000"/><path d="M134.882 8.326a4.38 4.38 0 1 1-8.762.01v-.01a4.38 4.38 0 0 1 7.479-3.098 4.38 4.38 0 0 1 1.283 3.098Z" fill="#FFAAB0"/><path opacity=".1" d="M131.838 16.613a.816.816 0 0 1-.057.18l-.108-.015c-3.039-.405-6.157-.93-5.553-1.311.269-.165.496-.585.682-1.114.117-.34.214-.684.293-1.034l.038-.165h.127c.01.07.331 2.187 3.173 2.55l.096.01c1.109.125 1.392.489 1.309.899Z" fill="#000"/><path d="M131.673 16.778c-.139.686-1.309 1.5-1.309 1.5l-3.252-.607s-2.039-1.819-2.039-1.873c0-.055 1.212-2.48 1.212-2.48h.81c.01.07.331 2.187 3.173 2.55l.096.01c1.109.126 1.392.49 1.309.9Z" fill="#F1FAFF"/><path opacity=".1" d="M136.922 17.396s-2.594-.262-5.249-.618c-.139.686-1.309 1.5-1.309 1.5l-3.252-.607s-2.039-1.819-2.039-1.873c0-.055 1.212-2.48 1.212-2.48h.041c.107.366.267.715.476 1.035.511.78 1.488 1.635 3.307 1.527l.152-.011c2.73-.227 3.343-2.117 3.456-2.603 1.038 2.204 3.205 4.13 3.205 4.13ZM138.161 49.243l-.055.2c-.661-.496-5.482-.827-5.482-.827s-1.268-.148-2.48-.342c-.88-.14-1.73-.306-2.042-.456a2.082 2.082 0 0 0-.223-.085c-1.098-.343-4.464-.742-4.464-.742s-1.654.744-2.535.413c-.881-.33-3.389-1.875-3.389-1.875s.054-.082.165-.223l.632-.216 19.372 3.113s.263.526.501 1.04Z" fill="#000"/><path d="M138.472 40.53c.368 2.192.849 5.398.6 5.863-.387.715-.966 2.893-.966 2.893-.661-.496-5.482-.827-5.482-.827s-1.268-.149-2.48-.342c-.88-.14-1.73-.306-2.042-.456a2.061 2.061 0 0 0-.223-.085c-1.098-.343-4.464-.742-4.464-.742s-1.654.744-2.535.413c-.881-.33-3.389-1.874-3.389-1.874a8.111 8.111 0 0 1 1.24-1.35c.853-.772 2.424-7.413 2.384-7.496-.04-.083-.428-2.204-.318-3.444.111-1.24-.33-7.303-.33-7.303s-4.433-1.716-4.51-4.361c-.078-2.645 2.562-4.188 2.562-4.188s3.059-2.397 3.307-2.536c.248-.139 1.901-.496 3.252-1.24 1.351-.744 1.212-.137 1.212-.137s.552 2.921 3.831 2.728c3.278-.194 3.637-2.728 3.637-2.728.352-.882 3.176 1.736 3.176 1.736s.716 1.488 2.976 2.7c1.653.886 2.08 3.167 2.192 4.333.042.431.04.71.04.71l-6.641 4.767 2.61 10.884s.165.888.361 2.082Z" fill="#575988"/><path d="M122.042 46.193s2.178 3.746 4.436 2.7a2.643 2.643 0 0 0 1.207-1.105c.891-1.54 0-3.507-1.726-3.968-.636-.165-1.322-.27-1.878-.165-1.571.277-2.039 2.538-2.039 2.538Z" fill="#FFAAB0"/><path opacity=".1" d="M122.042 46.193s2.178 3.746 4.436 2.7a2.643 2.643 0 0 0 1.207-1.105c.891-1.54 0-3.507-1.726-3.968-.636-.165-1.322-.27-1.878-.165-1.571.277-2.039 2.538-2.039 2.538ZM118.846 18.83s1.718 1.157 1.755 2.976l-1.755-2.976ZM121.546 19.711c0 .11-.496 7.77.386 10.388.881 2.617-.386-10.388-.386-10.388ZM134.882 8.326c.002.85-.244 1.68-.709 2.39v-.164c-.028-.46-.271-.875-.508-1.272a2.52 2.52 0 0 0-.661-.817 1.262 1.262 0 0 1-.223-.165c-.152-.165-.136-.428-.165-.661a1.474 1.474 0 0 0-1.189-1.24.497.497 0 0 0-.371.053c-.112.079-.165.226-.259.317-.149.134-.377.117-.574.08-.433-.087-.884-.244-1.304-.105-.721.24-.992 1.237-1.731 1.422a4.24 4.24 0 0 1-.662.046.914.914 0 0 0-.403.124v-.01a4.38 4.38 0 0 1 7.479-3.098 4.38 4.38 0 0 1 1.284 3.099l-.004.001Z" fill="#000"/><path d="M126.163 5.418c.137-.184.357-.294.481-.488.188-.296.096-.686.188-1.025.113-.415.483-.7.827-.952.496-.357 1.033-.73 1.637-.688.413.03.788.255 1.198.32.64.105 1.282-.183 1.93-.165a2.024 2.024 0 0 1 1.61.94c.256.41.392.944.827 1.157.165.084.35.11.512.195a1.11 1.11 0 0 1 .528.861c.023.35-.002.7-.073 1.044a1.88 1.88 0 0 0-.023.524c.03.216.132.418.154.636.049.496-.331.931-.607 1.356a3.765 3.765 0 0 0-.514 1.247 2.01 2.01 0 0 1-.176.601.515.515 0 0 1-.512.29c-.032-.3.043-.602.023-.903-.028-.46-.271-.875-.508-1.27a2.509 2.509 0 0 0-.661-.818 1.169 1.169 0 0 1-.221-.165c-.154-.166-.138-.427-.166-.662a1.475 1.475 0 0 0-1.189-1.238.495.495 0 0 0-.37.051c-.112.08-.165.227-.259.318-.149.133-.377.119-.574.079-.433-.084-.885-.243-1.305-.104-.721.24-.992 1.236-1.731 1.422-.219.033-.44.049-.661.046a.695.695 0 0 0-.569.296c-.221-.232-.177-.609-.068-.91.128-.352.243-.601.181-.972-.063-.37-.146-.707.091-1.023Z" fill="#794F6A"/><path opacity=".1" d="M110.069 65.537s-1.571.826-.744.991c.827.166.744-.992.744-.992ZM135.944 67.52s.868-1.157 1.818-.454c.951.703-1.818.455-1.818.455ZM137.961 68.264s1.083-.371 1.744 0h-1.744ZM116.558 49.5s2.315 2.231 3.059 2.314c.744.083-3.059-2.315-3.059-2.315ZM116.889 20.152l-.602 1.267-.304 2.976-.22 5.539s-.413 4.712 0 5.373c.413.661 1.129 4.575.992 5.07-.137.497 1.819 5.126 2.178 5.402.358.276 1.625.33 2.341.192l1.309 1.245 3.707-3.42-2.288-1.737s.524-.883-.936-1.847c0 0-.661-1.102-.69-1.681a12.277 12.277 0 0 0-.606-3.472c-.523-1.543-.827-10.112-.827-10.112s-1.243-6.256-4.054-4.794Z" fill="#000"/><path d="m116.558 20.152-.601 1.267-.305 2.976-.22 5.539s-.413 4.712 0 5.373c.414.661 1.13 4.575.992 5.07-.137.497 1.819 5.126 2.178 5.402.359.276 1.625.33 2.341.192l1.309 1.245 3.707-3.42-2.288-1.737s.524-.883-.936-1.847c0 0-.661-1.102-.689-1.681a12.313 12.313 0 0 0-.607-3.472c-.522-1.543-.827-10.112-.827-10.112s-1.243-6.256-4.054-4.794Z" fill="#575988"/><path opacity=".1" d="M122.319 40.874c-.166.082-3.501 3.17-2.261 3.252 1.24.083 2.261-3.252 2.261-3.252Z" fill="#000"/><path d="M126.561 44.594s-4.767.496-4.519 2.425c.248 1.93 3.638 3.788 4.712 3.203 1.075-.586 1.984-1.144 1.984-1.144l-2.177-4.484Z" fill="#FFAAB0"/><path opacity=".1" d="m141.11 21.475.69 1.323s.716 5.648 0 7.825c-.716 2.177-2.452 7.192-2.452 7.192s-2.095 3.666-2.149 3.83c-.055.166-4.025 5.897-4.741 6.2-.715.305-2.066.145-2.149-.19-.083-.333-1.901 1.423-1.901 1.423s-3.505-4.236-2.948-4.678c.557-.441 2.245-.55 2.245-.55s.124.413.261-.442c.138-.855.772-1.294 1.24-1.24.468.055.276-.44.359-.964.083-.524 1.377-1.46 1.377-1.46s.635-1.02.635-1.626c0-.607 1.323-1.13 1.432-1.13.109 0 .083-.248.083-1.129s.661-2.453.661-2.453l.408-4.96.718-5.043s1.961-6.144 6.231-1.928Z" fill="#000"/><path opacity=".1" d="M138.111 38.448s.166.888.366 2.074a31.517 31.517 0 0 0-.614 1.122c-.054.166-4.022 5.898-4.738 6.2-.716.303-2.067.144-2.15-.188-.036-.15-.415.114-.826.453-.513.423-1.077.967-1.077.967s-.555-.671-1.188-1.508c-.959-1.263-2.095-2.901-1.761-3.168.557-.441 2.247-.55 2.247-.55s.124.413.261-.442.772-1.294 1.24-1.24c.468.055.276-.441.359-.964.082-.522 1.377-1.461 1.377-1.461s.633-1.019.633-1.625c0-.607 1.323-1.13 1.434-1.13.11 0 .082-.248.082-1.13 0-.883.662-2.452.662-2.452l.408-4.96.716-5.043s1.957-6.145 6.228-1.93l.319.614c.041.431.04.71.04.71l-6.642 4.767 2.624 10.884Z" fill="#000"/><path d="m141.441 21.475.689 1.323s.716 5.648 0 7.825c-.715 2.177-2.451 7.192-2.451 7.192s-2.095 3.666-2.15 3.83c-.054.166-4.024 5.897-4.74 6.2-.716.305-2.067.145-2.149-.19-.083-.333-1.902 1.423-1.902 1.423s-3.505-4.236-2.947-4.678c.557-.441 2.245-.55 2.245-.55s.124.413.261-.442.772-1.294 1.24-1.24c.468.055.276-.44.359-.964.082-.524 1.377-1.46 1.377-1.46s.635-1.02.635-1.626c0-.607 1.323-1.13 1.432-1.13.109 0 .082-.248.082-1.129s.662-2.453.662-2.453l.408-4.96.718-5.043s1.96-6.144 6.231-1.928Z" fill="#575988"/><path opacity=".1" d="M129.152 43.618s.165.372.909.508c.744.135-.909-.508-.909-.508ZM138.052 21.502c-.027.082-2.48 2.855-1.984 3.577.496.723 1.984-3.577 1.984-3.577ZM135.269 34.232s1.405 1.38 1.129 2.04c-.276.662-1.129-2.04-1.129-2.04ZM135.489 31.615c.083.137 3.115.496 3.28 1.653.166 1.158-3.28-1.653-3.28-1.653Z" fill="#000"/><g opacity=".1" fill="#000"><path opacity=".1" d="M135.797 6.832c0-.063.014-.128.024-.192a4.33 4.33 0 0 0 .08-.957c-.014.21-.05.42-.08.626a1.83 1.83 0 0 0-.024.523ZM126.073 6.508a1.14 1.14 0 0 0 0-.37c-.02-.117-.041-.234-.053-.351-.017.229.001.459.053.683v.038ZM135.944 7.733c-.071.393-.367.745-.594 1.094-.246.38-.42.802-.514 1.245a2.108 2.108 0 0 1-.175.602.52.52 0 0 1-.513.29 2.236 2.236 0 0 0 0 .33.517.517 0 0 0 .513-.29c.088-.19.147-.393.175-.601.094-.443.268-.865.514-1.245.275-.425.661-.853.605-1.358.007-.023-.008-.044-.011-.067ZM134.171 10.062c-.028-.46-.271-.876-.507-1.271-.16-.32-.386-.6-.662-.827a1.257 1.257 0 0 1-.223-.165c-.152-.166-.135-.428-.165-.662a1.482 1.482 0 0 0-1.189-1.238.495.495 0 0 0-.37.051c-.113.08-.166.227-.26.32a.665.665 0 0 1-.574.079c-.433-.086-.884-.245-1.304-.104-.721.238-.992 1.235-1.733 1.42-.219.033-.44.05-.661.048a.69.69 0 0 0-.567.294.552.552 0 0 1-.144-.29.708.708 0 0 0 .144.62.688.688 0 0 1 .567-.294 4.2 4.2 0 0 0 .661-.047c.738-.186 1.012-1.183 1.733-1.42.42-.141.871.018 1.304.103a.673.673 0 0 0 .574-.079c.103-.092.147-.24.26-.319a.495.495 0 0 1 .37-.051 1.475 1.475 0 0 1 1.189 1.238c.028.228.011.485.165.661.068.064.143.12.223.166.276.226.502.507.662.826.23.386.463.79.496 1.234.01-.097.014-.195.011-.293Z"/></g><path d="M79.831 24.276v17.35a.272.272 0 0 0 .278.276c4.778-.149 8.763-4.099 8.763-8.951 0-4.853-3.982-8.804-8.763-8.951a.27.27 0 0 0-.278.276Z" fill="#61BEEC"/><path d="M67.9 47.97V33.61a10.507 10.507 0 0 1 2.094-6.373c1.301-1.71 3.326-3.257 6.388-3.237a.314.314 0 0 1 .316.312v14.781s.496 8.078-8.624 9.034a.166.166 0 0 1-.175-.157Z" fill="#4064AC"/><path opacity=".1" d="M30.304 22.38a5.208 5.208 0 1 0 0-10.416 5.208 5.208 0 0 0 0 10.415ZM19.392 7.996a3.224 3.224 0 1 0 0-6.448 3.224 3.224 0 0 0 0 6.448ZM2.53 13.947a1.984 1.984 0 1 0 0-3.967 1.984 1.984 0 0 0 0 3.967Z" fill="#00BAFC"/><path d="M68.31 111.092a2.86 2.86 0 0 0-.376.71c-.023.061-.047.132-.07.2a.604.604 0 0 0-.13-.045 1.833 1.833 0 0 0-.59-.051c0-.076.01-.165.011-.241.025-.872-.078-2.087-.91-1.573-.796.496-.228 1.323.287 1.854l.132.129c-.47.33-.559 1.112-.637 1.924-.077.812-.767 1.701-1.225 2.206-.046.051-.087.097-.129.14a1.672 1.672 0 0 0-1.33-.342 6.878 6.878 0 0 0-.062-.225c-.368-1.344-1.137-3.659-2.12-4.155l.13-.165c.416-.546.886-1.356.193-1.563-.693-.206-.756.703-.718 1.384 0 .085.014.166.02.242a1.005 1.005 0 0 0-.724.354l-.107-.126c-.562-.661-1.592-1.715-1.905-.919-.29.74.617 1.701 1.255 2.258l.04.035c-.428 1.739 1.441 3.156 2.448 3.776l.13.079c-1.388 1.637-2.246 4.704-2.246 4.704l3.89.694s2.578-2.225 2.247-4.313h.027c2.577-.516 3.162-3.264 2.762-4.896.015 0 .03-.011.045-.019.47-.192.88-.503 1.194-.901.72-1.007-.79-2.138-1.531-1.155Z" fill="#00BAFC"/><path opacity=".1" d="M68.31 111.092a2.86 2.86 0 0 0-.376.71c-.023.061-.047.132-.07.2a.604.604 0 0 0-.13-.045 1.833 1.833 0 0 0-.59-.051c0-.076.01-.165.011-.241.025-.872-.078-2.087-.91-1.573-.796.496-.228 1.323.287 1.854l.132.129c-.47.33-.559 1.112-.637 1.924-.077.812-.767 1.701-1.225 2.206-.046.051-.087.097-.129.14a1.672 1.672 0 0 0-1.33-.342 6.878 6.878 0 0 0-.062-.225c-.368-1.344-1.137-3.659-2.12-4.155l.13-.165c.416-.546.886-1.356.193-1.563-.693-.206-.756.703-.718 1.384 0 .085.014.166.02.242a1.005 1.005 0 0 0-.724.354l-.107-.126c-.562-.661-1.592-1.715-1.905-.919-.29.74.617 1.701 1.255 2.258l.04.035c-.428 1.739 1.441 3.156 2.448 3.776l.13.079c-1.388 1.637-2.246 4.704-2.246 4.704l3.89.694s2.578-2.225 2.247-4.313h.027c2.577-.516 3.162-3.264 2.762-4.896.015 0 .03-.011.045-.019.47-.192.88-.503 1.194-.901.72-1.007-.79-2.138-1.531-1.155Z" fill="#000"/><path d="m60.57 112.213-.455 1.323s-.253-.178-.572-.46c-.638-.557-1.544-1.517-1.255-2.258.313-.795 1.343.255 1.905.919.226.271.377.476.377.476ZM61.529 111.458a6.574 6.574 0 0 1-.443.521 6.962 6.962 0 0 1-.081-.7c-.038-.681.034-1.585.717-1.384.683.202.223 1.014-.193 1.563ZM67.393 111.665c-.013.438-.056.787-.056.787-.2-.153-.39-.32-.567-.498-.514-.534-1.083-1.357-.286-1.853.831-.523.934.696.91 1.564ZM70.08 112.238a2.925 2.925 0 0 1-1.194.901c-.13.058-.263.106-.4.146l-.536-.752c.057-.249.131-.493.222-.731.091-.253.218-.492.377-.71.74-.983 2.252.148 1.53 1.146Z" fill="#00BAFC"/><path opacity=".1" d="M60.193 111.746c.226.262.377.467.377.467l-.455 1.323s-.253-.178-.572-.46c.071-.426.248-.827.513-1.168.044-.053.092-.111.137-.162ZM61.529 111.458a6.574 6.574 0 0 1-.443.521 6.992 6.992 0 0 1-.081-.7c.189.003.372.066.524.179Z" fill="#000"/><path d="m63.766 116.737-1.133.496s-.246-.119-.602-.339c-1.188-.732-3.578-2.573-1.975-4.742 1.602-2.169 2.938 1.721 3.463 3.624.16.571.247.961.247.961Z" fill="#00BAFC"/><path opacity=".1" d="M66.77 111.954a.921.921 0 0 1 .623-.281 9.52 9.52 0 0 1-.056.787c-.2-.156-.39-.325-.567-.506ZM68.886 113.139c-.13.058-.263.106-.4.146l-.536-.752c.057-.249.131-.493.222-.731.346.203.6.704.714 1.337Z" fill="#000"/><path d="m66.079 118.055-.19.033c-3.791.577-1.25-1.47-1.25-1.47s.165-.165.401-.413c.458-.505 1.146-1.389 1.226-2.206.119-1.228.256-2.381 1.706-2.042 1.423.328 1.691 5.378-1.893 6.098Z" fill="#00BAFC"/><path d="M66.01 127.494h-7.244v1.904h7.243v-1.904Z" fill="#D4DFEC"/><path d="M67.079 121.303h-9.464v6.647h9.464v-6.647Z" fill="#D4DFEC"/><path opacity=".1" d="M66.01 127.494h-7.244v1.904h7.243v-1.904Z" fill="#000"/><path opacity=".1" d="M67.079 121.303h-9.464v6.647h9.464v-6.647Z" fill="#000"/><path d="M66.485 127.494h-7.243v1.904h7.243v-1.904Z" fill="#D4DFEC"/><path opacity=".1" d="M63.52 115.778c.165.569.246.959.246.959l-1.133.496s-.246-.119-.602-.339c.443-.56.943-.985 1.488-1.116ZM66.079 118.055l-.19.033c-3.791.577-1.25-1.47-1.25-1.47s.165-.165.401-.413c.708.567 1 1.205 1.039 1.85Z" fill="#000"/><path d="M59.908 121.679s2.123-7.606 5.101-5.258c2.978 2.348-1.21 5.952-1.21 5.952l-3.89-.694Z" fill="#00BAFC"/><path opacity=".1" d="M60.988 113.584a.238.238 0 1 0 0-.477.238.238 0 0 0 0 .477ZM60.968 114.695a.238.238 0 1 0 0-.477.238.238 0 0 0 0 .477ZM67.873 113.802a.238.238 0 1 0 0-.475.238.238 0 0 0 0 .475ZM62.318 119.498a.238.238 0 1 0-.001-.477.238.238 0 0 0 0 .477ZM67.377 115.647a.238.238 0 1 0 0-.475.238.238 0 0 0 0 .475ZM64.916 118.109a.238.238 0 1 0 .001-.475.238.238 0 0 0 0 .475ZM61.801 114.06a.238.238 0 1 0 .001-.475.238.238 0 0 0 0 .475ZM67.218 114.517a.239.239 0 1 0-.001-.477.239.239 0 0 0 0 .477ZM66.404 116.362a.238.238 0 1 0 0-.477.238.238 0 0 0 0 .477ZM63.905 119.319a.238.238 0 1 0 0-.475.238.238 0 0 0 0 .475ZM63.389 118.149a.238.238 0 1 0 0-.477.238.238 0 0 0 0 .477ZM62.159 115.509a.239.239 0 1 0-.001-.477.239.239 0 0 0 0 .477ZM66.485 127.494h-7.243v.696h7.243v-.696Z" fill="#000"/><path d="M67.555 121.303h-9.464v6.647h9.464v-6.647Z" fill="#D4DFEC"/><path opacity=".1" d="M64.222 120.391a.238.238 0 1 0 0-.477.238.238 0 0 0 0 .477ZM62.794 120.688a.238.238 0 1 0 0-.475.238.238 0 0 0 0 .475Z" fill="#000"/></g><defs><linearGradient id="b" x1="39.341" y1="127.93" x2="39.341" y2="39.764" gradientUnits="userSpaceOnUse"><stop stop-color="gray" stop-opacity=".25"/><stop offset=".54" stop-color="gray" stop-opacity=".12"/><stop offset="1" stop-color="gray" stop-opacity=".1"/></linearGradient><linearGradient id="c" x1="39224.3" y1="54940.5" x2="39224.3" y2="6127.73" gradientUnits="userSpaceOnUse"><stop stop-color="gray" stop-opacity=".25"/><stop offset=".54" stop-color="gray" stop-opacity=".12"/><stop offset="1" stop-color="gray" stop-opacity=".1"/></linearGradient><clipPath id="a"><path fill="#fff" transform="translate(.546)" d="M0 0h178.909v130H0z"/></clipPath></defs></svg>