<svg width="59" height="20" fill="none" xmlns="http://www.w3.org/2000/svg"><path d="M0 19.568V.216h6.703A6.888 6.888 0 0 1 9.15.648a6.245 6.245 0 0 1 2.013 1.214 5.692 5.692 0 0 1 1.862 4.298 5.69 5.69 0 0 1-1.862 4.27 6.237 6.237 0 0 1-2.013 1.215 6.889 6.889 0 0 1-2.447.432h-3.65v7.487L0 19.568ZM6.784 9.162c.463.009.923-.078 1.351-.254a2.958 2.958 0 0 0 1-.69c.267-.281.477-.611.621-.971.141-.343.214-.71.216-1.081a2.996 2.996 0 0 0-.837-2.069 3.213 3.213 0 0 0-2.348-.958H3.054v6.026l3.73-.003ZM15.405 6.324v13.244h3V6.324h-3Z" fill="#191919"/><path d="M18.91 2.024a1.978 1.978 0 0 1-.58 1.433 1.909 1.909 0 0 1-1.42.594V0a1.912 1.912 0 0 1 1.42.594 1.98 1.98 0 0 1 .58 1.43Z" fill="#35AF39"/><path d="M16.908 0v4.054a1.937 1.937 0 0 1-1.441-.595 1.974 1.974 0 0 1-.583-1.435 1.976 1.976 0 0 1 .583-1.43A1.943 1.943 0 0 1 16.908 0Z" fill="#00BAFC"/><path d="m25 12.838-4.568-6.514h3.487l2.864 4.19h.08l2.673-4.19h3.621l-4.621 6.514 4.702 6.73h-3.563l-2.865-4.325h-.08l-2.841 4.325H20.35L25 12.838ZM46.837 16.405a7.202 7.202 0 0 1-2.38 2.568c-1.026.686-2.287 1.029-3.782 1.029-.94.01-1.873-.17-2.743-.527A6.497 6.497 0 0 1 35.756 18a6.755 6.755 0 0 1-1.433-2.229 7.537 7.537 0 0 1-.513-2.824 7.592 7.592 0 0 1 .486-2.716c.307-.829.77-1.59 1.364-2.244a6.5 6.5 0 0 1 4.879-2.094c1.025 0 1.94.17 2.743.513a5.818 5.818 0 0 1 2.04 1.433 6.276 6.276 0 0 1 1.284 2.216c.305.913.456 1.871.446 2.834v.243c-.017.08-.026.161-.027.243a.9.9 0 0 0-.027.216H36.81c.038.575.194 1.137.46 1.649.232.444.548.839.931 1.162.363.303.78.532 1.23.675.428.141.875.214 1.325.216.863 0 1.575-.207 2.135-.62a5.148 5.148 0 0 0 1.377-1.54l2.569 1.271Zm-2.785-5.108a3.796 3.796 0 0 0-.257-.905 2.77 2.77 0 0 0-.62-.918 3.592 3.592 0 0 0-1.082-.715c-.44-.199-.977-.298-1.607-.298-.864 0-1.607.257-2.23.77-.623.514-1.042 1.203-1.257 2.066h7.053ZM49.323 6.324h2.834v2h.162c.17-.35.395-.673.666-.955a4.34 4.34 0 0 1 .947-.763c.35-.208.722-.38 1.108-.513.36-.13.74-.197 1.122-.201.373-.007.745.034 1.107.122.293.077.575.19.839.337l-.865 2.73a2.873 2.873 0 0 0-.663-.203 4.94 4.94 0 0 0-.877-.068 2.985 2.985 0 0 0-1.34.3c-.405.2-.767.476-1.066.815a3.736 3.736 0 0 0-.716 1.222c-.173.479-.26.985-.257 1.494v6.927h-2.996l-.005-13.244Z" fill="#191919"/></svg>