<svg width="300" height="172" fill="none" xmlns="http://www.w3.org/2000/svg"><g clip-path="url(#a)"><path opacity=".1" d="M180.346 123.829c5.796-.331 12.986-4.262 18.577-6a876.816 876.816 0 0 1 19.93-5.924 866.59 866.59 0 0 1 70.403-16.888c2.213-.436 4.43-.86 6.65-1.275a47.064 47.064 0 0 0-15.54-18.663c.172-1.636.26-3.28.262-4.925 0-25.998-20.777-47.074-46.416-47.074a45.679 45.679 0 0 0-22.526 5.913C193.539 17.056 169.854 9.831 143.94 9.831c-36.824 0-69.15 14.589-87.467 36.556l86.087 14.544 52.799 8.916c-60.191 1.797-120.569 3.582-180.587-.634a47.575 47.575 0 0 0-6.85 60.052c0 .941.04 1.875.11 2.801 1.53.438 3.006.862 4.33 1.14a950.467 950.467 0 0 0 64.19 11.277c-15.868 9.784-35.192 11.168-53.496 15.312 8.864 7.316 20.9 11.8 34.164 11.8h197.497c21.385 0 38.719-14.887 38.719-33.254a47.258 47.258 0 0 0 6.294-17.279c-39.572 3.821-79.636.504-119.384 2.767Z" fill="#00BAFC"/><path opacity=".1" d="M300 113.24a47.202 47.202 0 0 0-19.93-38.66c.171-1.635.258-3.278.262-4.922 0-25.998-20.787-47.066-46.416-47.066a45.702 45.702 0 0 0-22.529 5.91C193.24 16.56 169.552 9.334 143.638 9.334c-42.152 0-78.435 19.13-94.526 46.563a46.047 46.047 0 0 0-2.701-.081C20.78 55.815-.005 76.89-.005 102.889a47.342 47.342 0 0 0 7.636 25.875c0 23.392 22.078 42.354 49.3 42.354h197.503c21.382 0 38.716-14.89 38.716-33.257A47.333 47.333 0 0 0 300 113.24Z" fill="#00BAFC"/><path d="M245.004 84.399a2.92 2.92 0 0 0-1.28-.561c-.491-.113-.991-.184-1.49-.263l-6.456-.93a7.605 7.605 0 0 0-1.977-.105 2.507 2.507 0 0 0-1.721.891 1.349 1.349 0 0 0-.299.84c.036.307.136.603.294.87.063.124.116.253.16.385.062.297.139.59.231.879.028.062.066.12.11.173a.332.332 0 0 1 0 .045c-.071.361.157.74.055 1.088-.089.299-.38.48-.564.729a1.102 1.102 0 0 0-.026 1.209c.197.304.553.511.656.86.133.459-.228.902-.551 1.256a19.56 19.56 0 0 0-1.642 2.07c-.14.178-.231.39-.262.615-.029.457.409.858.333 1.311-.06.357-.409.575-.71.787-1.115.734-2.009 1.915-2.098 3.25a11.385 11.385 0 0 0-2.539-5.77c-.375-.45-.787-.905-.941-1.476-.058-.228-.068-.472-.147-.693-.262-.694-1.096-.993-1.461-1.633-.262-.451-.262-1.03-.587-1.427-.325-.396-.837-.485-1.117-.868-.14-.26-.26-.53-.357-.808a1.768 1.768 0 0 0-.606-.668.413.413 0 0 0 .139-.31c0-.306-.304-.508-.569-.66a16.153 16.153 0 0 1-.999-.622c.355-.165.662-.417.894-.732.291-.47.412-1.025.341-1.573a1.987 1.987 0 0 0-.469-1.204c-.165-.175-.373-.301-.546-.467-.448-.438-.6-1.085-.786-1.683-.247-.787-.632-1.613-1.351-2.03-.346-.202-.75-.296-1.088-.509-.338-.212-.622-.613-.504-.999.079-.262.323-.443.488-.666a1.33 1.33 0 0 0-.333-1.835c-.194-.124-.433-.231-.472-.457a.835.835 0 0 1-.608-.645 2.484 2.484 0 0 1 0-.934l.202-1.458a.946.946 0 0 0 .729 0c.226.369.49.713.786 1.028a10.258 10.258 0 0 1 1.836 3.187c.149.42.302.889.69 1.112.133.076.285.115.417.196.161.113.3.255.409.42.314.417.629.831.941 1.248l.016.063a.336.336 0 0 0 .042.105.348.348 0 0 0 .225.115c.965.223 2.048.428 2.885-.1.755-.471 1.086-1.405 1.725-2.03.454-.442 1.097-.786 1.225-1.41a4.63 4.63 0 0 1-.451-.165c.131-.131.262-.283.441-.456.259-.254.492-.532.697-.832.222-.369.398-.763.525-1.174.505-1.441 1.012-2.882 1.521-4.325.241-.682.482-1.369.786-2.032.315-.719.687-1.408 1.031-2.114a28.003 28.003 0 0 0 2.04-5.743c.083-.27.111-.555.081-.836-.073-.454-.417-.81-.744-1.133a5.495 5.495 0 0 0-1.117-.926 1.842 1.842 0 0 0-1.401-.225c-.671.196-1.093.883-1.248 1.573-.155.69-.097 1.4-.163 2.098-.094 1.01-.44 1.985-.524 2.997-.045.585 0 1.178-.071 1.763a6.411 6.411 0 0 1-.787 2.17 14.047 14.047 0 0 1-3.39 4.18c-.16.135-.326.263-.483.407 0-.112.018-.228.034-.34-.114.03-.225.069-.333.117.013-.132 0-.266-.039-.393-.21-.627-1.144-.787-1.311-1.424a2.938 2.938 0 0 1-.045-.477c-.055-.559-.435-1.03-.566-1.574-.121-.5-.029-1.048-.263-1.513a4.207 4.207 0 0 0-.697-.786 3.098 3.098 0 0 1-.664-1.251c-.034-.129-.065-.263-.102-.391.04-.291.008-.587-.094-.863-.239-.592-.855-.973-1.078-1.573-.173-.467-.097-1.05-.425-1.411a1.533 1.533 0 0 0-.621-.375 13.838 13.838 0 0 0-3.743-.884c-.718-.065-1.51-.102-2.024-.608-.601-.588-.629-1.644-1.332-2.098-.619-.401-1.495-.105-1.975.459a2.43 2.43 0 0 0-.199.262 2.802 2.802 0 0 1-.055-1.075c0-.09.018-.181.026-.262a5.246 5.246 0 0 0 2.843-2.245v.016l.031.081c.076.191.197.375.375.396a.523.523 0 0 0 .325-.118 2.695 2.695 0 0 0 .624-.606 3.104 3.104 0 0 0 .572-1.403c.047-.304.053-.616.105-.92.049-.236.113-.468.191-.695a5.12 5.12 0 0 0 .076-.228l.084-.263c.165-.539.253-1.099.263-1.662v-.283a2.78 2.78 0 0 0-.881-1.954c-.452-.37-1.049-.524-1.38-1.025-.215-.336-.262-.769-.388-1.162a2.617 2.617 0 0 0-2.061-1.854 2.293 2.293 0 0 0-1.631.448l-.037.03a2.61 2.61 0 0 0-.65.723 2.157 2.157 0 0 1-.923-.525c-.263-.243-.465-.55-.729-.786a1.88 1.88 0 0 0-1.868-.394 2.233 2.233 0 0 0-1.334 1.53c-.145.54-.118 1.16-.42 1.612-.233.351-.616.524-.884.844a1.593 1.593 0 0 0-.33.7c-.032.144-.047.291-.045.439 0 .065 0 .13.016.194v.031a1.835 1.835 0 0 0 .435.931 1.73 1.73 0 0 0 .937.553l.312.071.11.026a5.22 5.22 0 0 0-.147 4.618c0 .074-.018.147-.026.22a18.155 18.155 0 0 0 .136 3.092c.037.407.058.855-.191 1.178a2.23 2.23 0 0 1-.381.338c.142-.184.286-.364.433-.545-.37-.373-.954-.42-1.479-.383-1.015.076-2 .377-2.885.88-.587.34-1.19.788-1.861.709-.396-.045-.787-.262-1.173-.157a2.377 2.377 0 0 0-.6.356.815.815 0 0 1-.493.152c-.412-.506-1.049-.85-1.542-1.261-.561-.5-1.075-1.05-1.534-1.644a279.347 279.347 0 0 1-2.531-3.09c-.703-.87-1.424-1.812-1.547-2.926a2.647 2.647 0 0 1-.018-.333c.017-.53.083-1.056.199-1.574a.789.789 0 0 0 0-.38c-.079-.262-.38-.359-.64-.417.034-.202.058-.409.071-.605.147-2.256-.013-4.548.464-6.756.181-.85.477-1.71 1.088-2.326.957-.967 2.56-1.2 3.294-2.347.614-.954.37-2.305-.401-3.147-.771-.841-1.959-1.185-3.089-1.143a1.595 1.595 0 0 0-.9.241 1.91 1.91 0 0 0-.545.829l-1.125 2.735a16.552 16.552 0 0 0-.824 2.198c-.314 1.148-.385 2.36-.634 3.519 0 .892-.575 2.003-.889 2.824-.352.923-.732 1.836-1.049 2.777-.079.236-.354.937-.525 1.574a.969.969 0 0 0-.178.134c-.137.175-.261.36-.372.553-.239.314-.627.482-.889.786-.263.305-.318.863.047 1.015.074.025.15.042.228.05a.892.892 0 0 1 .142.024c.393.11.548.606.49 1.015-.058.409-.262.786-.296 1.196-.071.723.354 1.397.763 2.006.423.66.891 1.289 1.4 1.885.37.414.787.787 1.159 1.185 1.419 1.458 2.546 3.163 3.821 4.747.458.598.98 1.145 1.555 1.631.376.294.769.564 1.177.81l2.193 1.39a2.4 2.4 0 0 0 .828.39c.098.014.197.014.294 0 .013.067.024.13.039.195.171.687.546 1.311.588 2.011.042.7-.021 1.416.029 2.124.047.653.191 1.312.228 1.954.073 1.238-.231 2.46-.525 3.671-.443 1.773-.71 3.583-1.573 5.19-.241.443-.525.894-.525 1.4 0 .06 0 .124.016.184l-.393.223a6.482 6.482 0 0 0-.336.2c-.498.324-1.03.684-1.235 1.245-.165.454-.089.973-.288 1.413-.01.02-.02.04-.032.058-.21.41-.627.713-.721 1.162-.071.343.066.708 0 1.049v.013c-.06.171-.107.346-.142.524a.671.671 0 0 0 .016.173c.05.2.16.378.315.512.094.09.197.172.307.244.111.073.227.141.346.204l.068.037c.1.052.199.102.302.15l.068.028c.118.053.238.1.359.142l.084.026c.094.032.191.06.288.084l.066.02.06.014.262.055.097.019c.116.019.234.034.355.047h.104c.09 0 .176.013.263.015h.48c.123 0 .246-.018.369-.034h.04c.11-.015.22-.034.33-.057l.084-.019c.102-.023.204-.047.307-.078l.055-.016c.123-.037.246-.076.367-.123a9.724 9.724 0 0 0 1.212-.6c.262-.145.524-.292.786-.426.195-.098.394-.185.598-.262a3.376 3.376 0 0 1 1.574-.262c.265.036.528.09.786.16v.086c.214 1.259.424 2.518.632 3.776a7.739 7.739 0 0 1 1.086-.653 2.301 2.301 0 0 0-.139 1.06c.024.25.076.524-.073.721-.092.12-.263.189-.313.325a1.12 1.12 0 0 0-.026.428.68.68 0 0 1-.624.634.996.996 0 0 1-.396 1.17c-.11.053-.212.12-.304.2a.908.908 0 0 0-.176.395 7.002 7.002 0 0 1-2.053 3.375 6.613 6.613 0 0 0-1.015.992c-.186.283-.34.586-.459.904-.699 1.71-1.409 3.421-2.129 5.132-.399.957-.787 1.93-.913 2.961-.315 2.827-2.832 5.224-2.36 8.03.095.701.378 1.363.818 1.917.525.632 1.311.993 2.098 1.287 2.022.787 4.154 1.217 6.278 1.65l3.336.684a14.48 14.48 0 0 0 1.988.315c.805.055 1.631-.021 2.415.183.485.126.949.36 1.45.386.43.023.96-.068 1.214.283s.058.816.299 1.128c.388.495 1.335 0 1.757.466.115.18.204.375.262.58.064.127.154.239.262.33.026.148.037.299.032.449a7.75 7.75 0 0 1-.378 1.788c-.314 1.065-.628 2.13-.941 3.197-.12.377-.207.763-.262 1.154-.02.19-.02.381 0 .571.055.58.388 1.178.941 1.367.429.113.886.057 1.275-.158a5.582 5.582 0 0 0 1.049-.708 7.185 7.185 0 0 0 1.513-1.557c1.311-1.962.886-4.616 1.806-6.784.611-1.448 1.802-2.623 2.198-4.149.093-.29.104-.601.031-.897-.165-.524-.723-.823-1.245-1.012h-.024a10.603 10.603 0 0 0-1.311-.375c-.11-.024-.223-.042-.336-.06a2.056 2.056 0 0 1-.579-.756 1.778 1.778 0 0 0-.123-.453.465.465 0 0 0-.378-.21c-.262-.026-.614.068-.9.047-.584-.042-.972-.616-1.497-.881-.524-.265-1.093-.199-1.652-.16-.2.027-.403.015-.598-.037a2.23 2.23 0 0 1-.629-.432 2.637 2.637 0 0 0-2.311-.465 2.503 2.503 0 0 1-.786.179c-.512-.029-.874-.485-1.251-.832-1.033-.946-2.505-1.195-3.758-1.817a.855.855 0 0 1-.451-.388c-.144-.357.181-.713.475-.957l2.155-1.791c2.36-1.962 5.31-3.438 6.407-6.315.114-.386.291-.75.524-1.078.085-.1.183-.188.291-.262a2.204 2.204 0 0 1 1.613-.315c.68.153 1.325.434 1.899.829.938.568 1.852 1.18 2.74 1.836a24.04 24.04 0 0 1 2.504 2.056c1.377 1.311 2.523 2.866 3.805 4.279 1.283 1.414 2.749 2.733 4.529 3.409 1.781.677 3.934.648 5.463-.487 1.765-1.312 2.331-3.656 2.777-5.806.983-.95 1.279-2.395 1.759-3.672.302-.81.687-1.573 1.013-2.381.388-.949.692-1.93.996-2.908.345-.982.579-2 .698-3.034.126-1.634-.312-3.372.147-4.906.605-.134 1.156-.475 1.751-.675.887-.29 1.836-.243 2.775-.238h.06a1.43 1.43 0 0 0 .923-.218c.315-.262.365-.71.38-1.117.037-1.004-.026-2.132-.778-2.782Zm-37.996-44.733c-.217.054-.441.07-.664.048l.664-.048Z" fill="url(#b)"/><path d="M208.041 56.255c-.317.27-.69.468-1.091.58l-1.859.666c-1.01.362-2.064.726-3.129.595-.595-.073-3.146-.448-3.532-.912-.587-.719 1.471-1.776 2.174-2.381.159-.115.307-.245.441-.389.262-.32.228-.768.191-1.172a18.093 18.093 0 0 1-.136-3.086c.02-.246.055-.49.105-.732.262-1.206 1.384-.766 2.27-.446 1.067.347 2.099.794 3.082 1.335.299.154.559.375.76.645.388.587.234 1.358.171 2.098-.055.574-.053 1.125.307 1.542.18.16.346.335.495.524a.981.981 0 0 1-.249 1.133ZM182.358 37.356c.262-1.162.319-2.36.634-3.512.222-.748.497-1.48.824-2.19l1.156-2.698a1.91 1.91 0 0 1 .545-.826c.27-.167.583-.25.9-.24 1.13-.043 2.318.308 3.089 1.14.771.831 1.015 2.176.401 3.128-.734 1.146-2.336 1.377-3.293 2.342-.611.616-.908 1.474-1.089 2.32-.477 2.204-.317 4.488-.464 6.738-.047.7-.183 1.5-.787 1.862a2.29 2.29 0 0 1-1.174.228l-1.721.029c-.288 0-1.334.18-1.526-.037-.336-.38.43-2.274.569-2.696.31-.936.69-1.849 1.049-2.77.312-.82.887-1.93.887-2.818Z" fill="#BE6F72"/><path d="M217.878 119.741c-.396 1.515-1.587 2.695-2.198 4.14-.92 2.164-.506 4.81-1.807 6.766a7.153 7.153 0 0 1-1.513 1.56 5.62 5.62 0 0 1-1.049.706 1.724 1.724 0 0 1-1.274.157c-.554-.189-.887-.787-.942-1.364a2.847 2.847 0 0 1 0-.569c.055-.39.143-.775.263-1.151.314-1.061.628-2.124.941-3.189a7.708 7.708 0 0 0 .378-1.783c.034-.661-.386-1.521-.208-2.137.082-.278.386-.525.525-.758a4.4 4.4 0 0 0 .451-1.073c.215-.731.362-1.513.813-2.129a4.97 4.97 0 0 1 1.023-.957c.283-.249.615-.435.975-.548a2.369 2.369 0 0 1 1.049.05c.445.095.883.219 1.311.372h.024c.524.189 1.08.48 1.246 1.01.08.294.077.604-.008.897ZM245.78 87.501c-.016.406-.066.86-.381 1.114a1.431 1.431 0 0 1-.923.218h-.07c-.937 0-1.889-.052-2.775.239-.674.223-1.293.632-1.995.713-.968.11-1.878-.42-2.736-.881a27.148 27.148 0 0 0-2.483-1.18c-.556-.228-1.691-.375-1.959-.984a8.83 8.83 0 0 1-.231-.875 2.842 2.842 0 0 0-.16-.386 2.214 2.214 0 0 1-.293-.868c.001-.306.106-.602.299-.839a2.51 2.51 0 0 1 1.717-.884 7.612 7.612 0 0 1 1.978.105l6.456.928c.498.071.999.142 1.489.263.466.08.905.273 1.28.56.763.64.826 1.766.787 2.757Z" fill="#3F3D56"/><path d="M240.105 89.18c-.787 1.66-.22 3.623-.362 5.46a13.907 13.907 0 0 1-.698 3.025c-.304.976-.608 1.954-.996 2.901-.325.786-.711 1.573-1.012 2.376-.48 1.279-.787 2.719-1.76 3.671-.446 2.145-1.012 4.489-2.777 5.79-1.534 1.133-3.671 1.172-5.462.488-1.791-.685-3.247-1.996-4.529-3.409-1.283-1.414-2.429-2.953-3.805-4.269a23.86 23.86 0 0 0-2.51-2.054 39.304 39.304 0 0 0-2.74-1.82 5.506 5.506 0 0 0-1.899-.826 2.204 2.204 0 0 0-1.613.315 1.479 1.479 0 0 0-.291.262c-.233.327-.41.69-.524 1.075-1.102 2.869-4.057 4.343-6.417 6.299l-2.156 1.786c-.294.244-.619.601-.474.955a.859.859 0 0 0 .451.388c1.253.619 2.724.868 3.757 1.812.378.346.74.802 1.251.828.27-.015.536-.075.787-.175a2.643 2.643 0 0 1 2.31.461c.184.179.397.326.63.433.195.052.398.064.598.037.558-.04 1.151-.089 1.652.16.501.249.912.836 1.497.878.286.021.627-.073.9-.047a.474.474 0 0 1 .377.21c.061.144.103.296.123.451.108.37.47.595.706.899.362.467.414 1.102.378 1.692a7.218 7.218 0 0 1-2.298 4.83 2.842 2.842 0 0 1-1.413.787 1.314 1.314 0 0 1-1.401-.622 2.132 2.132 0 0 0-.262-.577c-.422-.464-1.369.029-1.757-.466-.241-.31-.068-.805-.299-1.125-.23-.32-.786-.263-1.214-.281-.501-.026-.965-.262-1.45-.385-.787-.205-1.61-.129-2.415-.184a14.53 14.53 0 0 1-1.988-.315l-3.336-.681c-2.124-.433-4.256-.871-6.278-1.645-.773-.293-1.552-.655-2.098-1.285a3.94 3.94 0 0 1-.818-1.914c-.474-2.798 2.043-5.19 2.36-8.009.113-1.028.525-1.998.913-2.953.712-1.706 1.421-3.413 2.129-5.121.115-.318.264-.622.446-.907a6.586 6.586 0 0 1 1.015-.989 6.975 6.975 0 0 0 2.053-3.367.908.908 0 0 1 .176-.396c.093-.078.195-.144.304-.197a.994.994 0 0 0 .396-1.167.68.68 0 0 0 .624-.634 1.087 1.087 0 0 1 .027-.425c.063-.137.22-.205.312-.325.149-.197.097-.472.073-.719a2.408 2.408 0 0 1 .703-1.935c.627-.616 1.518-.457 2.384-.603a13.645 13.645 0 0 0 2.517-.805 24.732 24.732 0 0 1 7.109-1.645c2.45-.192 4.911.2 7.18 1.144.331.133.642.31.926.524.202.156.368.353.485.58.097.277.216.546.357.805.281.383.81.506 1.117.868.307.362.333.973.587 1.421.365.64 1.209.936 1.461 1.631.079.22.089.462.147.69.142.572.566 1.023.941 1.474a11.334 11.334 0 0 1 2.539 5.769c.084-1.33.978-2.507 2.098-3.241.301-.197.65-.415.71-.771.077-.451-.361-.853-.333-1.312.032-.224.123-.435.263-.613a19.353 19.353 0 0 1 1.641-2.064c.323-.354.685-.787.551-1.254-.102-.348-.459-.553-.656-.857a1.094 1.094 0 0 1 .027-1.206c.183-.25.474-.43.563-.727.103-.349-.125-.726-.055-1.085.096-.288.287-.535.541-.7a4.47 4.47 0 0 1 1.172-.772c.692-.262 1.463-.165 2.197-.062 1.228.17 2.604.432 3.297 1.46.443.643.668 1.618.338 2.305Z" fill="#65617D"/><path opacity=".1" d="M245.78 87.501c-.016.406-.066.86-.381 1.114a1.43 1.43 0 0 1-.923.218h-.07c.107-.545.771-.857.886-1.41a1.254 1.254 0 0 0-.288-.953c-.562-.757-1.464-1.177-2.361-1.484a15.634 15.634 0 0 0-7.883-.59 7.938 7.938 0 0 0-2.071.637 6.891 6.891 0 0 0-.63.446 2.214 2.214 0 0 1-.293-.868c.001-.306.106-.602.299-.839a2.522 2.522 0 0 1 1.717-.884 7.612 7.612 0 0 1 1.978.105l6.456.928c.498.071.999.142 1.489.263.466.08.905.273 1.28.56.771.64.834 1.766.795 2.757ZM217.878 119.74c-.396 1.516-1.587 2.696-2.198 4.141-.92 2.164-.506 4.81-1.807 6.766a7.153 7.153 0 0 1-1.513 1.56 5.62 5.62 0 0 1-1.049.706c-.389.214-.845.27-1.274.157-.554-.189-.887-.787-.942-1.364a2.847 2.847 0 0 1 0-.569l.016.042c.228.551.601 1.128 1.188 1.225a1.597 1.597 0 0 0 1.211-.428c.866-.694 1.369-1.73 1.849-2.729.376-.721.673-1.48.887-2.264.104-.445.154-.902.262-1.347.498-2.167 2.195-3.934 2.57-6.129.03-.151.037-.306.021-.459-.05-.2-.126-.392-.226-.572a2.83 2.83 0 0 1-.199-.634c.524.189 1.08.48 1.246 1.009.067.295.053.603-.042.889ZM213.918 115.98a3.794 3.794 0 0 1-1.183 1.615 5.768 5.768 0 0 1-2.546 1.102c-.431.11-.883.104-1.311-.016-.583-.202-1.002-.747-1.597-.905-.425-.115-.882-.013-1.312-.076-.773-.107-1.374-.697-1.998-1.169-1.912-1.437-4.421-1.901-6.333-3.339a.584.584 0 0 1-.204-.212.624.624 0 0 1-.04-.296 6.016 6.016 0 0 1 .575-2.52 8.771 8.771 0 0 1 1.08-1.54c1.712-2.098 3.433-4.211 5.483-5.981.86-.743 1.799-1.435 2.885-1.77.603-.187 1.794-.362 2.528-.048a1.453 1.453 0 0 0-.291.263c-.234.326-.411.69-.525 1.075-1.104 2.871-4.059 4.345-6.419 6.301l-2.156 1.786c-.294.244-.619.601-.474.955a.859.859 0 0 0 .451.388c1.253.619 2.724.868 3.757 1.812.378.346.74.802 1.251.829.27-.016.536-.076.787-.176a2.643 2.643 0 0 1 2.31.461c.184.179.397.326.63.433.195.052.398.064.598.037.558-.04 1.151-.089 1.652.16.501.249.912.836 1.497.878.291.021.632-.078.905-.047Z" fill="#000"/><path d="M189.8 80.39c-.498.32-1.028.681-1.233 1.237-.168.454-.089.973-.291 1.413-.202.44-.655.748-.755 1.22-.071.343.068.705 0 1.049-.059.178-.108.36-.144.545-.026.39.309.708.637.926a5.326 5.326 0 0 0 4.765.524c.7-.262 1.332-.69 2.003-1.025a3.965 3.965 0 0 1 2.159-.525c.432.048.847.205 1.279.263a1.345 1.345 0 0 0 1.199-.357c.133-.184.223-.397.262-.621.364-1.44.199-2.966-.147-4.414-.346-1.447-.871-2.84-1.24-4.28-.263-1.067-.464-2.16-.902-3.17-.438-1.01-1.175-1.948-2.206-2.334a.41.41 0 0 0-.262-.034.45.45 0 0 0-.171.126 8.059 8.059 0 0 0-1.798 3.026c-.412 1.256-.525 2.588-.903 3.85-.162.524-.372 1.227-.786 1.628-.415.401-.997.65-1.466.952Z" fill="#3F3D56"/><path opacity=".1" d="M199.689 85.03a1.52 1.52 0 0 1-.276.622 1.326 1.326 0 0 1-1.198.354c-.43-.052-.844-.212-1.277-.262a3.953 3.953 0 0 0-2.158.525c-.672.335-1.311.752-2.006 1.022a5.295 5.295 0 0 1-3.181.181 5.137 5.137 0 0 1-1.574-.692c-.33-.215-.663-.525-.637-.926a4.62 4.62 0 0 1 .144-.543c.068-.343-.068-.705 0-1.049.1-.472.556-.786.755-1.222.2-.435.124-.957.289-1.41.204-.56.737-.918 1.235-1.24.498-.323 1.091-.57 1.49-.96.051-.062.098-.126.139-.195.287-.443.498-.931.624-1.445.385-1.264.49-2.593.899-3.852a8.073 8.073 0 0 1 1.802-3.024.389.389 0 0 1 .168-.125.42.42 0 0 1 .262.031c1.028.388 1.765 1.327 2.205 2.337.441 1.01.627 2.097.902 3.167.367 1.44.895 2.838 1.241 4.283.346 1.445.516 2.981.152 4.424ZM207.488 53.048a5.245 5.245 0 0 1-6.388-2.884c.02-.246.055-.49.105-.732.262-1.206 1.384-.766 2.271-.446 1.066.347 2.098.794 3.081 1.335.299.154.559.375.76.645.388.58.234 1.35.171 2.082Z" fill="#000"/><path d="M205.904 53.032a5.245 5.245 0 1 0 0-10.49 5.245 5.245 0 0 0 0 10.49Z" fill="#BE6F72"/><path opacity=".1" d="M220.135 86.982c0 .435-.59.574-1.027.55-1.574-.091-3.113-.524-4.671-.393-1.969.178-3.779 1.267-5.753 1.366-.761.04-1.535-.073-2.285.066-.97.18-1.835.77-2.824.855-.857.073-1.704-.25-2.562-.215a4.116 4.116 0 0 0-1.712.488 2.408 2.408 0 0 1 .703-1.466c.626-.617 1.518-.457 2.383-.604a13.655 13.655 0 0 0 2.518-.805 24.731 24.731 0 0 1 7.109-1.644 15.52 15.52 0 0 1 7.177 1.136c.331.133.642.31.926.524a.4.4 0 0 1 .018.142Z" fill="#000"/><path d="m203.478 57.365-2.124-.787-.897-.33a4.335 4.335 0 0 0-1.143-.305c-1.028-.078-1.996.606-2.544 1.48-.548.872-.755 1.914-.931 2.928a79.618 79.618 0 0 0-.613 4.18 27.33 27.33 0 0 0-.276 3.813c.06 3.247.748 6.449 1.503 9.609.37 1.4.649 2.824.836 4.261.063.593.092 1.188.155 1.783.068.67.178 1.33.289 1.993l.632 3.769c.786-.559 1.68-1.05 2.648-1.078.858-.031 1.707.288 2.562.215.984-.081 1.854-.671 2.824-.852.75-.14 1.524-.03 2.287-.066 1.972-.1 3.784-1.19 5.751-1.366 1.56-.142 3.11.299 4.673.39.435.027 1.025-.112 1.025-.55 0-.304-.304-.506-.569-.658a28.101 28.101 0 0 1-3.553-2.536c-1.033-.818-2.082-1.657-2.793-2.764-1.712-2.662-1.125-6.262-2.585-9.07-1.188-2.282 0-5.272 0-7.844 0-1.283 0-2.58-.302-3.826a16.064 16.064 0 0 0-.703-2.046l-1.02-2.583a.426.426 0 0 0-.12-.197.404.404 0 0 0-.234-.07 2.46 2.46 0 0 0-1.694.542c-.48.391-.787.952-1.259 1.359-.516.448-1.182.842-1.825.606Z" fill="#E3E8F4"/><path d="M206.906 55.875c.167-.718.348-1.466.828-2.027.48-.561 1.356-.858 1.975-.456.703.456.732 1.51 1.332 2.098.525.503 1.311.542 2.025.608 1.282.117 2.542.413 3.742.881.234.073.447.2.621.373.328.372.262.944.425 1.408.223.598.839.978 1.078 1.573.262.661 0 1.4-.22 2.08-.396 1.22-.646 2.486-1.031 3.71-.386 1.225-.934 2.431-1.836 3.354-.398.41-.991.787-1.515.543l-.202 1.456a2.47 2.47 0 0 0 0 .93.827.827 0 0 0 .608.646c.039.225.278.333.472.456a1.308 1.308 0 0 1 .333 1.836c-.165.223-.409.398-.488.663-.118.383.163.787.504.997.341.21.742.306 1.088.508.719.415 1.104 1.23 1.351 2.022.183.598.335 1.246.786 1.681.173.165.381.291.546.464.286.338.451.762.469 1.204a2.384 2.384 0 0 1-.341 1.573c-.524.75-1.502.973-2.36 1.312-1.392.571-2.538 1.594-3.766 2.465a4.008 4.008 0 0 1-1.717.807c-.85.113-1.686-.262-2.541-.296a6.31 6.31 0 0 0-1.516.2l-1.573.34c.083-1.22-.588-2.441-.963-3.603-.708-2.187-.839-4.526-.671-6.818.168-2.292.634-4.553 1.096-6.803.322-1.573.291-3.217.787-4.746.464-1.471 1.127-2.885 1.371-4.416.399-2.478-1.259-4.579-.697-7.023Z" fill="#3F3D56"/><path d="M218.835 60.724a2.9 2.9 0 0 1 .301.852c.122.462.349.89.664 1.248.264.233.498.497.697.787.242.456.15 1.012.263 1.51.131.544.511 1.016.566 1.574.002.16.017.32.045.477.17.635 1.104.787 1.311 1.422.139.411-.1.86-.055 1.293.032.133.04.272.023.409a.827.827 0 0 1-.299.382 6.031 6.031 0 0 0-1.725 3.071 17.492 17.492 0 0 0-.396 3.548l-1.025-1.355a1.562 1.562 0 0 0-.41-.42c-.131-.079-.283-.118-.417-.197-.388-.22-.54-.687-.689-1.106a10.215 10.215 0 0 0-1.836-3.179c-.417-.49-.902-.983-.994-1.62a3.029 3.029 0 0 1 .047-.876c.263-1.718.543-3.477 1.38-5.001.391-.713.897-1.358 1.272-2.082.251-.48.605-1.728 1.277-.737ZM192.965 62.373a1.19 1.19 0 0 1-.163.63.823.823 0 0 1-.828.262 2.398 2.398 0 0 1-.829-.388l-2.192-1.387a12.234 12.234 0 0 1-1.178-.808 10.534 10.534 0 0 1-1.555-1.629c-1.274-1.573-2.402-3.28-3.821-4.72-.385-.393-.786-.77-1.159-1.182a17.316 17.316 0 0 1-1.4-1.883c-.409-.606-.834-1.278-.763-2.001.042-.41.239-.787.296-1.194.058-.406-.097-.902-.49-1.012a.892.892 0 0 0-.142-.023 1.074 1.074 0 0 1-.228-.05c-.364-.152-.309-.716-.047-1.012.262-.297.65-.462.889-.787.111-.193.235-.378.372-.553.176-.151.386-.256.611-.307a9.457 9.457 0 0 1 4.655-.176c.262.058.561.163.64.417a.779.779 0 0 1 0 .378 8.337 8.337 0 0 0-.199 1.573c-.001.11.005.22.018.33.123 1.112.844 2.054 1.547 2.922a277.615 277.615 0 0 0 2.531 3.081c.459.593.973 1.142 1.534 1.64.524.434 1.203.786 1.613 1.344.333.451.225 1.068.262 1.61a35.66 35.66 0 0 1 .026 4.925Z" fill="#3F3D56"/><path d="M226.269 73.314c.259-.252.493-.529.698-.826.22-.369.396-.762.524-1.172l1.521-4.314c.242-.682.483-1.366.787-2.03.315-.716.687-1.405 1.031-2.098a28.025 28.025 0 0 0 2.037-5.703c.083-.271.111-.556.081-.837-.073-.454-.417-.808-.744-1.13a5.483 5.483 0 0 0-1.117-.923 1.842 1.842 0 0 0-1.401-.226c-.671.197-1.093.884-1.248 1.574-.155.69-.097 1.395-.163 2.098-.094 1.007-.44 1.98-.524 2.989-.045.585 0 1.175-.071 1.757a6.418 6.418 0 0 1-.787 2.169 14.083 14.083 0 0 1-3.39 4.17c-.38.28-.722.609-1.018.978a3.205 3.205 0 0 0-.49 1.221 2.815 2.815 0 0 0 .212 1.986c.428.729 1.248 1.049 2.033 1.211 1.059.22 1.303-.141 2.029-.894Z" fill="#BE6F72"/><path d="M205.935 40.188a2.45 2.45 0 0 1 2.376-1.288 2.622 2.622 0 0 1 2.061 1.852c.124.39.173.823.388 1.159.326.506.929.653 1.38 1.02a2.761 2.761 0 0 1 .881 1.951c.025.75-.093 1.5-.349 2.205-.108.302-.196.61-.262.923-.052.305-.058.614-.105.918a2.982 2.982 0 0 1-1.204 1.986.523.523 0 0 1-.325.117c-.204-.023-.33-.262-.406-.477-.417-1.203-.318-2.675-1.086-3.634a3.968 3.968 0 0 0-1.243-.926 1.598 1.598 0 0 0-.635-.239 1.668 1.668 0 0 0-.917.336 5.72 5.72 0 0 1-1.815.802 2.23 2.23 0 0 1-1.875-.404c-.362-.298-.627-.747-1.028-.98-.401-.234-.821-.22-1.217-.38a1.797 1.797 0 0 1-1.036-1.196 1.81 1.81 0 0 1 .307-1.553c.262-.314.651-.493.884-.842.301-.45.275-1.07.419-1.61a2.215 2.215 0 0 1 1.335-1.523 1.876 1.876 0 0 1 1.867.39c.263.236.472.54.729.787a2.101 2.101 0 0 0 1.941.525" fill="#3F3D56"/><path opacity=".1" d="M210.246 78.787a1.012 1.012 0 0 0-.277 1.112c.057.123 2.763-.399 3.049-.438.714-.102 1.964-.053 2.444-.706.855-1.156-1.793-.9-2.278-.857-.924.079-2.235.204-2.938.889Z" fill="#000"/><path d="M185.628 44.958a8.42 8.42 0 0 0-.2 1.574c-.786.16-1.605-.103-2.36-.365l-2.169-.74a.613.613 0 0 0-.828.155c-.349.362-.829 1.05-1.311 1.456a1.07 1.07 0 0 1-.229-.05c-.364-.152-.309-.716-.047-1.012.263-.297.651-.462.889-.787a4.75 4.75 0 0 1 .373-.553c.175-.151.385-.256.611-.307a9.452 9.452 0 0 1 4.654-.176c.263.058.562.163.64.417a.764.764 0 0 1-.023.388Z" fill="#3F3D56"/><path opacity=".1" d="M185.628 44.958a8.42 8.42 0 0 0-.2 1.574c-.786.16-1.605-.103-2.36-.365l-2.169-.74a.613.613 0 0 0-.828.155c-.349.362-.829 1.05-1.311 1.456a1.07 1.07 0 0 1-.229-.05c-.364-.152-.309-.716-.047-1.012.263-.297.651-.462.889-.787a4.75 4.75 0 0 1 .373-.553c.175-.151.385-.256.611-.307a9.452 9.452 0 0 1 4.654-.176c.263.058.562.163.64.417a.764.764 0 0 1-.023.388ZM205.466 94.744c.378.126.787.31.915.687l-3.037-.771-1.573-.401c-.278-.071-1.275-.152-1.458-.37-.262-.32.669-.1.836-.076a49.42 49.42 0 0 1 1.524.246c.955.171 1.872.452 2.793.685ZM206.643 97.432c-.262-.176-1.014-.155-1.337-.23-.472-.114-.936-.263-1.4-.407-.942-.307-1.875-.656-2.843-.882-.178-.039-.787-.05-.758-.275.029-.225.608-.304.753-.315.857-.062 1.927.339 2.724.625 1.016.364 1.979.863 2.861 1.484ZM204.719 92.347c-.963-.262-1.836-.86-2.827-.975a1.15 1.15 0 0 1-.722-.22.854.854 0 0 1-.233-.42c.664-.034 1.435.246 2.038.511.332.142.651.313.954.509.22.134.551.519.79.595Z" fill="#000"/><path d="M223.065 68.867a4.582 4.582 0 0 0 3.215 5.069c-.129.621-.771.965-1.225 1.408-.64.621-.97 1.552-1.725 2.024-.842.525-1.925.32-2.885.1a.354.354 0 0 1-.226-.118.343.343 0 0 1-.042-.102c-.317-1.162-.524-2.403-.199-3.567.262-.991.892-1.835 1.395-2.711.504-.876.551-1.815 1.692-2.103ZM199.618 53.83a6.819 6.819 0 0 0-2.885.878c-.587.336-1.19.787-1.862.706-.395-.045-.786-.263-1.172-.158a2.3 2.3 0 0 0-.6.357.68.68 0 0 1-.661.105l-.262 3.63c-.1 1.379-.197 2.787.133 4.132.171.687.546 1.311.588 2.009.042.697-.021 1.413.029 2.119.047.653.191 1.295.228 1.948.073 1.233-.231 2.455-.525 3.653-.443 1.767-.71 3.574-1.573 5.174-.241.443-.525.894-.525 1.398 0 .063 0 .123.016.183-.262.145-.506.28-.729.422-.498.323-1.03.682-1.235 1.24-.165.454-.089.974-.288 1.412-.2.438-.656.75-.756 1.222-.07.343.066.705 0 1.049a4.61 4.61 0 0 0-.144.543c-.026.393.307.71.637.925a5.134 5.134 0 0 0 1.574.692l1.565-6.215a50.035 50.035 0 0 0 3.548-8.252c.267-.932.61-1.84 1.026-2.717.297-.495.559-1.01.786-1.542.239-.66.263-1.377.378-2.074.137-.814.343-1.615.616-2.394.284-.842.611-1.681.669-2.565.087-1.264-.372-2.599.115-3.769a5.02 5.02 0 0 1 .8-1.203c.677-.829 1.293-1.697 1.97-2.526-.352-.375-.937-.414-1.461-.382Z" fill="#3F3D56"/><g opacity=".1" fill="#000"><path opacity=".1" d="m207.008 39.325-.328.024-.037.026c.123-.005.245-.022.365-.05ZM213.008 44.77a7.045 7.045 0 0 1-.336 1.53c-.108.302-.196.61-.262.924-.052.304-.058.614-.105.918a2.983 2.983 0 0 1-1.204 1.985.523.523 0 0 1-.325.118c-.204-.024-.33-.262-.406-.477-.417-1.204-.318-2.675-1.086-3.635a3.97 3.97 0 0 0-1.243-.926 1.599 1.599 0 0 0-.635-.238 1.668 1.668 0 0 0-.917.335 5.723 5.723 0 0 1-1.815.803 2.23 2.23 0 0 1-1.875-.404c-.362-.3-.627-.748-1.028-.98-.401-.234-.821-.221-1.217-.381a1.795 1.795 0 0 1-1.023-1.17.677.677 0 0 1-.02-.1 1.796 1.796 0 0 0 1.043 2.056c.396.16.842.163 1.217.38.375.218.666.683 1.028.982a2.228 2.228 0 0 0 1.875.403 5.723 5.723 0 0 0 1.815-.802c.265-.2.585-.318.917-.336a1.6 1.6 0 0 1 .635.239c.465.228.881.545 1.225.934.768.96.668 2.43 1.085 3.634.076.218.202.454.407.477a.521.521 0 0 0 .343-.126 2.992 2.992 0 0 0 1.207-1.992c.047-.305.052-.614.105-.918.066-.314.153-.622.262-.923a5.915 5.915 0 0 0 .349-2.206c-.006-.031-.011-.068-.016-.105Z"/></g><path d="m196.416 65.811-.178 2.394c-.026.326-.648 8.067-5.232 17.114-3.933 7.76-11.588 17.866-26.04 23.546a55.065 55.065 0 0 1-3.511 1.249l-1.354-4.249a49.64 49.64 0 0 0 9.761-4.269c7.366-4.253 13.093-10.324 17.087-18.136a48.75 48.75 0 0 0 4.485-13.19h-16.443V65.81h21.425Z" fill="#00BAFC"/><path opacity=".1" d="M163.196 108.868c14.449-5.68 22.106-15.784 26.037-23.544 4.584-9.047 5.208-16.783 5.232-17.113l.178-2.394h1.836l-.178 2.394c-.024.325-.648 8.066-5.232 17.113-3.934 7.76-11.588 17.864-26.038 23.544a54.898 54.898 0 0 1-3.514 1.251l-.178-.559a65.178 65.178 0 0 0 1.857-.692Z" fill="#fff"/><path d="m134.266 105.865-1.353 4.249a55.116 55.116 0 0 1-3.514-1.251c-14.45-5.68-22.107-15.784-26.038-23.544-4.584-9.047-5.208-16.783-5.232-17.114l-.178-2.394h21.414v4.458H102.92a48.766 48.766 0 0 0 4.498 13.19c3.994 7.813 9.718 13.884 17.085 18.135a49.521 49.521 0 0 0 9.763 4.271Z" fill="#00BAFC"/><path opacity=".1" d="M131.166 108.868c-14.449-5.68-22.107-15.784-26.037-23.544-4.584-9.047-5.209-16.783-5.232-17.113l-.178-2.394h-1.836l.178 2.394c.024.325.648 8.066 5.232 17.113 3.933 7.76 11.588 17.864 26.037 23.544 1.128.446 2.299.863 3.514 1.251l.179-.559a70.05 70.05 0 0 1-1.857-.692Z" fill="#fff"/><path d="M171.92 146.932v24.039h-49.476v-24.039l1.573-2.098c16.034-5.691 19.283-20.531 19.931-26.402.096-.812.151-1.627.165-2.444h6.118c.013.817.069 1.632.165 2.444.658 5.871 3.907 20.717 19.93 26.402l1.594 2.098Z" fill="#00BAFC"/><path opacity=".1" d="M171.92 146.932h-49.476v3.016h49.476v-3.016Z" fill="#000"/><path opacity=".1" d="M126.64 144.834c16.033-5.691 19.282-20.531 19.93-26.402.096-.812.151-1.627.165-2.444h-2.622a24.362 24.362 0 0 1-.165 2.444c-.659 5.871-3.908 20.717-19.931 26.402l-1.573 2.098v24.039h2.622v-24.039l1.574-2.098Z" fill="#fff"/><path opacity=".1" d="M114.928 65.811h4.437v4.458h-4.043a113.428 113.428 0 0 1-.394-4.458ZM134.266 105.865l-1.353 4.249a55.116 55.116 0 0 1-3.514-1.251 46.985 46.985 0 0 1-4.896-7.269 49.521 49.521 0 0 0 9.763 4.271ZM160.099 105.865a49.658 49.658 0 0 0 9.76-4.269 47.131 47.131 0 0 1-4.896 7.272 54.242 54.242 0 0 1-3.511 1.248l-1.353-4.251ZM179.434 65.811a115.38 115.38 0 0 1-.394 4.458h-4.041v-4.458h4.435ZM150.406 118.432a16.974 16.974 0 0 1-6.448 0 24.07 24.07 0 0 0 .165-2.444h6.118c.014.817.069 1.632.165 2.444Z" fill="#000"/><path d="M115.453 58.427c.113 33.057 14.273 59.79 31.731 59.79 17.457 0 31.615-26.733 31.73-59.79h-63.461Z" fill="#00BAFC"/><path opacity=".1" d="M121.091 58.427h-5.638c.113 33.057 14.273 59.79 31.731 59.79a17.19 17.19 0 0 0 2.819-.239c-16.138-2.696-28.805-28.293-28.912-59.551Z" fill="#fff"/><path d="M164.009 156.134h-33.653v8.654h33.653v-8.654Z" fill="#3F3D56"/><path opacity=".1" d="M131.929 157.314h32.08v-1.18h-33.653v8.654h1.573v-7.474Z" fill="#fff"/><path d="M97.505 90.344c-.605-.202-4.172-3.024-4.442-4.301-.27-1.277 1.885-13.175 1.885-13.175s-.199 0-.524-.04v-.19l.443-15.63s1.817-10.49-1.615-9.879c-3.433.611-1.28 9.879-1.28 9.879s-.39 4.704-.666 6.115c-.262 1.361-1.463 6.905-.645 8.628.03.061.063.12.1.178 0 0 .136 5.914-1.346 6.721-1.413.769-2 4.637-2.05 4.983l-.076-.031a4.11 4.11 0 0 1-1.094-1c-.031-.039-.055-.08-.084-.123a5.77 5.77 0 0 0-1.778-9.018 3.724 3.724 0 0 0-.349-1.448c-.681-1.458-4.458-3.364-7.14-3.409-1.238-.037-2.253.315-2.623 1.282-.189.49-.13 1.05-.21 1.558-.157 1.05-.83 1.87-1.696 2.523a10.63 10.63 0 0 0-1.13-1.088c-.876-.672-2.623-2.885-2.623-2.885s-5.452-5.646-5.856-7.193c-.404-1.547-5.85-10.839-7.062-9.22-1.211 1.617 4.172 8.67 4.172 8.67s1.023 2.561 1.81 3.426c.787.866 6.818 9.625 6.818 9.625l.289.598c-1.275.67-2.44 1.526-2.851 2.858-.603 1.962.716 3.934 1.628 5.77 1.778 3.581 2.033 8.15-.262 11.422-2.056 2.89-5.622 4.264-8.96 5.465a8.823 8.823 0 0 0 5.664 1.881c-.771 2.234-3.503 2.973-5.832 3.388 1.222 1.174 2.97 1.602 4.65 1.862.821.139 1.654.205 2.488.196h.204l.205-.016c.284-.018.567-.054.847-.107 1.212-.247 2.389-.907 3.008-1.977.524-.916.708-2.164 1.66-2.623.248-.112.515-.175.787-.186h-.03.54l3.969.039h.506c1.12-.026 2.315-.22 2.884-1.146.234-.449.358-.948.36-1.455.084-1.256 0-2.549.034-3.816.338 2.306.692 5.898-.15 7.225a12.319 12.319 0 0 1-2.46 2.667c-.238.2-.456.423-.65.666-.128.092-.204.142-.204.142l-.082.244a4.607 4.607 0 0 0-.64 1.484 1.03 1.03 0 0 0-.05.422c.092.186-.655.955-.437 1.277-1.867 2.19-2.221 5.507-2.221 5.507l-3.41 5.177c-1.751 4.602-4.374 5.074-4.374 5.074s-6.16-4.133-6.328-4.335c-.167-.202-2.522-1.211-2.522-1.211a2.672 2.672 0 0 0-1.212-1.107c-.807-.336-.876-1.573-.876-1.573-.1-2.924-1.817-3.147-1.817-3.147-1.385-.118-2.441.128-3.254.579l-.247.019c-1.19.097-2.622.204-4.196.309-4.376.289-5.417 3.123-5.417 3.123s-.538.606.167 1.262c.706.655 5.222 0 5.413-.016a2.94 2.94 0 0 1-1.028-.071c.71-.026 1.689-.052 2.523-.052h.202a10.92 10.92 0 0 0-.077 1.332c0 .839 2.321 1.377 2.321 1.377l7.068 6.293s4.442 1.986 7.269 4.841c2.827 2.856 5.326.391 5.326.391 2.992-.739 11.601-11.148 11.61-11.158 0 .304.18 10.426.524 12.459.013.103.039.204.076.301.404.874-.137 3.26-.37 4.267a11.847 11.847 0 0 0-.17 2.554s-3.229 12.325-2.961 13.408c.267 1.083-1.75 6.116-1.75 6.116v4.196l.352-.019a2.356 2.356 0 0 0-.126.21l-.023.045s2.153.469 3.6.335c1.448-.133 3.934 1.115 3.934 1.115s.841.398 3.432.566c2.591.168 2.591-1.143 2.591-1.143-.296-1.786-4.39-2.384-4.515-2.402a12.01 12.01 0 0 1-.895-.627l-.052-.042c.017-.039.032-.08.044-.121.438-1.783-1.985-2.556-1.985-2.556v-.436c1.574-.807 1.886-6.351 1.886-6.351s2.36-6.855 2.69-7.998c.33-1.144 0-2.856 0-2.856l.236-1.479s.507-1.007.507-1.209c.065-.512.262-.998.571-1.411.37-.438-.404-1.479-.404-1.479l.674-1.746v-1.917l1.574-6.955s1.65-8.1 1.078-10.752c-.572-2.651.674-3.999.674-3.999a3.374 3.374 0 0 1-.347.158c.158-.364.294-.738.407-1.118l3.54.438v.053h1.277s-.404-4.983-.404-6.991c0-2.009 1.361-9.218 1.361-9.218s.606-7.046 0-7.248ZM81.79 84.527c0 .197-.018.401-.031.611l-.07.108-.132-.11-.16.249-.047.023c-.346-.178-.525-1.198-.774-.978l-.034.029c-.055-.063-.11-.081-.168-.029l-.052.045v-.234a5.9 5.9 0 0 0 1.468.186c.003.035 0 .069 0 .1Zm11.775 23.203h.076l-.126.33.05-.33Zm-12.926 59.468-.482-.121.262-.045.244.16.029.021-.053-.015Zm4.93-.706a7.24 7.24 0 0 1-.48-.28c.053.028.26.136.48.28Z" fill="url(#c)"/><path d="m95.305 102.776-3.176 8.276h.771l-2.987 2.382 5.392.671v-11.329Z" fill="#F86D70"/><path opacity=".1" d="m95.305 102.776-3.176 8.276-.8-.215-1.415 2.597 5.391.671v-11.329Z" fill="#000"/><path d="M90.325 108.071h4.98l1.828-15.04h-6.808v15.04Z" fill="#F86D70"/><path opacity=".1" d="M90.325 108.071h4.98l1.828-15.04h-6.808v15.04Z" fill="#000"/><path d="m80.599 96.593 1.075-.181 2.47-.42s7.419-1.673 8.95-1.81a9.566 9.566 0 0 0 2.686-.765c.4-.173.655-.304.655-.304l-2.672-4.88-4.146-3.074s-2.622-.558-3.732-2.085a2.456 2.456 0 0 1-.343-2.328c.677-2.098-4.041 2.006-4.041 2.006s.044.983 0 2.237c0 .246-.024.503-.042.765 0 .173-.024.347-.042.525-.115 1.246-.352 2.528-.818 3.294-1.141 1.872 0 7.02 0 7.02Z" fill="#FBBEBE"/><path opacity=".1" d="M81.5 85.094h.106c.189 0 .34-.402.524-.42 1.477-.142 2.825-.451 3.76-1.497a2.46 2.46 0 0 1-.343-2.326c.677-2.098-4.04 2.003-4.04 2.003s.049.986-.006 2.24Z" fill="#000"/><path d="M75.758 79.146a5.745 5.745 0 0 0 5.748 5.748c.189 0 .375 0 .561-.026a5.748 5.748 0 1 0-6.31-5.722Z" fill="#FBBEBE"/><path d="M73.993 70.421c-.189.488-.131 1.034-.207 1.55-.28 1.865-2.177 2.982-3.892 3.763-1.715.782-3.65 1.708-4.196 3.51-.597 1.948.709 3.901 1.616 5.729 1.767 3.561 2.02 8.103-.262 11.36-2.028 2.885-5.56 4.254-8.885 5.455a8.757 8.757 0 0 0 5.625 1.872c-.763 2.221-3.477 2.958-5.79 3.367 1.214 1.17 2.953 1.595 4.618 1.852 1.214.188 2.46.312 3.671.068 1.212-.244 2.36-.902 2.984-1.967.525-.91.703-2.15 1.65-2.609a2.984 2.984 0 0 1 1.345-.197l3.934.042c1.224 0 2.675-.094 3.306-1.141.234-.447.356-.943.357-1.447.17-2.58-.325-5.308.737-7.663.32-.71-1.733-1.836-1.518-2.588.74-2.588.925-4.626.918-7.32 0-2.084 1.355-3.88 2.475-5.64 1.12-1.76 2.056-3.98 1.172-5.869-.996-2.106-8.48-5.166-9.658-2.127Z" fill="#3F3D56"/><path d="m79.23 166.443 1.002.663.154.102.03.019 1.187.786 2.775.467 2.438-.168s.703-1.468-.4-1.434a2.3 2.3 0 0 1-1.008-.291l-.152-.076a7.129 7.129 0 0 1-.477-.278 12.15 12.15 0 0 1-.886-.624 13.65 13.65 0 0 1-.612-.499l-4.051 1.333Z" fill="#FBBEBE"/><path opacity=".1" d="m80.245 167.106.154.102.03.019 1.187.786 2.775.467 2.438-.168s.703-1.468-.4-1.434a2.3 2.3 0 0 1-1.008-.291c.194.152.357.317.373.456.044.375-1.804 1.049-1.804 1.049l-2.607-.69s-.443-.126-1.05-.283l-.057-.016-.031.003Z" fill="#000"/><path d="M75.787 167.746s2.137.466 3.574.333c1.437-.134 3.913 1.104 3.913 1.104s.836.393 3.409.561c2.572.168 2.572-1.138 2.572-1.138-.293-1.776-4.358-2.36-4.484-2.387.05.027.262.134.477.278.289.189.6.436.624.635.045.372-1.804 1.049-1.804 1.049l-2.606-.687s-.444-.129-1.05-.286h-.057a22.315 22.315 0 0 0-2.733-.564c-1.122-.12-1.696.834-1.814 1.049a.325.325 0 0 0-.021.053Z" fill="#3F3D56"/><path d="m42.1 120.587 1.135.871s.33-.016.824-.031h.157a70.702 70.702 0 0 1 2.504-.053 7.978 7.978 0 0 1 1.597.089c.567.2 1.574-3.241 1.574-3.241l-1.138-.262-.378-.089-.262-.063-.926-.218-2.806.32-1.972 1.269-.31 1.408Z" fill="#FBBEBE"/><path opacity=".1" d="m42.1 120.587 1.135.871s.33-.016.824-.031a.999.999 0 0 1-.525-.47c-.734-2.037 2.908-2.908 2.908-2.908l1.697-.073.33-.016h.263l-.378-.089-.262-.063-.926-.218-2.806.32-1.972 1.269-.288 1.408Z" fill="#000"/><path d="M39.86 121.508c.687.635 5.187 0 5.376-.016a2.805 2.805 0 0 1-1.02-.071 1.123 1.123 0 0 1-.787-.563c-.734-2.041 2.908-2.909 2.908-2.909l1.697-.073.328-.016 4.125-.178.2-1.135s-1.34.125-3.444.293c-1.183.097-2.622.205-4.178.307-4.345.288-5.378 3.108-5.378 3.108s-.527.603.173 1.253Z" fill="#3F3D56"/><path d="M90.328 72.286c.028.062.061.122.1.178l1.001 1.469 2.607.262.029-1.033.438-15.546s1.804-10.426-1.605-9.826c-3.41.6-1.27 9.826-1.27 9.826s-.388 4.679-.66 6.084c-.265 1.359-1.453 6.881-.64 8.586ZM84.477 110.898l.742 1.269 1.66 2.84s3.01 1.104 3.782.262c.422-.459.878-2.061 1.198-3.409.263-1.091.438-2.011.438-2.011l-7.82 1.049Z" fill="#FBBEBE"/><path opacity=".1" d="m84.477 110.898.742 1.269a.873.873 0 0 0 .126-.134c.84-1.07 4.534-.228 6.514-.16.263-1.091.438-2.011.438-2.011l-7.82 1.036ZM46.72 121.369a7.978 7.978 0 0 1 1.597.089c.567.2 1.574-3.241 1.574-3.241l-1.516-.357 4.125-.178.2-1.135s-1.34.125-3.444.293c-.434.25-.822.574-1.146.957l-.063.079c-.878 1.078-1.203 2.468-1.327 3.493ZM79.23 166.443l1.156.765c1.726-.312 3.302-.802 3.488-1.573v-.037c-.367-.283-.61-.498-.61-.498l-4.034 1.343ZM75.81 167.701a40.1 40.1 0 0 0 4.547-.488 22.55 22.55 0 0 0-2.735-.569c-1.12-.12-1.694.834-1.812 1.057Z" fill="#000"/><path d="M46.846 122.693c0 .837 2.305 1.372 2.305 1.372l7.02 6.249s4.411 1.972 7.217 4.812c2.806 2.84 5.282.401 5.282.401 2.973-.734 11.538-11.095 11.538-11.095s.2 11.832.6 12.7c.402.868-.133 3.241-.367 4.246a11.796 11.796 0 0 0-.167 2.538s-3.208 12.265-2.94 13.335c.267 1.07-1.739 6.084-1.739 6.084v4.177s7.854-.301 8.287-2.071c.433-1.771-1.97-2.542-1.97-2.542v-.435c1.574-.802 1.87-6.315 1.87-6.315s2.342-6.818 2.675-7.953c.333-1.136 0-2.843 0-2.843l.234-1.468s.5-1.005.5-1.204c.066-.509.262-.992.57-1.403.367-.435-.402-1.471-.402-1.471l.669-1.739v-1.904l1.573-6.917s1.64-8.056 1.07-10.697c-.569-2.641.669-3.976.669-3.976-2.683 1.406-4.036-1.723-4.479-3.068-.113-.346-.168-.577-.168-.577s-3.684-1.358-7.114-1.033a8.16 8.16 0 0 0-2.043.433c-3.81 1.371-4.411 7.051-4.411 7.051l-3.375 5.148c-1.739 4.579-4.345 5.045-4.345 5.045s-6.116-4.109-6.294-4.311c-.178-.202-2.507-1.203-2.507-1.203a2.651 2.651 0 0 0-1.204-1.102c-.802-.335-.868-1.573-.868-1.573-.1-2.908-1.804-3.147-1.804-3.147-5.916-.493-5.882 5.622-5.882 6.456Z" fill="#3F3D56"/><path d="M80.869 106.353h3.608V95.158H80.87v11.195Z" fill="#F86D70"/><path opacity=".1" d="M80.869 106.353h3.608V95.158H80.87v11.195ZM90.325 72.262v.024c.028.062.061.122.1.178l1.002 1.469 2.606.262.03-1.033c-.814-.063-2.665-.286-3.738-.9Z" fill="#000"/><path d="M90.427 72.464s.134 5.88-1.337 6.682c-1.471.803-2.043 4.983-2.043 4.983s4.458 2.931 5.452 4.222c.994 1.29 3.276 4.363 2.806 5.098-.47.734 1.138 4.077 1.138 4.077s-2.942 6.016-2.273 8.29c.668 2.273.734 8.286.734 8.286h1.272s-.401-4.945-.401-6.951c0-2.007 1.334-9.158 1.334-9.158s.604-7.017 0-7.217c-.603-.199-4.143-3.007-4.41-4.28-.268-1.271 1.872-13.111 1.872-13.111s-2.74-.118-4.144-.92Z" fill="#F86D70"/><path opacity=".1" d="M80.8 94.12c.123.818.42 1.6.874 2.292l2.47-.42s7.419-1.673 8.95-1.81a9.558 9.558 0 0 0 2.686-.765 11.843 11.843 0 0 0-3.318-5.441l-.941-.874a15.774 15.774 0 0 0-4.746-3.034c.11.092 7.893 6.737 6.188 8.04-1.704 1.304-6.293-1.87-6.293-1.87l-5.219-4.484-.189-.162-.301.47c.153.063.303.134.448.214a7.678 7.678 0 0 1 3.671 4.563c1.073 3.606-4.28 3.28-4.28 3.28Z" fill="#000"/><path d="M79.196 110.83s4.946 2.74 6.147 1.203c.262-.338.815-.485 1.505-.524-.113-.346-.168-.577-.168-.577s-3.684-1.359-7.114-1.033l-.37.931Z" fill="#444053"/><path d="m81.472 85.597 5.407 4.652s4.571 3.184 6.294 1.87c1.723-1.314-6.191-8.043-6.191-8.043a15.996 15.996 0 0 1 4.743 3.026l.942.874c2.475 2.294 3.034 2.294 3.118 5.667.021.83-.262 2.024-.48 2.24-.802.786-1.364 6.5-1.24 7.169.123.668-1.495 6.44-.97 8.045.524 1.605-6.556-.802-7.755.737-1.198 1.539-6.144-1.204-6.144-1.204s2.74-7.02 3.409-7.487c.669-.466 1.471-4.077 0-5.748-1.471-1.67-1.602-3.275-1.602-3.275s5.35.33 4.277-3.276a7.567 7.567 0 0 0-4.112-4.777l.304-.47Z" fill="#E8E8F0"/><path opacity=".1" d="M88.689 97.43s-2.074 3.909-4.757 4.924c-.087.032-.17.06-.262.087-2.801.852 5.229-3.8 5.019-5.012Z" fill="#000"/><path d="M59.68 62.837s1.002 2.542 1.804 3.41c.803.868 6.75 9.558 6.75 9.558l.504 1.05.433.893 3.81-.4.262-1.538-.147-.178c-.383-.459-1.426-1.691-2.127-2.229-.868-.666-2.606-2.871-2.606-2.871s-5.413-5.618-5.814-7.154c-.401-1.537-5.816-10.752-7.017-9.158-1.202 1.595 4.148 8.617 4.148 8.617Z" fill="#FBBEBE"/><g opacity=".1" fill="#000"><path opacity=".1" d="M70.736 104.174a2.997 2.997 0 0 0-1.345.194c-.944.459-1.123 1.699-1.647 2.609-.614 1.065-1.783 1.723-2.987 1.967-.24.047-.48.08-.724.1a8.23 8.23 0 0 0 2.297-.1c1.204-.244 2.374-.902 2.987-1.967.525-.91.703-2.15 1.647-2.609.248-.111.515-.174.787-.183l-1.015-.011ZM80.05 84.058c0-2.085 1.356-3.881 2.474-5.64 1.117-1.76 2.056-3.982 1.172-5.87-.755-1.612-5.308-3.776-7.936-3.349 2.573.334 5.744 2.028 6.362 3.35.884 1.887-.055 4.108-1.172 5.868-1.117 1.76-2.478 3.556-2.473 5.64 0 2.691-.18 4.721-.92 7.32-.213.747 1.835 1.877 1.52 2.586-1.064 2.36-.566 5.082-.736 7.662-.004.504-.127 1-.36 1.448-.524.862-1.599 1.085-2.645 1.133h.915c1.222 0 2.672-.095 3.304-1.141.233-.447.356-.944.36-1.448.17-2.58-.328-5.305.736-7.662.32-.708-1.733-1.836-1.52-2.586.739-2.58.925-4.62.92-7.311Z"/></g><path opacity=".1" d="m68.738 76.849.433.894 3.81-.401.262-1.537-.147-.178c-.406.2-3.45 1.665-4.358 1.222Z" fill="#000"/><path opacity=".1" d="M82.807 86.9s-.936-1.468-1.471-1.07c-.535.4-.742-1.203-1.05-.936-.306.268-1.2 1.013-1.573-.029-.29-.828-3.459-6.07-4.744-8.179-.33-.545-.537-.88-.537-.88s-3.609 1.803-4.477 1.203v1.27l.735.067 3.933 7.343s1.238 1.97 1.154 2.656c-.084.687 1.587 3.695 1.854 3.895.268.199 3.147 3.542 3.147 3.542s1.471 7.22.2 9.226c-1.272 2.006-3.475 3.475-3.475 3.475s-.664 1.938-.567 2.139c.097.202-.77 1.07-.37 1.338.402.267.937 2.137.937 2.137s1.872-3.008 2.884-3.475c1.013-.466 2.308-6.618 2.308-6.618s.37-3.625.399-5.964c.028-2.339-.09-11.14.713-11.14Z" fill="#000"/><path d="M82.605 86.9s-.934-1.468-1.469-1.07c-.535.4-.744-1.203-1.048-.936-.305.268-1.199 1.013-1.574-.029-.294-.828-3.462-6.07-4.744-8.179l-.537-.88s-3.609 1.803-4.48 1.203v1.27l.737.067 3.934 7.343s1.24 1.97 1.154 2.656c-.087.687 1.573 3.695 1.854 3.895.28.199 3.147 3.542 3.147 3.542s1.47 7.22.202 9.226a12.278 12.278 0 0 1-2.42 2.68 4.676 4.676 0 0 0-1.574 2.523.993.993 0 0 0-.047.419c.097.2-.771 1.07-.37 1.338.401.267.941 2.145.941 2.145s1.873-3.008 2.885-3.475c1.012-.467 2.31-6.619 2.31-6.619s.367-3.624.399-5.963c.031-2.34-.087-11.156.7-11.156Z" fill="#F86D70"/><path opacity=".1" d="M73.448 117.315s2.808.524 3.933 1.335c1.125.81-4.277-1.27-4.277-1.27l.344-.065ZM80.2 124.432s2.93 2.441 2.405 4.647c-.525 2.205-1.878 7.754-1.878 7.754l-.527-12.401ZM54.582 119.738s-4.127.451-3.86.986c.267.535 3.86-.493 3.86-.493v-.493ZM86.276 140.04s.262.333-1.269 0c-1.532-.333-.401-1.361-.401-1.361l1.67 1.361ZM85.752 144.653s-2.098.333-3.223 0 3.223 0 3.223 0ZM81.435 162.7s-.367-.401-2.205.333c-1.838.735-2.573.769-3.108.525-.535-.244 5.313-.858 5.313-.858ZM83.475 119.169l-2.606 3.627s1.403-3.176 2.606-3.627ZM78.41 85.83s-.114 1.204-1.795 1.674c-1.68.469-2 .85-2 .85M74.04 77.106s-2.218 1.573-4.534 1.24l4.534-1.24ZM75.729 110.796s.648.406 2.203-1.372l-2.203 1.372ZM91.88 91.943c.063-.325-.162-.626-.375-.88l-.435-.525a2.01 2.01 0 0 0-.286-.294c-.262-.202-.598-.262-.87-.443" fill="#000"/><path opacity=".1" d="M232.681.525s-22.078-1.333-19.482 14.14c0 0-.524 2.735 1.962 3.975 0 0 .039-1.146 2.266-.755.792.131 1.597.17 2.399.115a4.998 4.998 0 0 0 2.932-1.211s6.207-2.565 8.62-12.708c0 0 1.786-2.214 1.715-2.783l-3.727 1.592s1.275 2.688.263 4.922c0 0-.121-4.825-.837-4.72-.144.024-1.935.93-1.935.93s2.189 4.682.537 8.086c0 0 .627-5.77-1.222-7.747l-2.622 1.532s2.559 4.835.823 8.782c0 0 .446-6.053-1.376-8.41l-2.376 1.854s2.404 4.768.938 8.04c0 0-.191-7.046-1.452-7.578 0 0-2.08 1.835-2.397 2.585 0 0 1.647 3.462.624 5.287 0 0-.627-4.694-1.141-4.72 0 0-2.071 3.11-2.287 5.244 0 0 .09-3.17 1.786-5.538 0 0-2.003.344-3.173 1.642 0 0 .323-2.198 3.685-2.39 0 0 1.712-2.36 2.168-2.504 0 0-3.341-.278-5.368.62 0 0 1.784-2.075 5.982-1.131l2.347-1.917s-4.4-.6-6.267.063c0 0 2.147-1.836 6.899-.498l2.554-1.527s-3.752-.807-5.987-.524c0 0 2.361-1.272 6.737.107l1.836-.82s-2.748-.54-3.553-.627c-.805-.087-.847-.307-.847-.307a9.531 9.531 0 0 1 5.163.574s3.881-1.432 3.813-1.675ZM205.45 4.46s-9.965-.602-8.798 6.389c0 0-.233 1.238.884 1.799 0 0 .018-.525 1.025-.344.358.06.721.078 1.083.053.49-.034.955-.226 1.325-.548 0 0 2.806-1.157 3.896-5.74 0 0 .805-1.002.774-1.26l-1.684.72s.577 1.216.124 2.226c0 0-.055-2.182-.378-2.13-.065 0-.876.42-.876.42s.991 2.116.244 3.655c0 0 .283-2.606-.553-3.5l-1.186.692s1.16 2.184.373 3.967c0 0 .202-2.735-.622-3.8l-1.072.848s1.085 2.155.425 3.632c0 0-.087-3.184-.659-3.423 0 0-.938.83-1.083 1.17 0 0 .745 1.573.284 2.386 0 0-.284-2.121-.525-2.129 0 0-.933 1.406-1.033 2.36.047-.89.325-1.754.808-2.504a2.822 2.822 0 0 0-1.435.742s.147-.991 1.665-1.08c0 0 .787-1.065.981-1.13 0 0-1.51-.127-2.426.28 0 0 .805-.939 2.704-.525l1.049-.865s-1.988-.262-2.832.029c0 0 .97-.829 3.118-.226l1.154-.69s-1.694-.367-2.707-.233c0 0 1.068-.577 3.045.047l.826-.37s-1.243-.246-1.607-.283c-.365-.036-.383-.139-.383-.139a4.3 4.3 0 0 1 2.334.263s1.77-.648 1.738-.758Z" fill="#00BAFC"/><path d="M240.26 171.15c5.823 0 10.544-.799 10.544-1.784 0-.984-4.721-1.783-10.544-1.783-5.824 0-10.545.799-10.545 1.783 0 .985 4.721 1.784 10.545 1.784Z" fill="#00BAFC"/><path d="M244.621 166.45a3.058 3.058 0 0 0 1.004-1.518c.131-.601-.126-1.311-.703-1.545-.645-.246-1.335.202-1.856.653-.522.451-1.123.968-1.805.871a2.753 2.753 0 0 0 .85-2.573 1.08 1.08 0 0 0-.236-.524c-.359-.383-1.007-.22-1.437.081-1.364.96-1.744 2.814-1.752 4.479-.136-.6-.021-1.227-.023-1.835-.003-.609-.173-1.312-.695-1.634a2.084 2.084 0 0 0-1.049-.247c-.611-.023-1.296.04-1.713.488-.524.556-.385 1.49.066 2.098.451.608 1.141.999 1.775 1.421.508.303.941.716 1.267 1.209.039.069.071.142.094.218h3.845a10.71 10.71 0 0 0 2.368-1.642Z" fill="#00BAFC"/></g><defs><linearGradient id="b" x1="212.022" y1="132.908" x2="212.022" y2="27.409" gradientUnits="userSpaceOnUse"><stop stop-color="gray" stop-opacity=".25"/><stop offset=".54" stop-color="gray" stop-opacity=".12"/><stop offset="1" stop-color="gray" stop-opacity=".1"/></linearGradient><linearGradient id="c" x1="10450.5" y1="65713.3" x2="23402.9" y2="65713.3" gradientUnits="userSpaceOnUse"><stop stop-color="gray" stop-opacity=".25"/><stop offset=".54" stop-color="gray" stop-opacity=".12"/><stop offset="1" stop-color="gray" stop-opacity=".1"/></linearGradient><clipPath id="a"><path fill="#fff" transform="translate(0 .496)" d="M0 0h300v171.115H0z"/></clipPath></defs></svg>