<svg width="300" height="225" fill="none" xmlns="http://www.w3.org/2000/svg"><g clip-path="url(#a)"><path d="m287.742 199.491 1.122-4.428a57.599 57.599 0 0 1 6.1-2.188l.142 2.057.575-2.266c2.57-.735 4.319-1.058 4.319-1.058s-2.362 8.983-7.317 15.85l-5.773 1.014 4.485.647c-.623.75-1.293 1.46-2.006 2.126-7.207 6.69-15.235 9.759-17.93 6.856-2.696-2.904.962-10.681 8.17-17.371 2.234-2.074 5.041-3.739 7.85-5.049l.263 3.81Z" fill="#E6E6E6"/><path d="m277.065 194.682-1.327-4.37a57.273 57.273 0 0 1 4.09-5.026l1.185 1.688-.68-2.238c1.821-1.957 3.151-3.138 3.151-3.138s2.621 8.911 1.93 17.351l-4.418 3.852 4.173-1.765a23.22 23.22 0 0 1-.618 2.857c-2.712 9.453-7.997 16.23-11.805 15.137-3.809-1.092-4.697-9.641-1.986-19.093.841-2.931 2.383-5.806 4.112-8.38l2.193 3.125Z" fill="#E6E6E6"/><path d="M299.324 218.715H125v.676h174.324v-.676Z" fill="#3F3D56"/><path d="M8.182 88.302C5.822 84.8 4.808 78.58 9.196 75.514c2.176-1.52 4.818-1.335 7.106-.666 3.163.925 5.977 2.812 8.41 4.922 2.807 2.435 5.21 5.29 7.58 8.145 2.34 2.818 4.71 5.604 7.197 8.291a170.042 170.042 0 0 0 15.667 14.897 168.855 168.855 0 0 0 17.075 12.563 160.132 160.132 0 0 0 9.05 5.403 80.678 80.678 0 0 0 8.855 4.39c4.042 1.626 10.968 3.897 14.552-.662 1.901-2.418 1.996-5.698 1.567-8.454-.519-3.331-1.828-6.44-3.117-9.477-5.996-14.126-12.061-28.218-18.093-42.327-1.407-3.293-2.857-6.573-4.026-9.976-1.095-3.186-2.006-6.545-2.028-10.016-.019-3.03.64-6.45 2.945-8.785 1.913-1.937 4.592-2.578 7.115-2.563 6.245.037 12.114 3.216 16.965 6.567 6.027 4.163 11.351 9.22 17.354 13.415 4.848 3.387 10.549 6.456 16.736 6.844 2.372.15 4.889-.167 7.05-1.463a9.75 9.75 0 0 0 4.217-5.673c.81-2.726.709-5.605.279-8.292a34.256 34.256 0 0 0-2.895-9.08c-2.925-6.25-6.922-11.851-10.364-17.783-1.688-2.91-3.336-5.908-4.388-9.153-.892-2.748-1.617-6.002-.736-8.983 1.817-6.15 9.203-3.836 12.949-2.06a59.953 59.953 0 0 1 7.319 4.262c.503.333.993-.55.492-.88a57.56 57.56 0 0 0-7.715-4.447c-2.283-1.045-4.796-1.956-7.415-1.906-2.2.042-4.417.964-5.708 2.932-1.528 2.328-1.423 5.339-1.012 7.837.544 3.304 1.842 6.356 3.339 9.26 1.576 3.058 3.375 5.982 5.184 8.893 3.616 5.817 7.576 11.702 9.38 18.493 1.261 4.75 2.058 12.17-3.076 15.561-2.279 1.505-5.072 1.723-7.594 1.44-3.048-.343-5.951-1.356-8.662-2.629-12.642-5.933-21.064-18.254-34.542-22.81-4.582-1.549-10.995-2.538-15.028 1.651-2.094 2.176-2.935 5.198-3.123 8.036-.226 3.4.483 6.747 1.448 9.896a97.89 97.89 0 0 0 3.73 9.709c1.51 3.54 3.023 7.08 4.538 10.618l9.184 21.482 4.562 10.674c1.393 3.258 2.886 6.531 3.612 10.063.594 2.892.763 6.871-1.784 9.197-2.023 1.847-4.978 1.762-7.346 1.333-3.067-.556-5.951-1.77-8.697-3.109-3.166-1.545-6.249-3.259-9.275-5.042a163.95 163.95 0 0 1-17.9-12.223 170.61 170.61 0 0 1-16.232-14.475 167.973 167.973 0 0 1-7.468-8.084c-2.477-2.864-4.802-5.863-7.367-8.648-2.32-2.519-4.859-4.854-7.811-6.63-2.465-1.484-5.38-2.724-8.411-2.626a7.625 7.625 0 0 0-5.599 2.686 9.403 9.403 0 0 0-2.076 5.956c.016 2.443.77 4.825 2.163 6.832.337.5 1.192-.035.854-.538ZM46.83 6.803H6.35v35.942h40.48V6.803Z" fill="#E6E6E6"/><path d="M46.83 71.498H6.35v35.941h40.48V71.498ZM176.897 6.803h-40.48v35.942h40.48V6.803Z" fill="#00BAFC"/><path d="M176.897 71.498h-40.48v35.941h40.48V71.498Z" fill="#E6E6E6"/><path d="M112.323 6.803h-40.48v35.942h40.48V6.803ZM112.323 71.498h-40.48v35.941h40.48V71.498Z" fill="#00BAFC"/><path d="M71.96 13.514A6.757 6.757 0 1 0 71.96 0a6.757 6.757 0 0 0 0 13.514ZM137.162 13.514a6.757 6.757 0 1 0 0-13.514 6.757 6.757 0 0 0 0 13.514ZM6.757 78.378a6.757 6.757 0 1 0 0-13.513 6.757 6.757 0 0 0 0 13.513ZM71.96 78.378a6.757 6.757 0 1 0 0-13.513 6.757 6.757 0 0 0 0 13.513Z" fill="#3F3D56"/><path d="M229.493 215.249s-9.443.727-8.474 4.117c.968 3.39 8.474 2.905 8.474 2.905s5.812-.484 8.959.485c3.148.968 6.78 0 7.022-1.695s-1.695-2.906-1.695-2.906l-1.21-2.421-13.076-.485Z" fill="#2F2E41"/><path d="m204.675 139.583-.969 3.874s-4.358 8.959.969 8.959 3.39-8.233 3.39-8.233l.484-3.874-3.874-.726ZM251.406 136.435l.969 3.874s4.358 8.959-.969 8.959-3.389-8.233-3.389-8.233l-.485-3.874 3.874-.726ZM226.225 70.575c5.75 0 10.411-4.662 10.411-10.412 0-5.75-4.661-10.412-10.411-10.412-5.751 0-10.412 4.662-10.412 10.412 0 5.75 4.661 10.412 10.412 10.412Z" fill="#9F616A"/><path d="M223.077 68.153s1.21 5.57.484 8.233c-.726 2.663 15.012-.484 15.012-.484s-5.569-9.201-5.327-9.444l-10.169 1.695Z" fill="#9F616A"/><path d="M225.498 74.449s-4.358-1.21-5.811.242c-1.453 1.453-9.928 5.569-9.928 5.569l5.812 35.594 25.182-5.569 4.358-33.657s-6.866-4.026-8.034-3.224c-1.167.803-11.579 1.045-11.579 1.045Z" fill="#D0CDE1"/><path d="m211.697 80.502-1.163-.623s-4.407.865-4.164 4.255c.242 3.39 1.21 22.276 1.21 22.276l-3.874 34.141 7.022 1.211 7.022-28.572-6.053-32.688ZM244.385 77.354l1.162-.623s4.407.866 4.164 4.255c-.242 3.39-1.21 22.277-1.21 22.277l3.874 34.141-7.022 1.21-7.022-28.572 6.054-32.688Z" fill="#D0CDE1"/><path d="m215.813 112.222-.969 14.77-3.147 29.54 4.6 61.26 15.981.484-4.843-58.354 4.843-20.097 15.829-.587s1.12-23.142-7.839-30.406l-24.455 3.39Z" fill="#2F2E41"/><path d="m233.246 136.435-2.542 53.39-.848 26.998 14.287 1.453 3.604-79.398-5.542-5.591-8.959 3.148ZM230.825 46.361s-9.443-1.21-12.107 3.39c0 0-.726 3.39-3.147 4.6-2.422 1.211.484 5.328 1.21 6.538.727 1.21 2.664 8.233.485 9.928-2.18 1.695 3.874 6.537 3.874 6.537s2.905 3.874.484 6.78 3.148 3.874 3.148 3.874-1.211 8.233.968 6.053c0 0 .969 18.645 10.17 7.022 9.201-11.622 13.075-17.191 9.201-21.792-3.874-4.6-.969-8.716-.969-8.716s1.211-2.422-1.452-6.054c-2.664-3.632-2.664-18.16-11.865-18.16ZM217.145 216.702s-9.444.727-8.475 4.116c.968 3.39 8.475 2.906 8.475 2.906s5.811-.484 8.958.484c3.148.969 6.78 0 7.022-1.695s-1.695-2.905-1.695-2.905l-1.21-2.422-13.075-.484Z" fill="#2F2E41"/></g><defs><clipPath id="a"><path fill="#fff" d="M0 0h300v224.593H0z"/></clipPath></defs></svg>