<svg width="300" height="278" fill="none" xmlns="http://www.w3.org/2000/svg"><g clip-path="url(#a)"><path d="M18.183 22.14A18.204 18.204 0 0 0 0 40.323V249.8a18.202 18.202 0 0 0 18.183 18.183H171.85a18.205 18.205 0 0 0 18.183-18.183V40.323A18.205 18.205 0 0 0 171.85 22.14H18.183Z" fill="#3F3D56"/><path d="M180.577 35.055H9.456v220.013h171.121V35.055Z" fill="#fff"/><path d="M158.207 74.491H31.826v8.302h126.381v-8.302ZM158.207 96.63H31.826v8.303h126.381v-8.302ZM158.207 118.77H31.826v8.303h126.381v-8.303ZM158.207 140.91H31.826v8.303h126.381v-8.303ZM158.207 163.05H31.826v8.302h126.381v-8.302ZM158.207 185.19H31.826v8.302h126.381v-8.302ZM158.207 207.329H31.826v8.303h126.381v-8.303Z" fill="#00BAFC"/><path d="M159.986 21.104 34.667 44.038l29.486 161.124 125.319-22.934-29.486-161.124Z" fill="#E6E6E6"/><path d="M148.889 52.983 56.335 69.92 57.448 76 150 59.063l-1.112-6.08ZM151.856 69.197 59.302 86.133l1.113 6.08 92.553-16.937-1.112-6.08ZM154.823 85.41l-92.554 16.938 1.113 6.08 92.553-16.938-1.112-6.08ZM157.79 101.624l-92.553 16.938 1.112 6.08 92.554-16.938-1.113-6.08ZM160.756 117.838l-92.553 16.937 1.112 6.08 92.553-16.937-1.112-6.08ZM163.724 134.051l-92.553 16.938 1.113 6.08 92.553-16.937-1.113-6.081ZM166.691 150.265l-92.553 16.938 1.113 6.08 92.553-16.938-1.113-6.08Z" fill="#00BAFC"/><path d="m248.688 197.361-35.459 6.489 8.343 45.591 35.459-6.489-8.343-45.591Z" fill="#E6E6E6"/><path d="m245.548 206.381-26.188 4.793.315 1.72 26.188-4.792-.315-1.721ZM246.388 210.969l-26.189 4.793.315 1.72 26.189-4.792-.315-1.721ZM247.227 215.557l-26.188 4.792.315 1.721 26.188-4.793-.315-1.72ZM248.067 220.145l-26.188 4.792.314 1.721 26.189-4.793-.315-1.72ZM248.906 224.732l-26.188 4.793.315 1.72 26.188-4.792-.315-1.721ZM249.746 229.32l-26.188 4.793.315 1.72 26.188-4.792-.315-1.721ZM250.586 233.908l-26.189 4.792.315 1.721 26.188-4.793-.314-1.72Z" fill="#fff"/><path d="M126.701 11.531h-15.08V8.444A8.442 8.442 0 0 0 103.177 0H86.856a8.444 8.444 0 0 0-8.444 8.444v3.087h-15.08a8.443 8.443 0 0 0-8.444 8.444v23.382h80.257V19.975a8.45 8.45 0 0 0-5.213-7.801 8.446 8.446 0 0 0-3.231-.643ZM89.603 239.069c2.494-1.706 5.056-3.481 8.017-4.256 2.701-.708 5.803-.521 7.939 1.457 1.725 1.596 2.453 4.05 1.175 6.15a3.901 3.901 0 0 1-2.589 1.884 3.135 3.135 0 0 1-1.543-.187 3.13 3.13 0 0 1-1.261-.909c-.67-.74-1.071-1.834-.715-2.81.375-1.026 1.376-1.653 2.359-2.003a17.468 17.468 0 0 1 3.518-.727l4.893-.67 20.025-2.741 22.302-3.053a.697.697 0 0 0 .483-.851.711.711 0 0 0-.851-.484l-44.375 6.075c-1.605.22-3.233.377-4.821.7a8.105 8.105 0 0 0-3.462 1.438c-2.126 1.683-1.974 4.66-.018 6.42 1.981 1.783 4.852 1.476 6.59-.493a5.977 5.977 0 0 0 .453-7.321c-1.897-2.86-5.354-3.959-8.657-3.553-3.82.469-7.058 2.616-10.16 4.739-.73.5-.04 1.7.698 1.195Z" fill="#3F3D56"/><path d="m245.308 187.788.462 4.613s-2.768 10.147 3.228 10.147 1.384-10.147 1.384-10.147l.461-3.69-5.535-.923ZM287.203 172.421l-2.116 4.125s-7.833 7.02-2.797 10.274c5.036 3.255 6.67-7.771 6.67-7.771l2.391-2.848-4.148-3.78Z" fill="#A0616A"/><path d="m252.688 191.939 6.458 43.819 3.228 31.364s2.768 6.919 11.993.923l-1.384-17.989-.923-16.143s-.922-15.683-1.844-18.45c-.923-2.768.461-11.992.461-11.992l3.69-15.221-21.679 3.689Z" fill="#2F2E41"/><path d="m263.297 266.2-3.69 4.151s-5.535-1.845-6.919 1.845c-1.383 3.69 10.609 4.612 10.609 4.612s12.453.923 12.453 0c0-.922-.333-7.977-2.011-8.37-1.678-.393-10.442-2.238-10.442-2.238ZM270.215 189.633l6.458 46.125 3.229 31.364s2.767 6.919 11.992.923l-1.384-17.989-.922-16.143s-.923-15.683-1.845-18.45c-.923-2.768.461-11.992.461-11.992l-.922-17.066-17.067 3.228Z" fill="#2F2E41"/><path d="m280.824 266.2-3.69 4.151s-5.535-1.845-6.918 1.845c-1.384 3.69 10.608 4.612 10.608 4.612s12.454.923 12.454 0c0-.922-.334-7.977-2.012-8.37-1.678-.393-10.442-2.238-10.442-2.238Z" fill="#2F2E41"/><path d="M256.378 116.757c5.35 0 9.686-4.337 9.686-9.686 0-5.35-4.336-9.687-9.686-9.687-5.349 0-9.686 4.337-9.686 9.687 0 5.349 4.337 9.686 9.686 9.686Z" fill="#A0616A"/><path d="m263.527 111.452 4.152 6.919-10.609 4.612-1.384-8.302 7.841-3.229Z" fill="#A0616A"/><path d="M268.832 117.679s-9.686-.922-13.376 5.074l-9.104 6.919a5.245 5.245 0 0 0-2.027 4.867l7.902 59.707 11.531-.462 18.911-3.69 5.535-1.383-2.767-24.446s-3.229-9.686.461-16.144l-1.845-22.601-12.915-5.073-2.306-2.768Z" fill="#575A89"/><path d="m247.153 131.517-.692-1.154s-.922 0-.922 1.845-1.614 41.743-1.614 41.743l-.462 15.221 8.764.923 3.229-28.598-1.384-18.911-6.919-11.069ZM277.595 124.598l6.458.922a42.856 42.856 0 0 1 6.457 8.764c2.768 5.074 11.07 14.76 9.225 22.14-1.845 7.38-7.38 20.756-7.38 20.756l-8.763-3.69s6.918-16.144 6.457-17.527c-.461-1.384-5.996-9.687-5.996-9.687l-6.458-21.678Z" fill="#575A89"/><path d="M249.69 101.766s-7.841-.461-2.767-5.535c0 0 4.151-1.845 5.996-.922 0 0 2.767-1.845 2.767-.923 0 0 9.686-2.767 11.07 6.919 1.384 9.686-.922 14.299-.922 14.299l-6.458-.462s1.384-7.841-3.69-6.918c0 0-4.151 1.383-4.612 0-.461-1.384-1.384-6.458-1.384-6.458Z" fill="#2F2E41"/><path opacity=".2" d="m253.38 189.403 4.151-27.675-2.767-17.066.922 18.563-2.767 26.178h.461Z" fill="#000"/></g><defs><clipPath id="a"><path fill="#fff" d="M0 0h300v278H0z"/></clipPath></defs></svg>