<svg width="300" height="260" fill="none" xmlns="http://www.w3.org/2000/svg"><g clip-path="url(#a)"><path d="M163.752 72.695c15.256 0 27.623-12.368 27.623-27.624 0-15.256-12.367-27.623-27.623-27.623s-27.624 12.367-27.624 27.623 12.368 27.624 27.624 27.624Z" fill="#A0616A"/><path d="M143.134 58.883s5.204 39.233-2.802 43.637c-8.007 4.404 47.64 4.804 47.64 4.804s-12.41-34.029-6.806-44.438l-38.032-4.003Z" fill="#A0616A"/><path d="m228.606 107.523-4.628 21.073-9.785 44.585-.293 2.442-3.377 28.267-2.247 18.779-1.506 12.614c-9.158 4.707-15.796 7.956-15.796 7.956s-.571-2.862-1.491-6.525c-6.428 1.927-18.32 5.124-28.399 5.763 3.67 4.09 5.357 7.933 3.069 10.769-6.904 8.55-35.408-9.361-45.378-16.04a27.012 27.012 0 0 0-.263 4.831l-7.629-5.867.755-13.501 1.273-22.843 1.601-28.647a29.92 29.92 0 0 1-1.266-3.767c-2.337-8.31-5.173-24.902-7.348-38.816a1361.766 1361.766 0 0 1-3.343-22.674l-.056-.398 42.233-18.662c3.002 6.96 17.017 9.053 17.017 9.053 11.611-.8 20.713-6.923 20.713-6.923l46.144 18.531Z" fill="#D0CDE1"/><path d="M194.178 235.234s-1.788.612-4.695 1.48c-6.428 1.927-18.32 5.124-28.399 5.762-8.677.556-16.01-.781-17.351-6.442-.575-2.434.24-4.436 2.017-6.081 5.304-4.918 19.158-6.679 30.146-7.284a201.62 201.62 0 0 1 8.362-.278c4.056-.053 6.716.03 6.716.03l.064.248 3.14 12.565Z" fill="#A0616A"/><path d="m140.771 18.942-5.164-2.068s10.799-11.89 25.824-10.855l-4.226-4.653s10.33-4.135 19.721 6.72c4.936 5.707 10.648 12.415 14.208 19.97h5.532l-2.309 5.084 8.08 5.083-8.293-.913a28.41 28.41 0 0 1 .225 8.431 10.909 10.909 0 0 1-3.995 7.137s-6.405-13.259-6.405-15.327v5.17s-5.165-4.652-5.165-7.754l-2.817 3.618-1.409-5.686-17.373 5.686 2.817-4.652-10.799 1.55 4.226-5.685s-12.208 6.72-12.678 12.406c-.469 5.686-4.042 11.074-4.042 11.074s-9.574-26.582 4.042-34.336Z" fill="#2F2E41"/><path d="M258.631 204.405c-2.813 3.05-9.785 7.644-18.237 12.618a455.584 455.584 0 0 1-9.906 5.646c-8.148 4.519-16.679 8.996-23.718 12.614-9.158 4.707-15.796 7.956-15.796 7.956s-.571-2.862-1.491-6.525c-1.232-4.902-3.088-11.239-5.023-14.045-.067-.098-.135-.188-.202-.278-.564-.74-1.131-1.172-1.691-1.172l27.956-17.329 12.08-7.49-8.703-20.777-10.917-26.062 6.589-20.965 6.623-21.074h12.411s4.11 8.971 9.365 21.48c.785 1.871 1.596 3.82 2.423 5.834 10.811 26.295 24.289 63.014 18.237 69.569Z" fill="#D0CDE1"/><path d="M164.153 253.246c-6.904 8.55-35.408-9.361-45.378-16.04-2.171-1.453-3.463-2.374-3.463-2.374l9.12-12.163 2.889-3.851a200.24 200.24 0 0 0 6.826 3.851c3.294 1.934 7.43 4.463 11.603 7.284 5.759 3.895 11.581 8.339 15.334 12.524 3.67 4.09 5.357 7.933 3.069 10.769Z" fill="#A0616A"/><path d="M133.726 222.421a17.926 17.926 0 0 0-3.043.248c-8.636 1.484-11.183 9.301-11.908 14.537-.232 1.6-.32 3.216-.263 4.831l-7.629-5.867-2.78-2.138c-6.69-2.333-12.652-6.476-17.82-11.363a89.618 89.618 0 0 1-12.002-14.233 125.554 125.554 0 0 1-9.286-15.928 11.709 11.709 0 0 1-.162-9.935l9.448-21.055 13.808-30.773c.102-.733.213-1.449.335-2.149 2.738-15.702 10.074-22.674 10.074-22.674h5.605l3.749 22.674 4.658 28.17-3.264 10.646-7.543 24.586 7.208 7.828 20.815 22.595Z" fill="#D0CDE1"/><path d="m140.069 156.788 4.791 5.59c1.78-.339 3.639-.738 5.554-1.186l-1.376-4.404 3.365 3.926c20.284-4.989 45.425-14.688 45.425-14.688s-27.143 1.99-47.409-2.438c-8.967-1.959-18.193 2.486-21.873 10.895-2.138 4.887-1.803 9.122 5.783 9.122a50.118 50.118 0 0 0 7.645-.72l-1.905-6.097Z" fill="#00BAFC"/><path d="M249.297 248.663v2.281a5.021 5.021 0 0 1-.707 2.58 5.042 5.042 0 0 1-4.338 2.465H76.508a5.052 5.052 0 0 1-4.34-2.465 5.12 5.12 0 0 1-.363-.751 5.01 5.01 0 0 1-.342-1.829v-2.281a5.04 5.04 0 0 1 3.114-4.661 5.037 5.037 0 0 1 1.93-.383h9.67v-1.064a.21.21 0 0 1 .21-.21h5.045a.203.203 0 0 1 .149.062c.02.019.035.042.045.068.011.025.016.053.016.08v1.064h3.152v-1.064a.208.208 0 0 1 .062-.148.211.211 0 0 1 .148-.062h5.045a.205.205 0 0 1 .149.062.2.2 0 0 1 .046.068.22.22 0 0 1 .016.08v1.064h3.155v-1.064a.2.2 0 0 1 .016-.08.2.2 0 0 1 .046-.068.2.2 0 0 1 .068-.046.2.2 0 0 1 .08-.016h5.045a.205.205 0 0 1 .149.062.2.2 0 0 1 .046.068.22.22 0 0 1 .016.08v1.064h3.151v-1.064a.22.22 0 0 1 .016-.08.21.21 0 0 1 .195-.13h5.045a.2.2 0 0 1 .08.016.2.2 0 0 1 .068.046.2.2 0 0 1 .046.068.2.2 0 0 1 .016.08v1.064h3.152v-1.064a.2.2 0 0 1 .016-.08.197.197 0 0 1 .045-.068.205.205 0 0 1 .149-.062h5.045a.214.214 0 0 1 .194.13.2.2 0 0 1 .016.08v1.064h3.156v-1.064a.2.2 0 0 1 .016-.08.197.197 0 0 1 .045-.068.205.205 0 0 1 .149-.062h5.045a.214.214 0 0 1 .194.13.2.2 0 0 1 .016.08v1.064h3.152v-1.064a.2.2 0 0 1 .016-.08.214.214 0 0 1 .194-.13h39.518a.205.205 0 0 1 .149.062.2.2 0 0 1 .061.148v1.064h3.156v-1.064a.2.2 0 0 1 .016-.08.214.214 0 0 1 .194-.13h5.045a.214.214 0 0 1 .211.21v1.064h3.151v-1.064a.22.22 0 0 1 .016-.08.2.2 0 0 1 .046-.068.205.205 0 0 1 .149-.062h5.044a.202.202 0 0 1 .149.062.2.2 0 0 1 .046.068.22.22 0 0 1 .016.08v1.064h3.152v-1.064a.2.2 0 0 1 .061-.148.205.205 0 0 1 .149-.062h5.045a.214.214 0 0 1 .194.13.2.2 0 0 1 .016.08v1.064h3.156v-1.064c0-.027.005-.055.015-.08a.215.215 0 0 1 .195-.13h5.045a.206.206 0 0 1 .146.063.203.203 0 0 1 .06.147v1.064h3.156v-1.064a.2.2 0 0 1 .016-.08.214.214 0 0 1 .194-.13h5.045a.205.205 0 0 1 .149.062.2.2 0 0 1 .061.148v1.064h3.152v-1.064a.22.22 0 0 1 .016-.08.2.2 0 0 1 .046-.068.2.2 0 0 1 .068-.046.2.2 0 0 1 .08-.016h5.045a.205.205 0 0 1 .149.062.2.2 0 0 1 .046.068.22.22 0 0 1 .016.08v1.064h14.714a5.042 5.042 0 0 1 5.045 5.044Z" fill="#3F3D56"/><path d="M298.074 252.773H22.727v.751h275.347v-.751ZM235.79 152.638h-62.523v-1.289h-28.351v1.289H82.135a4.23 4.23 0 0 0-4.23 4.229v85.614a4.23 4.23 0 0 0 4.23 4.229H235.79a4.232 4.232 0 0 0 4.229-4.229v-85.614a4.224 4.224 0 0 0-2.61-3.907 4.228 4.228 0 0 0-1.619-.322Z" fill="#3F3D56"/><path d="M159.086 191.919a9.392 9.392 0 1 0-.001-18.783 9.392 9.392 0 0 0 .001 18.783Z" stroke="#D0CDE1" stroke-width="2" stroke-miterlimit="10"/><path d="M156.08 195.299a9.391 9.391 0 1 0 0-18.782 9.392 9.392 0 0 0 0 18.782ZM40.737 248.978H30.22v10.518h10.518v-10.518Z" fill="#D0CDE1"/><path d="M34.353 240.714v12.772h12.772v-12.772H34.353Zm12.216 12.216H34.905v-11.66h11.664v11.66Z" fill="#3F3D56"/><path d="M284.155 248.978h-10.518v10.518h10.518v-10.518Z" fill="#D0CDE1"/><path d="M277.77 240.714v12.772h12.772v-12.772H277.77Zm12.216 12.216h-11.663v-11.66h11.663v11.66Z" fill="#3F3D56"/><path d="M35.529 87.034c16.46 0 29.803-13.344 29.803-29.804S51.99 27.426 35.53 27.426 5.725 40.77 5.725 57.23s13.343 29.804 29.803 29.804Z" fill="#00BAFC"/><path d="M45.915 21.813a32.214 32.214 0 0 0-8.129 0 31.692 31.692 0 0 0-26.15 22.055 31.264 31.264 0 0 0-1.373 8.137c-.014.384-.023.773-.023 1.16a31.642 31.642 0 0 0 33.62 31.548 31.614 31.614 0 0 0 2.055-62.9Zm5.83 60.425h-.005a30.39 30.39 0 0 1-7.88 1.567c-.664.045-1.337.068-2.01.068a30.744 30.744 0 0 1-30.684-31.868A30.75 30.75 0 0 1 41.85 22.46a30.709 30.709 0 0 1 9.895 59.78Z" fill="#3F3D56"/><path d="M42.302 24.265H41.4v6.322h.903v-6.322ZM21.734 32.41l-.639.64 4.47 4.47.64-.639-4.471-4.47ZM12.95 52.714v.903h6.322v-.903H12.95ZM21.095 73.282l.639.639 4.47-4.47-.638-.639-4.47 4.47ZM57.497 36.881l.638.639 4.47-4.47-.638-.64-4.47 4.471ZM64.43 52.714v.903h6.321v-.903H64.43ZM58.135 68.812l-.638.639 4.47 4.47.639-.639-4.47-4.47ZM42.302 75.745H41.4v6.322h.903v-6.322ZM43.205 51.36a2.258 2.258 0 1 0-2.71 3.613 2.258 2.258 0 0 0 2.71-3.614Zm-1.355 3.16a1.358 1.358 0 0 1-1.354-1.354 1.354 1.354 0 1 1 1.355 1.355ZM45.915 13.879h-8.129v8.128h8.129V13.88Z" fill="#3F3D56"/><path d="M41.85 15.234c5.986 0 10.838-1.719 10.838-3.839S47.836 7.557 41.85 7.557c-5.985 0-10.837 1.718-10.837 3.838s4.852 3.839 10.837 3.839ZM43.205 36.006h-2.71V51.36h2.71V36.006ZM84.896 83.4H0v.903h84.896V83.4Z" fill="#3F3D56"/><path d="M56.57 225.887c.35 12.002-6.662 16.401-15.463 16.658a24.35 24.35 0 0 1-1.823-.01c-7.96-.33-14.26-4.555-14.585-15.717-.338-11.551 14-26.559 15.075-27.669l.002-.001c.04-.043.062-.064.062-.064s16.381 14.802 16.732 26.803Z" fill="#D0CDE1"/><path d="m40.473 240.726 5.59-8.314-5.578 9.208.011.936c-.408.003-.812-.004-1.212-.021l.277-12.025-.007-.093.01-.018.026-1.136-6.122-8.889 6.115 8.039.022.24.21-9.086-5.289-9.215 5.303 7.619-.055-18.822v-.063l.002.062.351 14.835 4.82-6.026-4.804 7.304.105 8.126 4.435-7.931-4.419 9.126.059 4.519 6.45-11.048-6.43 12.624.13 10.049Z" fill="#3F3D56"/><path d="M299.987 225.887c.351 12.002-6.662 16.401-15.462 16.658a24.328 24.328 0 0 1-1.823-.01c-7.96-.33-14.26-4.555-14.586-15.717-.337-11.551 14-26.559 15.076-27.669l.002-.001.061-.064s16.382 14.802 16.732 26.803Z" fill="#D0CDE1"/><path d="m283.891 240.726 5.591-8.314-5.579 9.208.011.936c-.408.003-.812-.004-1.212-.021l.277-12.025-.008-.093.011-.018.026-1.136-6.122-8.889 6.115 8.039.022.24.209-9.086-5.288-9.215 5.303 7.619-.055-18.822v-.063l.002.062.351 14.835 4.819-6.026-4.804 7.304.106 8.126 4.434-7.931-4.418 9.126.058 4.519 6.45-11.048-6.43 12.624.131 10.049Z" fill="#3F3D56"/></g><defs><clipPath id="a"><path fill="#fff" transform="translate(0 .593)" d="M0 0h300v258.903H0z"/></clipPath></defs></svg>