<svg width="300" height="233" fill="none" xmlns="http://www.w3.org/2000/svg"><g clip-path="url(#a)"><path opacity=".8" d="M273.693 221.077H15.522V54.095a5.266 5.266 0 0 1 5.266-5.266h247.639a5.267 5.267 0 0 1 5.266 5.266v166.982Z" fill="url(#b)"/><path d="M24.33 51.862h240.537a5.267 5.267 0 0 1 5.266 5.266v163.949H19.078V57.132a5.266 5.266 0 0 1 5.253-5.27Z" fill="#fff"/><path d="M262.051 61.708H27.161v154.066h234.89V61.708Z" fill="#F5F5F5"/><path opacity=".8" d="M261.954 69.187H28.06v138.611h233.894V69.187Z" fill="#E0E0E0"/><path d="M261.954 61.821H28.06v7.366h233.894V61.82Z" fill="#F5F5F5"/><path d="M33.076 67.18a1.787 1.787 0 1 0 0-3.573 1.787 1.787 0 0 0 0 3.573Z" fill="#FF5252"/><path d="M37.986 67.18a1.787 1.787 0 1 0 0-3.573 1.787 1.787 0 0 0 0 3.573Z" fill="#FF0"/><path d="M42.899 67.18a1.787 1.787 0 1 0 0-3.573 1.787 1.787 0 0 0 0 3.573Z" fill="#69F0AE"/><path opacity=".8" d="M280.915 232.149c-14.371 1.09-261.177.666-269.8 0C-.19 226.699.017 205.555.017 205.555l113.187-.756.38 6.436h48.435l1.893-5.667h125.433s2.493 19.385-8.43 26.581Z" fill="url(#c)"/><path d="M287.508 207.258H164.522a3.78 3.78 0 0 1-2.867 6.246h-46.954a3.78 3.78 0 0 1-3.442-2.201 3.78 3.78 0 0 1 .575-4.045H1.704s-.19 18.361 10.978 23.107c8.516.567 252.305.947 266.5 0 10.802-6.262 8.326-23.107 8.326-23.107Z" fill="#F5F5F5"/><path d="M27.257 212.748a1.514 1.514 0 1 0-.001-3.027 1.514 1.514 0 0 0 .001 3.027ZM31.8 212.748a1.514 1.514 0 1 0-.001-3.027 1.514 1.514 0 0 0 0 3.027ZM36.34 212.748a1.514 1.514 0 1 0-.002-3.027 1.514 1.514 0 0 0 .001 3.027Z" fill="#E0E0E0"/><path d="M139.944 125.88h10.729a46.497 46.497 0 0 1 46.495 46.495v33.8H93.45v-33.8a46.496 46.496 0 0 1 46.494-46.495Z" fill="#00BAFC"/><path d="M145.411 107.803c26.179 0 47.401-21.223 47.401-47.402C192.812 34.222 171.59 13 145.411 13c-26.18 0-47.402 21.222-47.402 47.401 0 26.18 21.222 47.402 47.402 47.402Z" fill="#333"/><path opacity=".1" d="M138.431 112.075h13.709a9.667 9.667 0 0 1 9.665 9.666v9.419c0 3.919-1.557 7.678-4.328 10.45a14.782 14.782 0 0 1-10.45 4.328h-3.496a14.778 14.778 0 0 1-14.779-14.778v-9.406a9.667 9.667 0 0 1 9.666-9.665l.013-.014Z" fill="#000"/><path d="M128.752 111.109h33.07v19.098c0 3.919-1.557 7.678-4.328 10.45a14.782 14.782 0 0 1-10.45 4.328h-3.513a14.778 14.778 0 0 1-14.779-14.778v-19.098Z" fill="#FDB797"/><path opacity=".1" d="M128.812 115.878a47.592 47.592 0 0 0 33.07.09v-4.059h-33.07v3.969Z" fill="#000"/><path d="M145.411 118.091c26.179 0 47.401-21.222 47.401-47.401 0-26.18-21.222-47.401-47.401-47.401-26.18 0-47.402 21.222-47.402 47.401 0 26.179 21.222 47.401 47.402 47.401Z" fill="#FDB797"/><path opacity=".1" d="M100.092 53.912h90.39s-7.716-36.5-41.889-34.19c-34.172 2.31-48.501 34.19-48.501 34.19Z" fill="#000"/><path d="M100.092 52.685h90.39s-7.716-36.499-41.889-34.173c-34.172 2.327-48.501 34.173-48.501 34.173Z" fill="#333"/><path d="M98.989 76.94c2.435 0 4.409-3.703 4.409-8.27s-1.974-8.269-4.409-8.269c-2.435 0-4.41 3.702-4.41 8.27 0 4.566 1.975 8.268 4.41 8.268ZM191.585 76.94c2.436 0 4.41-3.703 4.41-8.27s-1.974-8.269-4.41-8.269c-2.435 0-4.409 3.702-4.409 8.27 0 4.566 1.974 8.268 4.409 8.268Z" fill="#FDB797"/><path d="M107.108 28.501c1.083-3.54 3.053-6.922 6.093-9.032 2.309-1.603 5.073-2.373 7.722-3.313a59.031 59.031 0 0 0 11.226-5.37c4.019-2.476 7.795-5.459 12.222-7.095 7.615-2.817 16.098-1.293 23.96.726 1.937.497 3.897 1.037 5.603 2.083 1.976 1.21 3.493 3.03 4.973 4.813l12.478 15.052c1.144 1.376 2.293 2.77 3.1 4.37a15.03 15.03 0 0 1 1.42 4.929c.333 2.76.073 5.686-1.333 8.089-2.11 3.603-6.46 5.413-10.629 5.58-4.17.166-8.263-1.044-12.269-2.217-12.918-3.783-25.997-7.31-39.395-8.88a111.13 111.13 0 0 0-20.048-.649c-2.1.137-4.873 1.1-6.149-1.04-1.104-1.856.456-6.186 1.026-8.046Z" fill="#333"/><path opacity=".05" d="M113.754 169.372v36.803M177.694 169.372v36.803" stroke="#000" stroke-width="4" stroke-miterlimit="10"/><path opacity=".8" d="M300 66.76h-59.48L220.445 83.5V66.76h-13.381V.611H300v66.15Z" fill="url(#d)"/><path d="M298.74 1.398h-90.416v63.256h90.416V1.398Z" fill="#fff"/><path d="M290.148 10.697h-71.642v1.88h71.642v-1.88ZM267.76 19.162h-49.254v1.88h49.254v-1.88ZM277.613 27.625h-59.107v1.88h59.107v-1.88Z" fill="#E0E0E0"/><path d="M265.97 36.09h-47.464v1.88h47.464v-1.88ZM290.148 44.553h-71.642v1.88h71.642v-1.88Z" fill="#00BAFC"/><path d="M290.148 53.019h-71.642v1.88h71.642v-1.88Z" fill="#E0E0E0"/><path d="M223.792 63.424v16.732l18.401-18.405-18.401 1.673Z" fill="#fff"/></g><defs><linearGradient id="b" x1="144.607" y1="221.077" x2="144.607" y2="48.836" gradientUnits="userSpaceOnUse"><stop stop-color="gray" stop-opacity=".25"/><stop offset=".54" stop-color="gray" stop-opacity=".12"/><stop offset="1" stop-color="gray" stop-opacity=".1"/></linearGradient><linearGradient id="c" x1="169221" y1="22572.9" x2="169221" y2="20217.9" gradientUnits="userSpaceOnUse"><stop stop-color="gray" stop-opacity=".25"/><stop offset=".54" stop-color="gray" stop-opacity=".12"/><stop offset="1" stop-color="gray" stop-opacity=".1"/></linearGradient><linearGradient id="d" x1="70901.9" y1="20613.9" x2="70901.9" y2=".611" gradientUnits="userSpaceOnUse"><stop stop-color="gray" stop-opacity=".25"/><stop offset=".54" stop-color="gray" stop-opacity=".12"/><stop offset="1" stop-color="gray" stop-opacity=".1"/></linearGradient><clipPath id="a"><path fill="#fff" transform="translate(0 .611)" d="M0 0h300v232.198H0z"/></clipPath></defs></svg>