<svg width="22" height="24" fill="none" xmlns="http://www.w3.org/2000/svg"><g clip-path="url(#a)"><path d="M11.005 6.61c-3.123 0-5.643 2.404-5.643 5.385 0 2.982 2.52 5.386 5.643 5.386 3.123 0 5.642-2.404 5.642-5.386 0-2.98-2.519-5.385-5.642-5.385Zm0 8.887c-2.018 0-3.668-1.57-3.668-3.502 0-1.93 1.645-3.501 3.668-3.501s3.668 1.57 3.668 3.502c0 1.93-1.65 3.501-3.668 3.501Zm7.19-9.108c0 .699-.59 1.256-1.317 1.256-.732 0-1.316-.562-1.316-1.256s.59-1.256 1.316-1.256c.727 0 1.316.562 1.316 1.256Zm3.736 1.275c-.083-1.683-.486-3.173-1.777-4.401-1.287-1.228-2.849-1.613-4.612-1.697-1.817-.099-7.263-.099-9.08 0-1.758.08-3.32.464-4.61 1.692C.56 4.486.161 5.977.073 7.66c-.103 1.734-.103 6.932 0 8.667.083 1.682.486 3.173 1.777 4.401 1.292 1.228 2.849 1.613 4.611 1.697 1.817.099 7.263.099 9.08 0 1.763-.08 3.325-.464 4.612-1.697 1.286-1.228 1.689-2.719 1.777-4.401.103-1.735.103-6.928 0-8.663Zm-2.347 10.524c-.383.918-1.125 1.626-2.092 1.997-1.449.548-4.886.421-6.487.421s-5.043.122-6.487-.422a3.634 3.634 0 0 1-2.092-1.996c-.575-1.383-.442-4.664-.442-6.192 0-1.529-.128-4.815.442-6.193.383-.918 1.124-1.626 2.092-1.997 1.449-.548 4.886-.421 6.487-.421 1.6 0 5.043-.122 6.487.421a3.634 3.634 0 0 1 2.092 1.997c.575 1.383.442 4.664.442 6.192 0 1.529.133 4.815-.442 6.193Z" fill="#fff"/></g><defs><clipPath id="a"><path fill="#fff" d="M0 0h22v24H0z"/></clipPath></defs></svg>