<svg width="178" height="130" fill="none" xmlns="http://www.w3.org/2000/svg"><g clip-path="url(#a)"><path opacity=".1" d="M104.096 17.968c-10.44-.363-20.382-3.732-29.876-7.42C64.727 6.863 55.323 2.777 45.127.824 38.58-.434 31.085-.611 25.804 2.9c-5.08 3.387-6.723 9.218-7.605 14.633-.665 4.076-1.055 8.363.764 12.178 1.265 2.648 3.507 4.874 5.059 7.42 5.398 8.825 1.582 19.71-4.266 28.328-2.742 4.042-5.928 7.903-8.046 12.204-2.118 4.3-3.097 9.234-1.244 13.623 1.836 4.355 6.212 7.62 10.953 9.919 9.627 4.668 20.968 6.005 32.034 6.762 24.49 1.676 49.109.95 73.663.224 9.087-.269 18.213-.542 27.153-1.947 4.964-.78 10.089-2.019 13.692-5 4.576-3.795 5.71-10.223 2.644-14.981-5.143-7.983-19.356-9.967-22.954-18.533-1.978-4.715.053-9.968 2.929-14.34 6.168-9.383 16.505-17.613 17.049-28.338.374-7.364-4.596-14.74-12.28-18.226-8.053-3.653-19.223-3.194-25.162 2.853-6.121 6.213-16.873 8.609-26.091 8.29Z" fill="#00BAFC"/><g opacity=".9"><path opacity=".9" d="M115.883 40.127h-.69a.369.369 0 0 0-.369.37v11.039c0 .204.165.37.369.37h.69a.37.37 0 0 0 .37-.37v-11.04a.37.37 0 0 0-.37-.369ZM67.764 30.901H67.7a.37.37 0 0 0-.37.37v3.138c0 .204.166.37.37.37h.063a.37.37 0 0 0 .37-.37V31.27a.37.37 0 0 0-.37-.369ZM67.836 38h-.164a.37.37 0 0 0-.37.37v6.009c0 .204.166.37.37.37h.164a.37.37 0 0 0 .37-.37v-6.01a.37.37 0 0 0-.37-.37ZM67.807 47.11h-.12a.37.37 0 0 0-.37.37v6.067c0 .204.165.37.37.37h.12a.37.37 0 0 0 .37-.37V47.48a.37.37 0 0 0-.37-.37Z" fill="#3A3768"/><path opacity=".9" d="M109.306 18.088h-35.23a6.289 6.289 0 0 0-6.29 6.289v84.585a6.29 6.29 0 0 0 6.29 6.289h35.23a6.29 6.29 0 0 0 6.289-6.289V24.377a6.29 6.29 0 0 0-6.289-6.29Z" fill="#3A3768"/><path opacity=".9" d="M93.13 20.988h-5.428a.624.624 0 0 0-.625.624v.107c0 .344.28.624.625.624h5.427c.345 0 .624-.28.624-.625v-.106a.624.624 0 0 0-.624-.624ZM95.532 22.436a.77.77 0 1 0 0-1.538.77.77 0 0 0 0 1.538Z" fill="#E6E8EC"/></g><path opacity=".1" d="M38.968 120.774c17.813 0 32.254-1.472 32.254-3.287 0-1.816-14.44-3.288-32.254-3.288s-32.255 1.472-32.255 3.288c0 1.815 14.44 3.287 32.255 3.287ZM110.686 130c8.345 0 15.111-.69 15.111-1.54 0-.851-6.766-1.541-15.111-1.541s-15.11.69-15.11 1.541c0 .85 6.765 1.54 15.11 1.54ZM162.317 122.238c8.345 0 15.11-.689 15.11-1.54 0-.851-6.765-1.54-15.11-1.54-8.345 0-15.11.689-15.11 1.54 0 .851 6.765 1.54 15.11 1.54Z" fill="#00BAFC"/><path d="M108.839 20.617h-5.467v.66a3.127 3.127 0 0 1-3.126 3.125h-17.45a3.126 3.126 0 0 1-3.125-3.125v-.66h-5.136a3.795 3.795 0 0 0-3.795 3.797v84.508a3.798 3.798 0 0 0 3.795 3.797h34.304a3.797 3.797 0 0 0 3.797-3.797V24.414a3.797 3.797 0 0 0-3.797-3.797ZM132.145 13.825s-13.581-.82-11.979 8.697c0 0-.323 1.682 1.206 2.445 0 0 .024-.705 1.392-.466.488.082.983.106 1.476.07a3.065 3.065 0 0 0 1.805-.743s3.816-1.577 5.302-7.816c0 0 1.098-1.362 1.055-1.712l-2.292.98s.782 1.653.161 3.027c0 0-.074-2.968-.515-2.903-.09.013-1.192.572-1.192.572s1.349 2.88.323 4.973c0 0 .385-3.548-.752-4.765l-1.613.942s1.575 2.975.508 5.402c0 0 .273-3.723-.846-5.172l-1.462 1.14s1.479 2.93.578 4.944c0 0-.12-4.333-.895-4.66 0 0-1.28 1.129-1.475 1.59 0 0 1.013 2.13.386 3.252 0 0-.386-2.887-.702-2.904 0 0-1.274 1.913-1.406 3.226 0 0 .054-1.95 1.096-3.406 0 0-1.23.211-1.95 1.01 0 0 .199-1.352 2.259-1.471 0 0 1.053-1.452 1.335-1.54 0 0-2.056-.172-3.303.381 0 0 1.097-1.275 3.68-.695l1.442-1.179s-2.706-.37-3.854.039c0 0 1.322-1.13 4.245-.307l1.571-.938s-2.308-.499-3.684-.323c0 0 1.452-.782 4.144.066l1.129-.505s-1.692-.332-2.188-.385c-.495-.053-.521-.189-.521-.189a5.864 5.864 0 0 1 3.199.365s2.377-.892 2.337-1.042ZM118.216 9.592s-6.13-.37-5.414 3.931c0 0-.143.76.546 1.105 0 0 .011-.323.629-.211.22.037.443.047.666.032a1.39 1.39 0 0 0 .816-.336s1.724-.713 2.395-3.532c0 0 .497-.614.484-.773l-1.035.442s.353.747.074 1.368c0 0-.032-1.34-.232-1.31-.041 0-.538.26-.538.26s.609 1.3.149 2.247c0 0 .174-1.603-.339-2.153l-.729.425s.711 1.344.229 2.44c0 0 .124-1.681-.382-2.336l-.661.516s.669 1.324.261 2.234c0 0-.053-1.958-.403-2.107 0 0-.579.51-.667.72 0 0 .457.967.173 1.47 0 0-.174-1.306-.323-1.312 0 0-.575.864-.635 1.451a3.146 3.146 0 0 1 .495-1.538 1.729 1.729 0 0 0-.881.456s.089-.611 1.023-.664c0 0 .476-.657.603-.697 0 0-.929-.078-1.492.172 0 0 .495-.575 1.663-.322l.645-.533s-1.222-.16-1.742.018c0 0 .599-.51 1.918-.139l.71-.424s-1.042-.224-1.663-.143c0 0 .655-.353 1.871.029l.508-.228s-.763-.15-.987-.174c-.224-.024-.235-.085-.235-.085.483-.08.98-.025 1.433.161 0 0 1.084-.392 1.067-.46ZM7.058 110.548c3.582 0 6.486-.491 6.486-1.097s-2.904-1.097-6.486-1.097-6.485.491-6.485 1.097 2.903 1.097 6.485 1.097Z" fill="#00BAFC"/><path d="M9.739 107.656c.296-.241.513-.566.62-.933.078-.371-.08-.806-.433-.95-.397-.153-.82.123-1.142.4-.32.278-.69.596-1.111.536a1.694 1.694 0 0 0 .518-1.582.647.647 0 0 0-.146-.323c-.219-.236-.619-.134-.884.052-.838.59-1.072 1.729-1.075 2.754-.086-.371-.015-.756-.016-1.129-.002-.372-.107-.806-.426-1.003a1.294 1.294 0 0 0-.646-.153c-.377-.013-.796.024-1.054.3-.323.342-.237.918.042 1.29.279.373.701.613 1.09.875.313.185.58.439.78.743a.708.708 0 0 1 .059.132h2.363a6.58 6.58 0 0 0 1.461-1.009ZM134.54 94.12s1.396 1.825-.645 4.58c-2.04 2.755-3.721 5.081-3.04 6.799 0 0 3.077-5.116 5.582-5.189 2.505-.072.858-3.113-1.897-6.19Z" fill="#00BAFC"/><path opacity=".1" d="M134.54 94.12c.122.176.218.369.286.572 2.444 2.871 3.745 5.552 1.395 5.618-2.187.063-4.813 3.976-5.44 4.963.019.077.044.152.074.226 0 0 3.077-5.116 5.582-5.189 2.505-.072.858-3.113-1.897-6.19Z" fill="#000"/><path d="M137.134 96.452c0 .645-.073 1.163-.161 1.163-.089 0-.162-.521-.162-1.163s.091-.339.18-.339c.088 0 .143-.306.143.339Z" fill="#FFD037"/><path d="M138.024 97.213c-.564.307-1.054.494-1.098.415-.044-.08.381-.39.945-.699.565-.308.341-.082.384 0 .044.083.334-.024-.231.284Z" fill="#FFD037"/><path d="M127.169 94.12s-1.395 1.825.645 4.58c2.041 2.755 3.721 5.081 3.042 6.799 0 0-3.077-5.116-5.582-5.189-2.505-.072-.86-3.113 1.895-6.19Z" fill="#00BAFC"/><path opacity=".1" d="M127.169 94.12c-.122.176-.218.369-.285.572-2.444 2.871-3.746 5.552-1.397 5.618 2.189.063 4.813 3.976 5.442 4.963a2.21 2.21 0 0 1-.074.226s-3.078-5.116-5.583-5.189c-2.505-.072-.858-3.113 1.897-6.19Z" fill="#000"/><path d="M124.574 96.452c0 .645.072 1.163.161 1.163.089 0 .161-.521.161-1.163s-.09-.339-.179-.339c-.088 0-.143-.306-.143.339Z" fill="#FFD037"/><path d="M123.679 97.213c.563.307 1.055.494 1.096.415.042-.08-.379-.39-.943-.699-.565-.308-.342-.082-.384 0-.042.083-.327-.024.231.284Z" fill="#FFD037"/><path d="M125.019 105.26s3.902-.121 5.078-.958c1.176-.837 6.002-1.837 6.29-.493.289 1.343 5.863 6.679 1.452 6.714-4.412.036-10.236-.687-11.409-1.401-1.172-.715-1.411-3.862-1.411-3.862Z" fill="#A8A8A8"/><path opacity=".2" d="M137.928 110.056c-4.405.035-10.236-.687-11.409-1.402-.895-.544-1.25-2.497-1.369-3.398h-.131s.247 3.146 1.421 3.861c1.174.714 7.004 1.437 11.409 1.402 1.271-.012 1.711-.463 1.687-1.129-.178.404-.662.658-1.608.666Z" fill="#000"/><path opacity=".3" d="M107.441 78.692H94.855v12.586h12.586V78.692ZM88.892 62.078H76.306v12.586h12.586V62.078ZM90.102 95.021H77.516v12.586h12.586V95.021Z" fill="#3A3768"/><path d="M87.293 31.175H74.707v12.586h12.587V31.175ZM104.917 74.154 95.585 82.6l8.444 9.332 9.333-8.444-8.445-9.333ZM107.233 46.342H94.647v12.586h12.586V46.342ZM91.323 60.375H78.737V72.96h12.586V60.375Z" fill="#fff"/><path d="M157.327 118.164c.732.095 1.492.161 2.193-.074.108-.034.233-.108.218-.219a.251.251 0 0 0-.05-.107 6.862 6.862 0 0 1-.666-1.263.104.104 0 0 0-.04-.056.097.097 0 0 0-.071 0c-.323.084-.604.293-.926.382a1.335 1.335 0 0 1-.503.039c-.146-.016-.346-.137-.476-.123.08.479.264.932.321 1.421ZM171.187 116.937c.484-.323.984-.681 1.269-1.192a.189.189 0 0 0 .034-.102.204.204 0 0 0-.04-.1 4.142 4.142 0 0 0-1.031-1.113c-.214.151-.407.33-.576.531-.121.127-.456.337-.459.527 0 .115.127.239.187.323.08.119.161.242.23.364.038.074.421.742.386.762Z" fill="#00BAFC"/><path d="M160.198 119.645a.485.485 0 0 1-.087.322.427.427 0 0 1-.186.108c-1.026.367-2.206-.092-3.226.271-.211.075-.409.181-.621.252a3.4 3.4 0 0 1-.769.137c-.363.036-.726.057-1.089.066a2.597 2.597 0 0 1-.819-.071.988.988 0 0 1-.629-.498.485.485 0 0 1-.031-.355.405.405 0 0 1 .066-.114.992.992 0 0 1 .242-.196l.378-.243a2.5 2.5 0 0 1 .571-.303c.148-.049.308-.07.458-.113.53-.162.934-.576 1.309-.979l.513-.547a.512.512 0 0 1 .178-.142.493.493 0 0 1 .219-.023c.498.037.98.199 1.399.471.108.079.223.147.345.203a1.223 1.223 0 0 0 .967-.12c.133-.07.104-.113.162-.238.058-.124.19-.204.306-.09.035.04.06.088.073.139.113.366.069.758.069 1.14-.003.06.005.12.023.178.028.056.062.11.1.161a.274.274 0 0 1 .021.042c.063.173.083.359.058.542Z" fill="#514E7F"/><path d="M160.198 119.645a.485.485 0 0 1-.087.322.427.427 0 0 1-.186.108c-1.026.367-2.206-.091-3.226.271-.211.075-.409.181-.621.252a3.4 3.4 0 0 1-.769.137c-.363.036-.726.057-1.089.066a2.597 2.597 0 0 1-.819-.071.988.988 0 0 1-.629-.498.485.485 0 0 1-.031-.355.405.405 0 0 1 .066-.114c.062.125.105.29.142.35a.724.724 0 0 0 .484.346 1.22 1.22 0 0 0 .437-.056c.929-.231 1.916-.234 2.807-.582.297-.141.604-.259.919-.354.329-.049.661-.076.994-.08.524-.042 1.03-.2 1.548-.283.064.173.085.358.06.541Z" fill="#464353"/><path d="M173.529 116.874c-.048.388-.295.724-.566 1.008a6.493 6.493 0 0 0-.791.866c-.267.406-.385.908-.73 1.252a2.01 2.01 0 0 1-.439.322c-.18.107-.371.194-.569.262-.515.161-1.07.127-1.613.088a1.433 1.433 0 0 1-.51-.1 1.473 1.473 0 0 1-.216-.13 1.04 1.04 0 0 1-.323-.334.336.336 0 0 1-.03-.241.545.545 0 0 1 .161-.235c.121-.126.251-.243.389-.35.189-.123.36-.273.506-.445.09-.137.156-.287.195-.445.078-.277.126-.561.142-.847 0-.191.02-.38.06-.566.082-.291.298-.554.272-.855a.22.22 0 0 1 .012-.129.2.2 0 0 1 .101-.063c.17-.067.348-.107.529-.121.09-.006.18.008.264.042a.595.595 0 0 1 .22.15c.076.09.125.216.236.256a.397.397 0 0 0 .161 0c.271-.027.56-.061.768-.237a.976.976 0 0 0 .322-.705c0-.1-.045-.205.109-.226.117-.016.209.107.269.187.236.276.412.597.518.944a.252.252 0 0 1 .098-.019.424.424 0 0 1 .352.18c.094.145.131.32.103.491Z" fill="#514E7F"/><path d="M173.529 116.874c-.048.388-.295.724-.566 1.008a6.493 6.493 0 0 0-.791.866c-.267.406-.385.908-.73 1.252a2.01 2.01 0 0 1-.439.322c-.18.107-.371.194-.569.262-.515.161-1.07.127-1.613.088a1.433 1.433 0 0 1-.51-.1 1.473 1.473 0 0 1-.216-.13 1.04 1.04 0 0 1-.323-.334.769.769 0 0 1 .333-.079c.24.013.414.238.645.308.322.098.645-.133.982-.212.216-.05.445-.035.657-.104.177-.069.341-.168.483-.294.197-.14.371-.309.518-.5.123-.191.225-.394.305-.606.174-.408.38-.801.615-1.176a.787.787 0 0 1 .125-.162c.05-.046.113-.08.162-.122.221-.161.313-.447.39-.712.021-.081.05-.161.087-.237a.413.413 0 0 1 .198.047.414.414 0 0 1 .154.134.7.7 0 0 1 .103.481Z" fill="#464353"/><path d="M150.357 82.42c.273.205.498.467.658.769.162.303 1.047 2.658.995 2.995.291-.294 1.442-.342 1.731-.634.123-.123.786-.736.884-.877.098-.142.837-.447.918-.592.301-.54-2.139-2.581-1.828-3.123a.133.133 0 0 0 .026-.084.135.135 0 0 0-.04-.064 3.88 3.88 0 0 0-.707-.484 1.124 1.124 0 0 1-.538-.646c-.23.106-.441.249-.625.423-.446.382-.886.773-1.319 1.174-.171.162-.497.366-.576.59-.079.225.258.42.421.552Z" fill="#A1616A"/><path d="M154.307 81.55a7.051 7.051 0 0 0-1.045.855c-.303.298-.59.645-.666 1.066-.031.161-.026.332-.052.498-.108.723-.735 1.254-1.011 1.936-.081.208-.14.424-.177.645-.078.418-.12.842-.126 1.268 0 .413.397.697.545 1.082.123.382.211.775.263 1.173.161.742.382 1.47.66 2.177.545 1.505 2.311 5.667 2.856 7.173 1.669-.42 6.115-1.382 7.592-2.258.494-.294-3.419-3.61-2.892-3.839a.265.265 0 0 0 .147-.111.261.261 0 0 0 0-.162c-.526-2.304-2.176-4.193-2.923-6.451-.259-.78-.725-1.444-1.08-2.186-.323-.67-.492-1.411-.875-2.048a1.356 1.356 0 0 0-.279-.35 1.705 1.705 0 0 0-.309-.186c-.212-.113-.415-.176-.628-.282Z" fill="#514E7F"/><path d="M150.446 82.156a2.613 2.613 0 1 0 0-5.226 2.613 2.613 0 0 0 0 5.226Z" fill="#A1616A"/><path d="M153.104 80.77a.875.875 0 0 1 .982-.14.482.482 0 0 1 .292.471l1.291.02c.206-.005.412.014.614.056a.894.894 0 0 1 .513.323c.016.02.034.045.06.05a.102.102 0 0 0 .059-.021 1.14 1.14 0 0 1 .646-.116c.7.045 1.348.397 1.896.834.101.067.18.163.226.275.045.147 0 .336.107.436 0 1.218.417 2.352.697 3.537.048.211.251.397.391.563.174.184.316.395.42.626.235.614-.09 1.335.14 1.953.117.253.267.489.445.702.208.261.339.575.379.906.01.149-.009.297 0 .447.014.2.05.396.107.587.093.357.193.713.297 1.068.161.574.387 1.195.901 1.502-1.243.211-2.553.416-3.739-.015a1.935 1.935 0 0 1-.466-.234c-.427-.305-.634-.827-.817-1.32-.207-.552-.417-1.114-.459-1.702a1.906 1.906 0 0 0-.077-.557c-.121-.323-.44-.514-.734-.692a3.528 3.528 0 0 1-.882-.687 1.365 1.365 0 0 1-.358-1.032c.022-.183.093-.358.101-.542a.435.435 0 0 0-.251-.447c-.905-.274-1.337-1.345-1.539-2.27a7.282 7.282 0 0 1-.116-1.451l-.011-.934a1.243 1.243 0 0 1-.407-.894.974.974 0 0 0 0-.295.832.832 0 0 0-.206-.322 2.735 2.735 0 0 1-.502-.684ZM150.32 83.76c-.029.291.037.59-.029.877-.026.11-.069.215-.102.323-.097.411-.054.844.121 1.229.176.381.386.746.628 1.089.083.115.151.242.201.375.042.14.068.285.078.43.064.585.167 1.163.308 1.733.123.497.282.999.61 1.392a.42.42 0 0 0 .251.171.457.457 0 0 0 .215-.045l.668-.253a.475.475 0 0 0 .161-.084.402.402 0 0 0 .093-.261c.047-.54-.114-1.073-.293-1.583-.542-1.538-1.262-3.02-1.613-4.613-.099-.445-.15-1.129-.474-1.476-.134-.145-.089-.083-.249 0-.08.037-.158.078-.234.125a.766.766 0 0 0-.34.57Z" fill="#464353"/><path d="M152.333 86.679c.177.939.359 1.878.544 2.818l2.593-.68c.021-.272-.124-.523-.224-.777-.237-.593-.242-1.253-.434-1.863-.145-.464-.397-.892-.532-1.36-.079-.27-.118-.554-.195-.827a6.355 6.355 0 0 0-.305-.788 5.089 5.089 0 0 0-.566-1.05c-.333.124-.686.267-.875.566-.098.17-.153.361-.161.558-.045.584.161 1.17.095 1.746a5.175 5.175 0 0 0 .06 1.657Z" fill="#00BAFC"/><path d="M155.514 99.194c.145.555-.066 1.129-.237 1.681-.26.824-.437 1.671-.529 2.53-.01.221-.054.439-.131.646a5.925 5.925 0 0 1-.315.516c-.261.461-.254 1.026-.198 1.553.037.348.094.695.161 1.039.086.418.191.856.068 1.264.205-.045.345.22.337.431-.008.211-.082.437.018.623.255.092.258.442.25.711.004.47.063.938.176 1.394a218.15 218.15 0 0 0 1.226 5.53c.934.291 2.024.592 2.914.191a.576.576 0 0 0 .37-.371.663.663 0 0 0-.036-.286l-.422-1.535a2.815 2.815 0 0 1-.152-1.129c.042-.286.161-.592.026-.842-.049-.086-.123-.162-.178-.236-.222-.322-.106-.756-.087-1.15a.894.894 0 0 0-.019-.263c-.03-.1-.072-.197-.124-.288a4.41 4.41 0 0 1-.484-2.194.541.541 0 0 0-.039-.287.655.655 0 0 1-.071-.116.317.317 0 0 1 .023-.212 1.858 1.858 0 0 1-.341-.322.484.484 0 0 0 .081-.745.255.255 0 0 0 .121-.062.241.241 0 0 0 .07-.115.242.242 0 0 0 0-.136.253.253 0 0 0-.072-.115c-.055-.039-.125-.055-.161-.11-.06-.08-.011-.195.037-.282l.258-.466c.192-.345.236-.773.442-1.11a8.354 8.354 0 0 0 .681-1.553l.735-2.048.5.433c.168.128.307.287.412.47.071.179.115.369.132.561.184 1.113.885 2.078 1.145 3.176.036.249.116.489.236.71.05.064.095.132.135.203.037.109.056.222.057.337a1.56 1.56 0 0 0 .662 1.129c.246.161.557.286.686.553.028.083.066.162.113.236.119.143.377.161.429.34.027.102-.026.221.032.31.032.04.073.072.121.09l.721.362c.807.401 1.213 1.322 1.808 1.998.206.219.387.459.541.716.256.458.375 1.034.806 1.329.116.061.221.139.313.233.137.179.087.43.098.656.012.226.186.494.4.426a1.574 1.574 0 0 0 0 .834 4.2 4.2 0 0 0 2.549-1.033c.21-.183.413-.417.414-.695a.263.263 0 0 0-.03-.138.378.378 0 0 0-.162-.123c-.672-.365-.875-1.21-1.212-1.897-.299-.605-.738-1.129-1.11-1.69-.807-1.21-1.345-2.673-2.557-3.473-.266-.176-.576-.332-.708-.623a5.043 5.043 0 0 1-.142-.516.437.437 0 0 0-.138-.221.437.437 0 0 0-.241-.101c.077-.262.106-.535.087-.807a.995.995 0 0 0-.04-.347 1.706 1.706 0 0 0-.177-.342 3.315 3.315 0 0 1-.457-1.774c.01-.322.066-.645-.031-.953-.048-.161-.132-.295-.192-.445a2.794 2.794 0 0 1-.138-.831l-.066-1.063a5.091 5.091 0 0 0-.137-1.05c-.225-.824-.439-4.278-1.199-4.666-.76-.389-2.056 2.268-2.903 2.32a3.87 3.87 0 0 0-1.11.214c-.566.213-1.042.61-1.505.998l-1.568 1.316a5.68 5.68 0 0 1-.972.702ZM147.992 76.641a1.977 1.977 0 0 1 1.522-.741c.586 0 1.164.145 1.68.422.153.087.315.154.484.202.278.056.584-.02.834.113.332.175.395.624.366.998-.029.374-.098.784.1 1.105.07.092.134.188.192.287a.951.951 0 0 1-.018.615 4.96 4.96 0 0 1-.322-.405c-.116-.128-.315-.215-.457-.12-.142.096-.142.271-.148.428-.007.156-.048.345-.197.397a.322.322 0 0 1-.322-.13c-.254-.31-.152-.806-.402-1.116-.144-.177-.381-.263-.513-.448-.103-.145-.129-.334-.219-.484-.091-.15-.302-.272-.444-.161a.6.6 0 0 0-.118.161.678.678 0 0 1-.806.242 1.425 1.425 0 0 0-.35-.15.43.43 0 0 0-.399.216.862.862 0 0 0-.104.462c0 .217.038.456-.088.633a.646.646 0 0 1-.187.162c-.185.118-.438.197-.613.063a.466.466 0 0 1-.137-.43c.034-.153.077-.305.131-.453.097-.342-.029-.727.077-1.05.113-.293.268-.568.458-.818Z" fill="#464353"/><path d="M149.393 84.437a.396.396 0 0 0 .024.24.396.396 0 0 0 .13.126c.373.23.796.368 1.233.399a.372.372 0 0 1 .161.043.305.305 0 0 1 .073.344.916.916 0 0 0-.078.364c.032.23.305.336.537.365.323.066.659 0 .934-.18.174-.16.306-.358.386-.58.634-1.452.856-3.065 1.498-4.516a.917.917 0 0 0 .097-.302.297.297 0 0 0-.119-.279c-.12-.074-.305-.032-.386-.147-.04-.06-.035-.138-.071-.2-.074-.132-.268-.116-.402-.187-.103-.056-.175-.161-.29-.192a.372.372 0 0 0-.303.13c-.376.353-.574.85-.784 1.322a15.683 15.683 0 0 1-1.129 2.082c.05-.077-.239-.666-.352-.689-.196-.04-.451.307-.558.438a2.766 2.766 0 0 0-.601 1.42Z" fill="#00BAFC"/><path d="M163.298 86.502h-12.586v12.586h12.586V86.502Z" fill="#fff"/><path d="M163.196 93.434c-.216.191-.416.4-.597.626-.183.228-.28.514-.274.806a.408.408 0 0 0 .078.236.201.201 0 0 0 .224.07.326.326 0 0 0 .11-.1c.116-.14.24-.275.371-.402.048-.047.109-.097.174-.08.029.01.055.028.076.05a.514.514 0 0 1 .161.244.58.58 0 0 1-.171.47c-.126.12-.224.266-.289.427a.18.18 0 0 0 0 .137.224.224 0 0 0 .086.074 1.242 1.242 0 0 0 1.043.068c.224-.089.418-.243.645-.323.099-.026.195-.061.286-.106a.597.597 0 0 0 .253-.377c.029-.154.035-.311.018-.467a5.315 5.315 0 0 0-.389-1.758.21.21 0 0 0-.063-.093.22.22 0 0 0-.106-.03c-.282-.03-.747-.175-1.02-.07a.7.7 0 0 0-.24.214c-.063.057-.376.31-.376.384Z" fill="#A1616A"/><path d="M163.1 93.184c0-.27-.336-.92.195-.968 0-.287-.408-.467-.334-.77.026-.104.108-.186.121-.29.034-.295-.499-.454-.412-.738.033-.108.15-.174.176-.284.06-.255-.396-.37-.405-.63 0-.09.049-.173.046-.26 0-.112-.097-.195-.15-.29-.137-.247-.071-.63-.323-.756.161.013.224-.233.153-.385-.071-.152-.209-.282-.209-.45a.72.72 0 0 0 0-.186c-.047-.16-.312-.172-.355-.334a1.385 1.385 0 0 1 0-.182c-.016-.126-.145-.203-.266-.24a1.058 1.058 0 0 1-.355-.126c-.078-.06-.162-.161-.25-.105-.031.018-.047.053-.071.08-.099.115-.287.066-.413-.02-.37-.25-.552-.7-.632-1.139-.081-.439-.076-.892-.173-1.327a3.043 3.043 0 0 0-.118-.397 2.075 2.075 0 0 1-.187-.397c-.019-.253.507-.08.707-.055.194.018.386.055.574.108.199.076.395.161.585.257.807.353 1.762.397 2.404.989.211.195.388.45.661.537.125.025.249.057.371.097.305.143.352.546.518.838.052.077.097.158.137.242.031.1.046.205.043.31l.023.766c.037 1.29.076 2.57-.061 3.845-.046.42-.108.854.014 1.258.032.11.079.215.107.323.026.131.04.265.042.398l.017.496a.16.16 0 0 1-.024.114.157.157 0 0 1-.134.032c-.692-.06-1.389-.451-2.042-.216" fill="#464353"/><path d="M150.238 91.163a.217.217 0 0 0-.078.065.551.551 0 0 0 0 .654.21.21 0 0 1 .039.065.189.189 0 0 1-.019.11.36.36 0 0 0 .05.406c.05.042.117.063.15.118.056.093-.023.213-.01.322.016.144.186.215.323.233a.34.34 0 0 0 .314-.084.259.259 0 0 0 0-.286.755.755 0 0 0-.213-.213.323.323 0 0 0 .305-.295.456.456 0 0 0-.184-.401c-.029-.025-.064-.049-.072-.088-.008-.038.03-.091.066-.129.161-.16.285-.556-.018-.645a.75.75 0 0 0-.323.015c-.077.024-.077.07-.137.103-.059.032-.126.016-.193.05Z" fill="#A1616A"/><path opacity=".1" d="M153.407 80.022a.533.533 0 0 0-.409.207 1.161 1.161 0 0 0-.171.548 4.807 4.807 0 0 1-.646 1.752M153.972 80.464a.624.624 0 0 0-.536.323 1.81 1.81 0 0 0-.135.547 2.983 2.983 0 0 1-.537 1.147" fill="#000"/><path d="M49.911 90.74c.094 1.02-.675 2.007-.451 3.004.048.213.14.414.174.629.092.592-.261 1.153-.598 1.648l-2.894 4.249a2.756 2.756 0 0 1-.415.511c-.554.484-1.383.441-2.11.587-.511.105-.993.318-1.414.626a.093.093 0 0 0-.02.128 1.219 1.219 0 0 0 1.052.493c.076.1 0 .247-.104.323-.162.108-.37.135-.4.4a.432.432 0 0 0 .053.264.819.819 0 0 0 .506.352c1.002.306 2.086-.231 2.834-.968.749-.737 1.29-1.656 2.026-2.403.408-.412.871-.766 1.29-1.166.84-.797 1.49-1.775 2.118-2.742.205-.283.36-.598.458-.933.078-.332.042-.682.133-1.011.116-.43.432-.773.693-1.13.515-.706.857-1.572.789-2.443-.068-.87-.606-1.732-1.43-2.027a1.28 1.28 0 0 0-.806-.05c-.337.105-.585.384-.816.645l-.548.635a1.465 1.465 0 0 0-.323.484.51.51 0 0 0 .113.54" fill="#FBBEBE"/><path opacity=".05" d="M49.911 90.74c.094 1.02-.675 2.007-.451 3.004.048.213.14.414.174.629.092.592-.261 1.153-.598 1.648l-2.894 4.249a2.756 2.756 0 0 1-.415.511c-.554.484-1.383.441-2.11.587-.511.105-.993.318-1.414.626a.093.093 0 0 0-.02.128 1.219 1.219 0 0 0 1.052.493c.076.1 0 .247-.104.323-.162.108-.37.135-.4.4a.432.432 0 0 0 .053.264.819.819 0 0 0 .506.352c1.002.306 2.086-.231 2.834-.968.749-.737 1.29-1.656 2.026-2.403.408-.412.871-.766 1.29-1.166.84-.797 1.49-1.775 2.118-2.742.205-.283.36-.598.458-.933.078-.332.042-.682.133-1.011.116-.43.432-.773.693-1.13.515-.706.857-1.572.789-2.443-.068-.87-.606-1.732-1.43-2.027a1.28 1.28 0 0 0-.806-.05c-.337.105-.585.384-.816.645l-.548.635a1.465 1.465 0 0 0-.323.484.51.51 0 0 0 .113.54" fill="#000"/><path d="M27.869 95.071c.161.51.322 1.02.518 1.517.356.86.805 1.68 1.34 2.445.344.502.714.987 1.108 1.451.493.583 1.045 1.168 1.22 1.912.101.429.067.879.109 1.318.042.438.185.904.54 1.167.27.167.575.268.89.294.223.035.502.047.618-.147a.551.551 0 0 0 .062-.255l.055-.645c.01-.139.06-.323.198-.323.139 0 .21.18.323.262a.359.359 0 0 0 .276.024.348.348 0 0 0 .207-.186.805.805 0 0 0 .013-.564 2.674 2.674 0 0 0-1.375-1.705 4.137 4.137 0 0 1-.671-.35 2.283 2.283 0 0 1-.528-.665c-1.22-2.008-2.445-4.032-3.306-6.211a4.595 4.595 0 0 1-.34-1.224c-.018-.431 0-.863.052-1.29a7.385 7.385 0 0 0-.213-2.304 1.81 1.81 0 0 0-.22-.56c-.354-.538-1.188-.617-1.713-.246a1.766 1.766 0 0 0-.681 1.245c-.039.434.213.887.34 1.29.395 1.25.787 2.5 1.178 3.75Z" fill="#A1616A"/><path opacity=".05" d="M27.869 95.071c.161.51.322 1.02.518 1.517.356.86.805 1.68 1.34 2.445.344.502.714.987 1.108 1.451.493.583 1.045 1.168 1.22 1.912.101.429.067.879.109 1.318.042.438.185.904.54 1.167.27.167.575.268.89.294.223.035.502.047.618-.147a.551.551 0 0 0 .062-.255l.055-.645c.01-.139.06-.323.198-.323.139 0 .21.18.323.262a.359.359 0 0 0 .276.024.348.348 0 0 0 .207-.186.805.805 0 0 0 .013-.564 2.674 2.674 0 0 0-1.375-1.705 4.137 4.137 0 0 1-.671-.35 2.283 2.283 0 0 1-.528-.665c-1.22-2.008-2.445-4.032-3.306-6.211a4.595 4.595 0 0 1-.34-1.224c-.018-.431 0-.863.052-1.29a7.385 7.385 0 0 0-.213-2.304 1.81 1.81 0 0 0-.22-.56c-.354-.538-1.188-.617-1.713-.246a1.766 1.766 0 0 0-.681 1.245c-.039.434.213.887.34 1.29.395 1.25.787 2.5 1.178 3.75Z" fill="#000"/><path d="M52.345 114.224c-.632.385-1.419.408-2.154.322-.118-.014-.259-.024-.334.068-.11.132.019.323.153.435a3.2 3.2 0 0 0 1.48.608c.481.068.967.1 1.452.097 1.321.023 2.649.044 3.957-.147a.528.528 0 0 0 .216-.062.412.412 0 0 0 .161-.249.99.99 0 0 0-.345-.942 2.92 2.92 0 0 0-.922-.495l-1.149-.447c-.27-.105-.703-.384-.995-.361-.542.035-1.063.905-1.52 1.173Z" fill="#3F3D56"/><path d="M55.231 116.922a2.817 2.817 0 0 1-1.928.719c-.18 0-.432.034-.432.215.003.054.02.106.052.15.225.374.58.652.997.781.393.093.8.119 1.203.075l1.177-.061c.223-.011.447-.022.668-.05.221-.027.461-.072.692-.108a9.274 9.274 0 0 1 1.715-.081.5.5 0 0 0 .422-.112c.105-.133.044-.323.01-.484-.071-.341 0-.699-.066-1.042-.113-.6-.63-1.062-1.202-1.279-.529-.202-1.468-.433-1.97-.097-.538.356-.862.943-1.338 1.374Z" fill="#3F3D56"/><path d="M52.905 101.686c-.484.637-.968 1.373-.855 2.16.065.424.302.798.476 1.192.219.54.381 1.101.484 1.674.179.834.358 1.669.47 2.515.123.957.158 1.923.104 2.887-.014.232-.04.484-.202.645-.064.065-.148.118-.175.205a.348.348 0 0 0 .037.242 2.678 2.678 0 0 0 1.435 1.321 5.495 5.495 0 0 0 1.952.364.542.542 0 0 0 .261-.034.5.5 0 0 0 .202-.23c.484-.92.215-2.029.222-3.065 0-.866.21-1.724.173-2.59-.03-.694-.216-1.371-.284-2.063-.111-1.129.097-2.274.305-3.395a55.47 55.47 0 0 1 .524-2.568c.103-.524.29-1.027.555-1.49.226-.357.532-.656.79-.991a4.496 4.496 0 0 0 .884-3.286c-.016-.116-1.66.416-1.803.484a5.59 5.59 0 0 0-1.613 1.034c-.38.361-.679.845-1.013 1.252a104.001 104.001 0 0 0-2.929 3.737Z" fill="#464353"/><path opacity=".05" d="M52.905 101.686c-.484.637-.968 1.373-.855 2.16.065.424.302.798.476 1.192.219.54.381 1.101.484 1.674.179.834.358 1.669.47 2.515.123.957.158 1.923.104 2.887-.014.232-.04.484-.202.645-.064.065-.148.118-.175.205a.348.348 0 0 0 .037.242 2.678 2.678 0 0 0 1.435 1.321 5.495 5.495 0 0 0 1.952.364.542.542 0 0 0 .261-.034.5.5 0 0 0 .202-.23c.484-.92.215-2.029.222-3.065 0-.866.21-1.724.173-2.59-.03-.694-.216-1.371-.284-2.063-.111-1.129.097-2.274.305-3.395a55.47 55.47 0 0 1 .524-2.568c.103-.524.29-1.027.555-1.49.226-.357.532-.656.79-.991a4.496 4.496 0 0 0 .884-3.286c-.016-.116-1.66.416-1.803.484a5.59 5.59 0 0 0-1.613 1.034c-.38.361-.679.845-1.013 1.252a104.001 104.001 0 0 0-2.929 3.737Z" fill="#000"/><path d="M56.399 96.786c.103.493.582.87.595 1.376.011.403-.276.742-.484 1.088-.195.36-.36.734-.493 1.12a17.089 17.089 0 0 1-1.452 2.882c-.276.439-.586.915-.521 1.429.043.24.128.471.25.683l.829 1.646c.182.329.324.678.422 1.041.073.313.08.645.121.955.131 1.009.604 2.026.323 3.005-.024.083-.113.185-.179.127.274.511.495 1.027.473 1.613-.01.305-.104.621.01.905a.985.985 0 0 1 .125.345c0 .082-.039.161-.047.244-.022.232.19.427.413.501.223.074.465.07.689.136.432.129.739.5 1.11.758.374.259.817.404 1.272.414a.32.32 0 0 0 .188-.037.303.303 0 0 0 .104-.227 1.261 1.261 0 0 0-.456-1.099.504.504 0 0 1-.161-.177.43.43 0 0 1-.017-.198c.068-.906.052-1.816-.048-2.718a4.2 4.2 0 0 1-.042-.865c.048-.237.071-.479.07-.721a3.697 3.697 0 0 0-.221-.689c-.128-.411-.092-.853-.105-1.29a11.31 11.31 0 0 0-.365-2.208 1.679 1.679 0 0 0-.343-.797c-.173-.181-.452-.351-.386-.592a.678.678 0 0 1 .161-.235.95.95 0 0 0 .199-.721.324.324 0 0 0 .37-.175 5.804 5.804 0 0 0 2.917-3.316 1.08 1.08 0 0 1 .13-.295c.125-.174.343-.25.535-.347.603-.303 1.019-.872 1.401-1.429.24-.31.424-.662.542-1.037.052-.246.077-.497.074-.748l.034-1.29a.741.741 0 0 0-.024-.254.644.644 0 0 0-.14-.206 2.505 2.505 0 0 0-1.378-.742c-.353-.063-.714-.052-1.072-.081-.694-.058-1.38-.273-2.075-.223-1.09.081-2.061.837-2.58 1.802-.19.345-.381.636-.768.647Z" fill="#464353"/><path d="M20.206 116.54c.238.082.49.113.742.089.017-.205.293-.25.498-.241a.566.566 0 0 1 .293.065c.052.032.09.08.14.114a.59.59 0 0 0 .291.074l1.068.091c.476.04.968.077 1.416-.094a.46.46 0 0 0 .227-.151c.121-.173 0-.421-.16-.547-.162-.126-.383-.184-.55-.313-.372-.282-.422-.807-.619-1.232a3.538 3.538 0 0 0-.51-.741 2.835 2.835 0 0 0-.504-.516c-.428-.31-.921-.303-1.423-.347-.355-.032-.688-.053-.943.262-.315.39-.19 1.177-.17 1.643.02.619.087 1.236.204 1.844Z" fill="#514E7F"/><path opacity=".05" d="M20.206 116.54c.238.082.49.113.742.089.017-.205.293-.25.498-.241a.566.566 0 0 1 .293.065c.052.032.09.08.14.114a.59.59 0 0 0 .291.074l1.068.091c.476.04.968.077 1.416-.094a.46.46 0 0 0 .227-.151c.121-.173 0-.421-.16-.547-.162-.126-.383-.184-.55-.313-.372-.282-.422-.807-.619-1.232a3.538 3.538 0 0 0-.51-.741 2.835 2.835 0 0 0-.504-.516c-.428-.31-.921-.303-1.423-.347-.355-.032-.688-.053-.943.262-.315.39-.19 1.177-.17 1.643.02.619.087 1.236.204 1.844Z" fill="#000"/><path d="M20.638 95.784c-.323.105-.468.511-.408.85.06.339.263.63.43.928.475.85.681 1.822 1.08 2.709.298.663.701 1.276.996 1.936.295.66.484 1.415.299 2.119-.087.344-.255.66-.368.996-.11.368-.183.746-.216 1.129a21.399 21.399 0 0 0-.078 3.897c.002.158.035.315.099.461.066.129.182.264.126.398-.023.054-.071.092-.096.146-.067.148.07.303.194.408a.327.327 0 0 1-.21.161.493.493 0 0 1 .212.552c-.112.016-.118.185-.047.274.07.088.179.145.229.245a.344.344 0 0 1-.189.432.887.887 0 0 1-.514.039 5.512 5.512 0 0 1-.862-.189.764.764 0 0 1-.264-.121.786.786 0 0 1-.237-.522 9.452 9.452 0 0 1-.06-1.613c.047-2.607 0-5.217-.113-7.822-.047-1.048-.361-2.071-.768-3.038a15.572 15.572 0 0 0-.748-1.452c-.584-1.074-1.103-2.258-.968-3.476.015-.13.063-.289.192-.31a.279.279 0 0 1 .148.024c.27.127.532.272.783.433.413.243.879.382 1.358.406Z" fill="#464353"/><path opacity=".05" d="M20.638 95.784c-.323.105-.468.511-.408.85.06.339.263.63.43.928.475.85.681 1.822 1.08 2.709.298.663.701 1.276.996 1.936.295.66.484 1.415.299 2.119-.087.344-.255.66-.368.996-.11.368-.183.746-.216 1.129a21.399 21.399 0 0 0-.078 3.897c.002.158.035.315.099.461.066.129.182.264.126.398-.023.054-.071.092-.096.146-.067.148.07.303.194.408a.327.327 0 0 1-.21.161.493.493 0 0 1 .212.552c-.112.016-.118.185-.047.274.07.088.179.145.229.245a.344.344 0 0 1-.189.432.887.887 0 0 1-.514.039 5.512 5.512 0 0 1-.862-.189.764.764 0 0 1-.264-.121.786.786 0 0 1-.237-.522 9.452 9.452 0 0 1-.06-1.613c.047-2.607 0-5.217-.113-7.822-.047-1.048-.361-2.071-.768-3.038a15.572 15.572 0 0 0-.748-1.452c-.584-1.074-1.103-2.258-.968-3.476.015-.13.063-.289.192-.31a.279.279 0 0 1 .148.024c.27.127.532.272.783.433.413.243.879.382 1.358.406Z" fill="#000"/><path d="M16.231 92.615a1.148 1.148 0 0 0-.568-.18 1.152 1.152 0 0 0-.617.307c-.216.167-.42.347-.613.539a3.28 3.28 0 0 0-.733 3.244c.196.579.549 1.09.897 1.59l.71 1.02c1.082 1.554 2.166 3.109 3.3 4.627a.174.174 0 0 0 .123.161c.042.012.092.01.117.044a.124.124 0 0 1 .015.069c-.004.11-.025.219-.063.323a.15.15 0 0 0-.013.111c.036.086.192.037.24.118.034.051 0 .121-.051.161-.052.04-.097.095-.089.161.008.066.116.128.111.208 0 .046-.038.079-.066.115a.292.292 0 0 0 .036.373c.074.742-.323 1.443-.408 2.185-.128 1.166.4 2.305.464 3.476a.93.93 0 0 0 .073.384c.11.202.39.323.38.553-.02.095-.046.188-.079.279.003.134.017.267.042.399 0 .133-.113.293-.237.242.094.309.177.622.249.937l2.484.205c.026-.224.018-.45-.023-.671-.052-.239-.161-.463-.216-.702a.828.828 0 0 1 .098-.702.276.276 0 0 1-.274-.226 1.102 1.102 0 0 1 0-.385c.066-.645-.206-1.29-.198-1.936.008-.513.187-1.004.279-1.508.193-1.077-.008-2.247.47-3.226.291-.593.693-1.251.367-1.826-.161-.283-.444-.483-.628-.745a3.02 3.02 0 0 1-.337-.806c-.384-1.187-1.001-2.282-1.545-3.407a3.585 3.585 0 0 1-.332-.895 4.543 4.543 0 0 1-.04-.826 12.69 12.69 0 0 0-.092-1.484 1.39 1.39 0 0 0-.181-.614 1.377 1.377 0 0 0-.387-.353c-.815-.555-1.786-.876-2.665-1.34Z" fill="#464353"/><path d="M19.207 117.45c.238.082.491.112.742.088.02-.205.294-.25.498-.24.1-.003.198.02.286.066.052.032.09.081.142.115a.6.6 0 0 0 .29.074l1.066.09c.476.04.968.077 1.418-.093a.467.467 0 0 0 .226-.152c.12-.173 0-.421-.161-.547-.162-.126-.383-.184-.552-.313-.37-.282-.42-.806-.618-1.232a3.558 3.558 0 0 0-.51-.74 2.829 2.829 0 0 0-.503-.517c-.429-.309-.92-.303-1.422-.346-.357-.033-.69-.054-.944.261-.322.39-.19 1.177-.17 1.644.022.618.094 1.234.212 1.842Z" fill="#514E7F"/><path d="M45.261 98.74H32.675v12.587h12.586V98.741Z" fill="#fff"/><path d="M30.214 88.315a2.46 2.46 0 1 0 0-4.92 2.46 2.46 0 0 0 0 4.92Z" fill="#A1616A"/><path d="M27.895 86.584c-.354.305-.858.322-1.322.374-.989.1-1.951.38-2.841.823-.122.053-.231.13-.323.225a.93.93 0 0 0-.161.352 2.326 2.326 0 0 0-.094.855c.032.28.113.553.237.806a4.329 4.329 0 0 0 1.526 1.74c.111.081.237.141.371.177.323.067.637-.121.955-.205.29-.075.597-.065.882.029.268.089.55.251.807.143a.842.842 0 0 0 .367-.417c.252-.477.476-.968.671-1.47a5.55 5.55 0 0 1 .244-.57c.286-.544.779-.968 1.024-1.527a.336.336 0 0 0 .023-.287.399.399 0 0 0-.18-.138 4.313 4.313 0 0 1-.983-.771c-.162-.162-.46-.575-.692-.612-.255-.034-.334.321-.511.473Z" fill="#A1616A"/><path d="M27.953 91.582c-.286.138-.621.076-.931.012-.797-.162-1.602-.336-2.339-.68-.23-.088-.43-.241-.574-.441a1.407 1.407 0 0 1-.161-.552l-.136-.915c-.047-.322.036-.616.042-.938a.274.274 0 0 0-.053-.205.221.221 0 0 0-.161-.05c-.37 0-.593.392-.852.655-.149.151-.327.27-.523.351-.237.097-.529.162-.624.402-.04.098-.035.211-.076.31-.161.393-.87.263-1.05.645-.051.11-.048.248-.134.335-.085.088-.242.084-.37.107-.514.084-.764.677-1.202.956-.37.236-.846.231-1.242.415a4.754 4.754 0 0 1-.645.322 3.046 3.046 0 0 1-.749.038.202.202 0 0 0-.15.048.206.206 0 0 0-.024.161 4.528 4.528 0 0 0 2.798 3.505.99.99 0 0 1 .24.115c.223.161.262.527.515.645a.534.534 0 0 0 .539-.116c.138-.135.268-.278.389-.43.232-.24.536-.4.866-.454.305-.048.645-.013.892-.2.1-.093.195-.193.28-.3a1.76 1.76 0 0 1 .646-.38 6.45 6.45 0 0 1 2.016-.427c.645-.037 1.314.023 1.926-.188a1.13 1.13 0 0 0 .429-.242 1.29 1.29 0 0 0 .287-.499 3.806 3.806 0 0 0 .13-2.005Z" fill="#514E7F"/><path d="M24.782 87.958c.182-.016.364 0 .546 0 .215 0 .426-.052.645-.053a1.59 1.59 0 0 1 1.5 1.142.29.29 0 0 1 .01.161.115.115 0 0 1-.124.084 2.722 2.722 0 0 0-.276-.553 1.566 1.566 0 0 0-.826-.574 2.144 2.144 0 0 0-1.016-.038 4.671 4.671 0 0 0-.413.102l-.67.18c-.12.033-.241.067-.359.11-.09.033-.247.162-.335.162-.121 0-.023-.105.03-.176a.861.861 0 0 1 .43-.311c.275-.114.563-.193.858-.236Z" fill="#514E7F"/><path d="M26.44 95.347c.16.51.322 1.02.517 1.516.357.862.808 1.682 1.342 2.445.344.503.714.988 1.108 1.452.494.582 1.046 1.168 1.22 1.912.102.429.068.879.11 1.317.042.439.185.905.54 1.168.27.167.575.267.89.294.223.035.502.046.618-.147a.55.55 0 0 0 .061-.255l.054-.645c.013-.139.06-.323.2-.323.138 0 .21.179.322.262a.358.358 0 0 0 .277.024.364.364 0 0 0 .207-.186.817.817 0 0 0 .013-.564 2.682 2.682 0 0 0-1.373-1.707 4.137 4.137 0 0 1-.67-.35 2.25 2.25 0 0 1-.528-.664c-1.221-2.008-2.447-4.033-3.307-6.212a4.595 4.595 0 0 1-.34-1.224c-.018-.43 0-.862.053-1.29a7.383 7.383 0 0 0-.208-2.307 1.812 1.812 0 0 0-.22-.56c-.354-.538-1.188-.617-1.714-.246a1.764 1.764 0 0 0-.68 1.245c-.04.434.212.887.34 1.29.39 1.253.778 2.505 1.168 3.755Z" fill="#A1616A"/><path d="M33.793 84.116c.02-.205-.161-.39-.373-.521a5.2 5.2 0 0 1-.632-.387c-.187-.161-.288-.373-.476-.534a2.098 2.098 0 0 0-.71-.353 5.386 5.386 0 0 0-1.696-.305 2.987 2.987 0 0 0-1.624.429.967.967 0 0 0-.276.257 1.13 1.13 0 0 0-.134.407 8.061 8.061 0 0 1-.424 1.29c-.183.466-.378.946-.807 1.304-.46.384-1.164.605-1.468 1.068a.346.346 0 0 0-.066.298c.044.117.184.195.312.27.746.429 1.39.984 1.722 1.648a1.911 1.911 0 0 1-.151 2.057c-.173.225-.412.493-.242.72.256.346 1.142.15 1.345.514a.73.73 0 0 1 .027.377c0 .382.37.724.818.9.474.16.97.243 1.471.242.135-.3.149-.641.037-.952a.38.38 0 0 1-.037-.216.52.52 0 0 1 .161-.208c.54-.51.426-1.26.102-1.864-.324-.605-.828-1.16-1.015-1.797-.093-.323-.095-.673.162-.936.144-.126.299-.24.463-.338.29-.199.515-.48.645-.807.15-.42.127-.924.57-1.202.441-.277 1.014-.187 1.48-.366.376-.15.787-.697.816-.995Z" fill="#464353"/><path d="M47.586 87.668a2.682 2.682 0 1 0 0-5.365 2.682 2.682 0 0 0 0 5.365Z" fill="#FBBEBE"/><path d="M50 84.873a3.476 3.476 0 0 0 2.226 1.556l-.202.732c-.348 1.262-.742 2.597-1.716 3.471a1.622 1.622 0 0 0-.272-1.255 4.752 4.752 0 0 0-.91-.951l-1.544-1.344a.42.42 0 0 1-.116-.129.393.393 0 0 1 0-.293c.197-.613.758-.995 1.213-1.408.23-.214.434-.453.611-.712.317-.435.515.005.71.332Z" fill="#FBBEBE"/><path d="M50.342 88.342c.015.2-.012.402-.079.592a.416.416 0 0 1-.484.248c.057-.127-.092-.272-.23-.256a.435.435 0 0 0-.307.26.968.968 0 0 0-.089.6c.044.254.19.498.152.753-.03.211-.187.422-.103.62.053.09.12.171.2.24a.677.677 0 0 1-.073.929l2.097.04c-.077.35.08.708.26 1.018a6.409 6.409 0 0 0 4.777 3.12.415.415 0 0 0-.1.635c.171.17.458.148.671.038.202-.13.395-.273.576-.43a1.76 1.76 0 0 1 1.18-.323c.264.024.517.108.78.123.774.042 1.44-.516 2.18-.744.544-.161 1.159-.161 1.614-.506.196-.145.358-.384.3-.623a1.013 1.013 0 0 0-.226-.364c-.263-.34-.416-.749-.605-1.13a6.74 6.74 0 0 0-1.511-2.022 13.347 13.347 0 0 0-1.497-1.137 2.534 2.534 0 0 0-.407-.244 4.166 4.166 0 0 1-.555-.226c-.246-.161-.387-.427-.575-.645-.415-.484-1.052-.705-1.563-1.085-.342-.255-.646-.59-1.054-.715-.198-.06-.411-.064-.61-.124-.451-.137-.78-.539-1.224-.7-.35-.13-.737-.095-1.108-.142a2.581 2.581 0 0 1-1.139-.43 1.366 1.366 0 0 0-.367-.217c-.56-.161-.605.874-.658 1.236-.084.527-.223 1.067-.223 1.611Z" fill="#3F3D56"/><path d="M50.889 91.844c.093 1.018-.676 2.005-.452 3.003.049.213.139.415.173.63.093.591-.26 1.15-.597 1.646l-2.903 4.249a2.587 2.587 0 0 1-.413.511c-.555.492-1.384.44-2.112.589a3.615 3.615 0 0 0-1.414.625.093.093 0 0 0-.034.06.091.091 0 0 0 .016.066 1.208 1.208 0 0 0 1.052.494c.076.1 0 .248-.105.322-.161.108-.37.137-.4.4a.451.451 0 0 0 .051.267c.118.178.3.304.509.351 1.001.307 2.084-.232 2.834-.968.75-.735 1.29-1.656 2.025-2.403.409-.413.871-.766 1.29-1.166.838-.807 1.49-1.774 2.119-2.742a3.05 3.05 0 0 0 .458-.934c.077-.33.042-.682.132-1.01.116-.43.43-.774.694-1.129.514-.708.856-1.573.788-2.445-.068-.873-.608-1.73-1.429-2.028a1.279 1.279 0 0 0-.806-.048c-.337.103-.586.382-.816.645l-.55.636a1.51 1.51 0 0 0-.323.484.508.508 0 0 0 .113.54" fill="#FBBEBE"/><path d="M52.353 87.661c-.38.023-.806.06-1.069.323a1.494 1.494 0 0 0-.268.422c-.261.531-.516 1.088-.534 1.68-.016.472.121.935.194 1.403.06.389-.092.785-.121 1.179a8.05 8.05 0 0 0 1.523-.586c.281-.183.58-.338.892-.462.453-.152 1.217.108 1.647.322.024-.303-.204-.83-.18-1.129.003-.128.026-.255.068-.376.064-.128.14-.25.228-.363a1.486 1.486 0 0 0-.134-1.743c-.383-.43-.983-.592-1.555-.66a6.795 6.795 0 0 0-1.087-.037" fill="#3F3D56"/><path d="m44.051 82.288-.06-.504c.423.108.825-.25 1.096-.623.271-.373.521-.806.932-.968.502-.188 1.033.113 1.512.362a4.733 4.733 0 0 0 1.734.574c.097.004.193.02.287.047.311.11.46.501.505.856.045.355.032.732.185 1.049.118.238.323.417.439.645.322.634.011 1.501.358 2.124l-.86-.787c-.079-.073-.19-.149-.276-.087-.085.061-.074.161-.103.237a.45.45 0 0 1-.611.222 1.676 1.676 0 0 1-.547-.5 3.341 3.341 0 0 0-1.364-1.034 1.744 1.744 0 0 0-1.444.086c-.402.227-.695.755-1.187.773-.675.025-.955-1.23-1.266-1.725a.612.612 0 0 0 .177-.761c.047-.016.484-.063.493.014Z" fill="#464353"/><path d="M104.734 50.368a2.95 2.95 0 0 1-.842.23c.306-.182.535-.468.646-.806-.289.171-.604.292-.933.357a1.461 1.461 0 0 0-2.284.175 1.46 1.46 0 0 0-.253.826c-.001.113.012.226.037.336a4.155 4.155 0 0 1-3.022-1.536 1.472 1.472 0 0 0 .454 1.962 1.429 1.429 0 0 1-.666-.184v.017a1.469 1.469 0 0 0 1.178 1.44 1.427 1.427 0 0 1-.663.024 1.473 1.473 0 0 0 1.37 1.02 2.942 2.942 0 0 1-2.172.608 4.107 4.107 0 0 0 2.245.663c2.702 0 4.178-2.237 4.178-4.179v-.188c.286-.21.532-.469.727-.765ZM99.404 81.948l.484 1.215 3.159 3.35 1.058-.997.667.705.704-.666.041-1.37.88-.832.071-2.398-2.827-2.997-4.237 3.99Zm6.371-.67-.041 1.37-1.058.997-.04 1.371-.664-.705-.883.832-2.834-2.998 3.35-3.16 2.17 2.292Z" fill="#00BAFC"/><path d="m103.202 80.677.529-.498 1.342 1.42-.529.498-1.342-1.42Zm-1.234 1.165.529-.5 1.341 1.422-.529.499-1.341-1.421ZM40.934 101.13h-5.175a.324.324 0 0 0-.322.322v5.176a.32.32 0 0 0 .323.323h2.58v-2.305h-.695v-.849h.708v-.627c0-.75.52-1.16 1.192-1.16.322 0 .668.024.747.036v.784h-.534c-.365 0-.436.172-.436.427v.54h.87l-.113.849h-.758v2.303h1.613a.324.324 0 0 0 .322-.322v-5.175a.324.324 0 0 0-.322-.322ZM86.174 64.193a1.214 1.214 0 0 1 1.211 1.211v2.42a1.215 1.215 0 0 1-1.211 1.21h-2.42a1.217 1.217 0 0 1-1.212-1.21v-2.42a1.214 1.214 0 0 1 1.213-1.211h2.419Zm0-.484h-2.42a1.701 1.701 0 0 0-1.696 1.697v2.42a1.701 1.701 0 0 0 1.697 1.696h2.419a1.702 1.702 0 0 0 1.697-1.69v-2.42a1.704 1.704 0 0 0-1.697-1.703Z" fill="#00BAFC"/><path d="M86.537 65.407a.364.364 0 1 1-.003-.728.364.364 0 0 1 .003.728Zm-1.57.237a.968.968 0 1 1 0 1.937.968.968 0 0 1 0-1.937Zm0-.484a1.452 1.452 0 1 0 0 2.904 1.452 1.452 0 0 0 0-2.903ZM161.049 91.11c0-.68-.501-1.23-1.129-1.23a53.53 53.53 0 0 0-2.569-.054h-.273c-.872 0-1.73.014-2.569.055-.618 0-1.12.55-1.12 1.232a24.824 24.824 0 0 0-.001 3.226c0 .682.502 1.236 1.119 1.236.881.04 1.786.058 2.705.058.92 0 1.823-.016 2.707-.058.619 0 1.129-.554 1.129-1.236.035-.54.053-1.08.051-1.621a24.679 24.679 0 0 0-.05-1.613v.005Zm-4.569 3.108V91.24l2.197 1.488-2.197 1.49ZM80.935 34.03a3.388 3.388 0 0 0-1.361 6.502 3.023 3.023 0 0 1 .058-.779l.437-1.85a1.29 1.29 0 0 1-.11-.535c0-.504.292-.88.655-.88.31 0 .458.233.458.51 0 .31-.198.774-.3 1.203a.524.524 0 0 0 .536.654c.645 0 1.076-.826 1.076-1.805 0-.744-.502-1.299-1.412-1.299a1.613 1.613 0 0 0-1.67 1.625c-.011.242.069.48.223.666a.161.161 0 0 1 .049.188c-.016.063-.053.213-.07.273a.117.117 0 0 1-.17.086c-.475-.194-.696-.713-.696-1.29 0-.969.807-2.12 2.42-2.12 1.29 0 2.148.937 2.148 1.943 0 1.331-.74 2.326-1.832 2.326a.968.968 0 0 1-.828-.422s-.198.78-.24.932a2.797 2.797 0 0 1-.34.727 3.397 3.397 0 1 0 .97-6.655Z" fill="#00BAFC"/><path d="M116.457 127.989c-.13-.554-.209-1.038-.209-1.038a2.144 2.144 0 0 0-.241-1.053v-1.264c.077-.202.171-.397.281-.583.2-.348 0-1.629 0-1.629s-.742-1.805-.563-2.95c.179-1.145-1.522-5.085-1.522-5.085.01-.382.064-.761.161-1.13a.844.844 0 0 0 .021-.264v.01c-.026-.755-.623-2.171-.623-2.171l.081-2.697s.381-1.592-.24-3.728a19.777 19.777 0 0 1-.446-1.802l-.027-.15c1.279-.195 2.258-.358 2.258-.358s-.742-3.105-1.244-3.648c-.501-.544-.901-2.25-.901-2.25s-.261-2.194.161-2.834c.423-.64.484-1.747.484-1.747s.968-.698 1.082-1.01c.171-.442.28-.905.323-1.377 0-.37-.121-.699-.081-.894.041-.195-.28-.93-.119-1.28a.948.948 0 0 0 .063-.347c0-.306-.028-.611-.086-.912a2.577 2.577 0 0 0-.951-.51l-.021-.082-.055-.217a.731.731 0 0 0-.095-.057v-.403l.15-.71c.296-1.23-1.349-1.414-1.349-1.414a.864.864 0 0 0-.466-.41c-.322-.116-.055 1.855.1 1.98.116.094.484.714.645 1.017l.029.05a.684.684 0 0 0-.075.079l.062.427.01.067a1.763 1.763 0 0 0-.263.446s.302.33.241.7c-.024.288.01.579.1.854-.018-.021-.23-.25-.441-.194-.211.056-.806.232-.806.232s-.442.078-.402.174c.04.097-.3.525-.3.525l-1.185-1.13a2.055 2.055 0 0 1-.036-.101 2.848 2.848 0 0 1-.102-.484 2.64 2.64 0 0 0 .378-.12.81.81 0 0 0 .322-.21c.1-.155.165-.33.191-.512.093-.345.295-.653.44-.98.24-.55.319-1.157.229-1.75a1.163 1.163 0 0 0-.18-.517c-.194-.266-.546-.374-.807-.587-.261-.213-.419-.535-.718-.695a1.413 1.413 0 0 0-.9-.078 4.81 4.81 0 0 0-1.679.61c-.174.103-.363.221-.563.186a.765.765 0 0 1-.405-.297v-.018l-.014-.014a2.118 2.118 0 0 0-.184.887v.19a.293.293 0 0 1 0 .042.27.27 0 0 1-.01.063.459.459 0 0 1-.109.161.679.679 0 0 0-.097.132c0-.016.01-.032.016-.048a.7.7 0 0 0-.124.373.37.37 0 0 0 .09.267c.059.06.123.114.192.162a2.257 2.257 0 0 0 .268 1.518c.195.343.476.63.814.832l.041.102c.171.407.245.849.214 1.29 0 .032 0 .063-.014.095l-.042.048s-1.958.02-2.42-.398c-.461-.418-1.163 1.02-1.163 1.02s-.701.136-.842 0c-.14-.138-.967-.02-.967-.02a1.777 1.777 0 0 0-1.223-.445 3.603 3.603 0 0 0-.898-.5l-.023-.008a1.004 1.004 0 0 0-.442-.055s-.968-.797-1.242-1.223c-.274-.425-1.613-2.011-1.624-2.02v-.075l-.016-.23a.9.9 0 0 1-.12.01c0-.023-.016-.05-.027-.08a4.363 4.363 0 0 0-.284-.645s0-.29.085-.363c.086-.073-.035-1.14-.035-1.14s-.868-2.028-1.644-.515c0 0-1.469.98-.237 2.121 0 0 .484.237.562.426.046.122.213.466.322.694l.05.101-.014.011.019.19v.075c-.232.13-.389.261-.352.361.07.168.117.344.14.524 0 0 1.706 2.134 1.927 3.047 0 0 4.571 2.717 6.074 2.912l-.26 1.358c-.039.367-.059.737-.059 1.106.019.29-.181 1.613-.181 1.613s-.261 1.936-.484 2.212c-.222.276-.181 1.437-.181 1.437a9.612 9.612 0 0 1-.3 1.648c-.221.739-.059 1.65-.059 1.65s-.763 1.747 1.063.563c0 0 .895-.055 1.935-.09v.531c-.013 1-.019 2.379.026 3.422.081 1.844.645 5.484.645 5.484v1.833a2.558 2.558 0 0 0-.051.524 3.389 3.389 0 0 0 .493 1.835l.141 1.223s.322.807.335 1.29a.656.656 0 0 1-.014.117.835.835 0 0 0-.017.187c-.017.555.323 1.884.323 1.884s.021 1.338.221 1.416c.171.066-.229.772-.348.968a.274.274 0 0 1-.009-.039.41.41 0 0 1-.024.04.957.957 0 0 0-.063.339.487.487 0 0 0 .223.471c.381.234.585.427.263.505a3.253 3.253 0 0 0-.353.074c0-.015-.013-.031-.018-.045a.214.214 0 0 0-.126.224.995.995 0 0 0 .121.453c.141.35.323.683.542.991l.161-.018a.728.728 0 0 1-.09.161.622.622 0 0 1-.226.2.722.722 0 0 1-.274.095.76.76 0 0 0-.568.276c-.2.258-.322.611.07.921l1.433.494s2.467.322 2.336-.233c-.131-.554-.21-1.037-.21-1.037a2.188 2.188 0 0 0-.201-.982 1.012 1.012 0 0 0-.087-.145l.087-.01s.18-1.222.421-1.451c.056-.054.069-.096.055-.128.025-.066-.038-.105-.118-.127l-.018.048a1.267 1.267 0 0 0-.239-.026s-.08-.645.179-.874a.242.242 0 0 0 .052-.19 1.154 1.154 0 0 0-.027-.262l-.01.017a9.285 9.285 0 0 0-.576-1.505s-.019-.583.14-.817c.16-.233-.019-3.163-.019-3.163s.06-1.416-.121-2.075c-.181-.66.221-1.438.221-1.438V114.448l-.024-.224v.014a25.564 25.564 0 0 0-.173-1.368c-.08-.446.02-2.58.02-2.58l.361-.912.645 1.571.681 2.097c.194.26.314.568.347.89v.067a.818.818 0 0 0 0 .14c-.012.265.061.526.208.747 0 0 .18.99.461 1.242.281.251.281.737.281.737s.34 1.437.501 1.689c.136.213.142.796.141.967v.054s.046.513.045.945v.161-.011a1.57 1.57 0 0 1-.042.348v.021-.072a3.544 3.544 0 0 0-.103.895c-.01.516.069 1.129.382 1.485.542.621.882.544.882.544s-.261.776-.582.932a.24.24 0 0 0-.034.021c0-.014 0-.03-.008-.045a.388.388 0 0 0-.094.29c.015.415.153.815.397 1.15a.639.639 0 0 0 .271.162l-.05.03c-.036.02-.073.038-.111.054a.53.53 0 0 1-.161.041.777.777 0 0 0-.568.276c-.2.258-.323.612.069.921l1.434.494s2.436.329 2.311-.232Z" fill="url(#b)"/><path d="m107.038 128.905-1.389-.494c-.382-.309-.26-.663-.066-.921a.733.733 0 0 1 .548-.276.664.664 0 0 0 .266-.095.63.63 0 0 0 .22-.2 1.02 1.02 0 0 0 .161-.537s1.524-.445 1.936 0c.074.081.137.172.185.271.137.309.203.645.194.982 0 0 .077.484.203 1.038.126.553-2.258.232-2.258.232ZM113.83 128.227l-1.387-.493c-.384-.31-.262-.663-.068-.92a.736.736 0 0 1 .55-.277.498.498 0 0 0 .161-.042.819.819 0 0 0 .107-.053c.389-.213.379-.737.379-.737s1.522-.447 1.935 0c.056.06.105.127.146.198.163.327.244.689.233 1.055 0 0 .078.484.204 1.037.126.553-2.26.232-2.26.232Z" fill="#2D293D"/><path opacity=".1" d="M108.715 126.382c.075.081.137.172.186.271l-2.284.265c.103-.161.158-.347.161-.538 0 0 1.521-.443 1.937.002ZM115.654 125.897v.427c-.355.586-2.072.458-2.571.161a.886.886 0 0 0 .107-.053c.388-.213.379-.737.379-.737s1.522-.447 1.935 0c.058.061.108.129.15.202Z" fill="#000"/><path d="M115.927 124.053a3.904 3.904 0 0 0-.273.582v1.534c-.387.645-2.406.428-2.677.078-.271-.35-.563-1.262-.253-1.417.309-.154.562-.932.562-.932s-.322.078-.853-.543c-.53-.621-.368-1.999-.271-2.33.097-.33 0-1.435 0-1.435s.02-.776-.135-1.029c-.155-.253-.484-1.689-.484-1.689s0-.484-.271-.737-.447-1.242-.447-1.242a1.276 1.276 0 0 1-.194-.834c.059-.484-.33-1.01-.33-1.01l-.66-2.096-.621-1.573-.348.911s-.099 2.136-.02 2.581c.079.445.194 1.629.194 1.629s-.389.777-.213 1.437c.176.66.116 2.076.116 2.076s.174 2.931.02 3.165c-.155.234-.136.806-.136.806s.795 1.708.542 1.936c-.253.227-.174.874-.174.874s.543 0 .311.232c-.232.233-.408 1.452-.408 1.452l-2.35.297a4.98 4.98 0 0 1-.526-.991c-.31-.717.058-.645.371-.717.313-.073.115-.271-.255-.505-.369-.234-.161-.757-.161-.757s.563-.951.369-1.029c-.193-.077-.214-1.416-.214-1.416s-.387-1.592-.291-2.018c.097-.426-.311-1.452-.311-1.452l-.135-1.222a3.361 3.361 0 0 1-.42-2.313v-1.889s-.543-3.648-.622-5.484c-.049-1.181-.036-2.792-.02-3.799.01-.562.02-.937.02-.937l8.387-.872c.014.419.065.835.153 1.245.086.46.22 1.056.429 1.802.602 2.134.234 3.726.234 3.726l-.077 2.696s.737 1.805.582 2.42c-.096.369-.15.748-.161 1.129 0 0 1.65 3.94 1.476 5.086-.175 1.145.545 2.942.545 2.942s.193 1.29 0 1.632Z" fill="#464353"/><path opacity=".05" d="m111.133 113.943 2.545-.34s-1.438 1.474-2.545.34Z" fill="#000"/><path opacity=".1" d="M113.315 111.109s.089.902-.464 1.242c0 0 .989-.155.464-1.242ZM113.159 108.236s-2.132 1.757-2.903 1.613c-.771-.143 2.903-1.613 2.903-1.613ZM107.968 114.767s-1.613.37-1.667 1.02c-.055.65 1.667-1.02 1.667-1.02Z" fill="#000"/><path opacity=".05" d="M108.325 122.859s-2.289.428-1.639.72c.558.22 1.132.395 1.718.522 0 0 .737.039-.079-1.242Z" fill="#000"/><g opacity=".05" fill="#000"><path opacity=".05" d="M106.223 124.034a.44.44 0 0 1-.209-.333l-.023.042s-.215.523.161.757c.042.026.083.053.12.079.067-.013.142-.023.211-.04.306-.071.11-.267-.26-.505ZM109.173 123.885c.063-.058.06-.208.023-.4a1.085 1.085 0 0 0-.131.563.435.435 0 0 1 .108-.163ZM108.82 114.23c-.086.229-.14.469-.161.713.044-.166.103-.328.177-.484 0 0 .003-.093-.016-.229ZM114.064 113.211a.956.956 0 0 0 .021-.213c-.029.145-.049.28-.063.398.013-.061.026-.122.042-.185ZM108.765 121.13c.045-.139.065-.284.058-.43-.072.172-.11.356-.111.543a.553.553 0 0 1 .053-.113ZM109.246 124.789c-.12.389-.209.788-.266 1.191l-2.347.273a4.894 4.894 0 0 1-.526-.99 1.774 1.774 0 0 1-.066-.171c-.14.064-.197.209-.011.645.136.349.312.681.525.989l2.346-.273s.175-1.223.408-1.452c.114-.124.042-.182-.063-.212ZM106.146 121.303s.019 1.34.213 1.418c.098-.221.161-.431.075-.466-.193-.078-.212-1.417-.212-1.417s-.389-1.592-.291-2.019c.099-.427-.311-1.452-.311-1.452l-.136-1.222a3.371 3.371 0 0 1-.427-2.31v-1.886s-.544-3.648-.621-5.492c-.05-1.18-.035-2.792-.019-3.798v-.484h-.066s-.01.372-.02.937c-.016 1.005-.03 2.618.02 3.798.077 1.844.621 5.493.621 5.493v1.882a3.352 3.352 0 0 0 .437 2.329l.135 1.223s.408 1.027.31 1.451c-.099.425.292 2.015.292 2.015ZM113.054 125.729a2.256 2.256 0 0 1-.371-.923c-.24.216.036 1.057.294 1.389.258.332 2.29.563 2.679-.079v-.369c-.526.521-2.344.313-2.602-.018ZM116.004 123.535a3.905 3.905 0 0 0-.271.583v.272c.044-.1.107-.232.194-.389.062-.153.091-.318.085-.483l-.008.017ZM113.173 123.842c.075-.15.139-.304.192-.462 0 0-.322.078-.854-.543-.381-.452-.402-1.305-.349-1.863-.097.331-.253 1.708.271 2.329.344.408.6.513.74.539ZM112.162 119.538c.034.383.047.767.039 1.15.013-.075.027-.137.039-.18.098-.323 0-1.436 0-1.436s.019-.777-.136-1.029c-.155-.252-.484-1.689-.484-1.689s0-.484-.271-.737-.447-1.242-.447-1.242a1.277 1.277 0 0 1-.195-.834c.06-.484-.322-1.009-.322-1.009l-.66-2.097-.629-1.563-.35.911s0 .115-.011.295l.283-.74.621 1.571.66 2.097s.387.524.323 1.008c-.029.29.042.582.201.826 0 0 .175.989.446 1.242s.272.737.272.737.323 1.435.484 1.689c.161.253.137 1.03.137 1.03Z"/></g><path d="m113.791 83.83-.145.71.008.323v.232l-.806.084-.091-.161c-.161-.303-.516-.921-.629-1.017-.15-.125-.416-2.096-.097-1.979.196.076.357.221.452.408 0 0 1.595.168 1.308 1.4Z" fill="#FFCDD3"/><path opacity=".1" d="m113.661 85.087-.807.084-.09-.161a.712.712 0 0 1 .893-.147l.004.224Z" fill="#000"/><path d="m113.864 85.47-1.066.25-.023-.162-.061-.427a.726.726 0 0 1 .487-.287.735.735 0 0 1 .547.145l.053.217.063.265Z" fill="#DCE6F2"/><path d="m96.567 83.908-1.14.613-.103-.216c-.11-.228-.27-.57-.322-.692-.068-.189-.544-.428-.544-.428-1.193-1.14.228-2.119.228-2.119.753-1.515 1.592.513 1.592.513s.116 1.07.034 1.14c-.083.071-.083.365-.083.365.11.207.201.423.276.645.044.113.062.179.062.179Z" fill="#FFCDD3"/><path opacity=".1" d="m96.566 83.908-1.138.613-.104-.216c.162-.134.731-.597.918-.576.09.01.181.01.271 0 .036.113.053.179.053.179Z" fill="#000"/><path d="m96.683 84.253-1.281.63-.026-.275-.018-.189s.742-.637.968-.613c.111.016.224.016.336 0l.014.231.007.216Z" fill="#DCE6F2"/><path d="M110.686 88.537s-5.585.63-4.542.292c.728-.237 1.016-.698 1.078-1.211a2.95 2.95 0 0 0-.208-1.29 5.66 5.66 0 0 0-.5-1.01s4.269-2.349 3.416-.213a3.329 3.329 0 0 0-.242 1.011c-.026.345.01.691.108 1.023.162.54.47 1.023.89 1.398Z" fill="#FFCDD3"/><path opacity=".1" d="M109.93 85.103a3.328 3.328 0 0 0-.242 1.012c-.403.337-.844.322-1.41.322-.435 0-.918.106-1.264-.103-.133-.353-.3-.69-.5-1.01 0 0 4.269-2.356 3.416-.22Z" fill="#000"/><path d="M108.202 86.579a2.31 2.31 0 1 0 0-4.62 2.31 2.31 0 0 0 0 4.62Z" fill="#FFCDD3"/><path opacity=".1" d="M110.686 88.537s-5.585.63-4.542.292c.728-.237 1.016-.698 1.078-1.211.277-.302.835-.52 1.195-.634.327-.11.681-.116 1.011-.016.13.035.254.09.368.161.16.543.469 1.03.89 1.408ZM113.864 85.47l-1.066.25-.023-.162a.945.945 0 0 1 1.026-.352l.063.265ZM96.683 84.253l-1.281.63-.026-.275a9.426 9.426 0 0 1 1.29-.571l.017.216ZM112.896 102.612c-2.163.34-5.242.785-5.731.637-.405-.124-1.698-.111-2.826-.073.01-.563.02-.937.02-.937l8.387-.872c.012.418.063.835.15 1.245Z" fill="#000"/><path d="M115.053 102.097s-7.123 1.223-7.888.989c-.764-.234-4.689.021-4.689.021-1.766 1.182-1.027-.563-1.027-.563s-.161-.913.058-1.65a10.14 10.14 0 0 0 .29-1.65s-.038-1.165.174-1.436c.213-.27.467-2.213.467-2.213s.195-1.319.175-1.612c-.019-.294.058-1.105.058-1.105l.252-1.36c-1.452-.194-5.88-2.912-5.88-2.912-.214-.91-1.864-3.046-1.864-3.046a2.246 2.246 0 0 0-.135-.525c-.116-.31 1.63-.93 1.63-.93s1.3 1.592 1.572 2.018c.27.425 1.203 1.222 1.203 1.222a.94.94 0 0 1 .427.057h.023c.312.123.604.29.868.498.437-.01.862.15 1.183.447 0 0 .797-.116.933.02.135.135.806 0 .806 0s.681-1.436 1.129-1.02c.449.416 2.341.398 2.341.398.253-.335.866-.576 1.251-.7.328-.11.681-.115 1.012-.016.144.04.279.106.4.194l1.148 1.129s.323-.428.292-.525c-.031-.096.389-.174.389-.174s.563-.174.776-.234c.213-.06.409.175.425.194a2.261 2.261 0 0 1-.096-.853.968.968 0 0 0-.233-.699c.686-1.658 2.22-.255 2.22-.255s.174.912.019 1.262.162 1.087.116 1.28c-.045.194.078.525.078.892a5.306 5.306 0 0 1-.31 1.38c-.118.31-1.048 1.008-1.048 1.008s-.058 1.106-.466 1.746c-.409.64-.162 2.834-.162 2.834s.387 1.709.873 2.259c.485.55 1.21 3.63 1.21 3.63Z" fill="#3F3D56"/><path opacity=".1" d="M104.67 89.334s-.213-.645-.408-.7a4.6 4.6 0 0 1-.563-.252l.126-.238s.729.2.845.412c.116.213 0 .778 0 .778ZM100.775 87.916c-.039.195-1.765.37-1.765.37l.873-.876.022.008c.313.123.606.29.87.498Z" fill="#000"/><path d="M95.771 85.408a.155.155 0 1 0 0-.31.155.155 0 0 0 0 .31ZM95.97 85.72a.155.155 0 1 0 0-.31.155.155 0 0 0 0 .31ZM96.165 86.005a.155.155 0 1 0 0-.31.155.155 0 0 0 0 .31ZM96.368 86.316a.155.155 0 1 0 0-.31.155.155 0 0 0 0 .31ZM114.662 86.27a.126.126 0 1 0 0-.252.126.126 0 0 0-.126.126c0 .069.057.125.126.125ZM114.682 86.556a.125.125 0 0 0 .125-.125.125.125 0 1 0-.251 0c0 .07.056.126.126.126ZM114.698 86.842a.126.126 0 0 0 .126-.126.126.126 0 1 0-.126.126Z" fill="#575988"/><path opacity=".1" d="M104.68 94.592c-.018-.022 4.355 5.502 7.753 2.31 0 0-5.368.727-7.753-2.31ZM102.167 97.465s2.617.07 2.892.824v.784a.503.503 0 0 1-.484 0c-.265-.142-1.847-.947-2.405-.56l-.003-1.048Z" fill="#000"/><path d="M102.215 97.465s2.503.068 2.766.785V99a.48.48 0 0 1-.466 0c-.253-.137-1.774-.903-2.3-.534v-1Z" fill="#3F3D56"/><path opacity=".1" d="M103.596 91.774a8.434 8.434 0 0 0 1.014 1.74c.443.596.98 1.115 1.591 1.536 0 0-2.562-2.91-2.605-3.276ZM102.739 88.739s.437 1.885 1.562 2.526l-1.562-2.526ZM102.065 88.93c-.011-.036-.389 1.49 1.452 2.335 0 0-.778-.265-1.452-2.336ZM113.501 87.665c-.029 0 .906.596 1.161.872 0 0-.608-.911-1.161-.872Z" fill="#000"/><path d="M107.578 86.361a.493.493 0 0 0 .179.313.506.506 0 0 0 .218.049c.705.043 1.437.074 2.097-.197a.78.78 0 0 0 .322-.212c.093-.155.152-.328.171-.508.092-.345.287-.645.428-.98a3.299 3.299 0 0 0 .227-1.762 1.175 1.175 0 0 0-.176-.516c-.187-.266-.527-.374-.774-.587-.247-.213-.406-.537-.693-.697a1.35 1.35 0 0 0-.871-.077 4.6 4.6 0 0 0-1.626.611c-.162.103-.352.221-.544.186a.747.747 0 0 1-.4-.307c-.137.316-.196.661-.172 1.005a.55.55 0 0 1 0 .152.484.484 0 0 1-.109.161c-.174.202-.282.521-.111.724.076.089.19.137.263.228.131.161.086.395.082.603a.323.323 0 0 0 .052.205.302.302 0 0 0 .285.068.788.788 0 0 1 .304-.03.512.512 0 0 1 .264.204c.32.413.447.866.584 1.364Z" fill="#2D293D"/><path opacity=".1" d="M110.452 86.137a.76.76 0 0 1-.322.21c-.645.272-1.384.24-2.087.197a.475.475 0 0 1-.218-.049.484.484 0 0 1-.181-.311c-.137-.499-.263-.953-.589-1.366a.499.499 0 0 0-.264-.204.78.78 0 0 0-.303.03.302.302 0 0 1-.286-.068.315.315 0 0 1-.05-.205c0-.208.047-.442-.084-.603-.072-.09-.187-.14-.263-.228a.453.453 0 0 1-.043-.464c-.124.196-.178.448-.034.619.076.089.19.137.263.228.131.16.085.395.082.603a.323.323 0 0 0 .052.205.3.3 0 0 0 .285.067.783.783 0 0 1 .304-.029.511.511 0 0 1 .264.203c.323.415.452.868.589 1.367a.493.493 0 0 0 .179.313.504.504 0 0 0 .218.048c.704.043 1.437.074 2.096-.197a.786.786 0 0 0 .323-.211.608.608 0 0 0 .1-.187c-.01.011-.016.024-.031.032ZM107.165 87.761s2.886.383 3.145-.051l-3.145.051ZM112.775 86.568s1.602 0 1.955.603l-1.955-.603Z" fill="#000"/></g><defs><linearGradient id="b" x1="105.043" y1="128.998" x2="105.043" y2="80.503" gradientUnits="userSpaceOnUse"><stop stop-color="gray" stop-opacity=".25"/><stop offset=".54" stop-color="gray" stop-opacity=".12"/><stop offset="1" stop-color="gray" stop-opacity=".1"/></linearGradient><clipPath id="a"><path fill="#fff" transform="translate(.573)" d="M0 0h176.855v130H0z"/></clipPath></defs></svg>