<svg width="224" height="130" fill="none" xmlns="http://www.w3.org/2000/svg"><g clip-path="url(#a)"><path d="M13.455 121.797a1.258 1.258 0 0 0-.74.26c-.632-1.668-1.61-2.741-2.708-2.741s-2.075 1.073-2.707 2.741a1.258 1.258 0 0 0-.74-.26c-1.248 0-2.26 2.11-2.26 4.712h11.414c0-2.602-1.012-4.712-2.26-4.712Z" fill="#00BAFC"/><path d="M58.803 126.246H.937v.526h57.866v-.526Z" fill="#3F3D56"/><path d="M219.142 110.743a1.26 1.26 0 0 0-.741.26c-.631-1.668-1.609-2.74-2.707-2.74-1.098 0-2.075 1.072-2.707 2.74a1.255 1.255 0 0 0-.74-.26c-1.248 0-2.259 2.11-2.259 4.712h11.413c0-2.602-1.012-4.712-2.259-4.712Z" fill="#00BAFC"/><path d="M194.585 24.16h-55.102v-1.136h-24.985v1.136H59.17a3.727 3.727 0 0 0-3.727 3.727v75.451a3.727 3.727 0 0 0 3.727 3.727h135.415a3.727 3.727 0 0 0 3.727-3.727v-75.45a3.715 3.715 0 0 0-1.092-2.636 3.727 3.727 0 0 0-2.635-1.092Z" fill="#3F3D56"/><path opacity=".2" d="M193.314 30.746H60.441v74.957h132.873V30.746Z" fill="#000"/><path d="M126.764 28.703a1.363 1.363 0 1 0 0-2.727 1.363 1.363 0 0 0 0 2.727Z" fill="#00BAFC"/><path d="M223.063 114.929H30.265v.526h192.798v-.526Z" fill="#3F3D56"/><path d="M145.032 58.751v-5.545a6.803 6.803 0 0 0-6.805-6.805h-5.545c0-.748-2.406-1.362-5.463-1.42v-6.687a3.803 3.803 0 0 0 3.318-4.008 3.802 3.802 0 0 0-7.585 0 3.8 3.8 0 0 0 3.317 4.008v6.687c-3.056.058-5.462.672-5.462 1.42h-6.496a6.808 6.808 0 0 0-6.286 4.2 6.803 6.803 0 0 0-.518 2.605v5.545c-.787 0-1.425 2.658-1.425 5.938 0 3.279.638 5.937 1.425 5.937v6.496a6.803 6.803 0 0 0 6.804 6.804h23.916a6.8 6.8 0 0 0 6.287-4.2c.342-.826.518-1.71.518-2.604v-6.496c.787 0 1.425-2.658 1.425-5.937 0-3.28-.638-5.938-1.425-5.938Z" fill="#00BAFC"/><path d="M115.674 48.539h21.191a6.027 6.027 0 0 1 6.029 6.029v21.191a6.028 6.028 0 0 1-6.029 6.03h-21.191a6.031 6.031 0 0 1-6.029-6.03V54.568a6.03 6.03 0 0 1 6.029-6.03Z" fill="#3F3D56"/><path d="M118.669 64.332a4.279 4.279 0 0 1-4.275-4.275.24.24 0 0 1 .238-.237.238.238 0 0 1 .237.237 3.803 3.803 0 0 0 3.8 3.8 3.799 3.799 0 0 0 3.8-3.8.236.236 0 1 1 .475 0 4.28 4.28 0 0 1-4.275 4.275ZM126.269 72.407a3.331 3.331 0 0 1-3.325-3.325.236.236 0 1 1 .475 0 2.852 2.852 0 0 0 4.866 2.015c.534-.534.834-1.259.834-2.015a.236.236 0 1 1 .475 0 3.326 3.326 0 0 1-3.325 3.325ZM133.869 64.332a4.279 4.279 0 0 1-4.275-4.275.236.236 0 1 1 .475 0 3.803 3.803 0 0 0 3.8 3.8 3.799 3.799 0 0 0 3.8-3.8.236.236 0 1 1 .475 0 4.28 4.28 0 0 1-4.275 4.275Z" fill="#00BAFC"/><path d="M118.669 62.432a2.138 2.138 0 1 0 0-4.275 2.138 2.138 0 0 0 0 4.275ZM133.869 62.432a2.138 2.138 0 1 0 0-4.275 2.138 2.138 0 0 0 0 4.275ZM126.269 71.22c1.05 0 1.9-.426 1.9-.95 0-.525-.85-.95-1.9-.95-1.049 0-1.9.425-1.9.95 0 .524.851.95 1.9.95Z" fill="#00BAFC"/><path d="M202.043 104.339h-12.968v-.934a.186.186 0 0 0-.185-.185h-4.446a.187.187 0 0 0-.131.054.186.186 0 0 0-.054.131v.934h-2.779v-.934a.195.195 0 0 0-.014-.071.189.189 0 0 0-.172-.114h-4.446a.186.186 0 0 0-.185.185v.934h-2.779v-.934a.186.186 0 0 0-.185-.185h-4.446a.186.186 0 0 0-.185.185v.934h-2.779v-.934a.186.186 0 0 0-.185-.185h-4.446a.187.187 0 0 0-.172.114.195.195 0 0 0-.014.071v.934h-2.779v-.934a.186.186 0 0 0-.185-.185h-4.446a.186.186 0 0 0-.185.185v.934h-2.779v-.934a.186.186 0 0 0-.185-.185h-4.446a.187.187 0 0 0-.131.054.186.186 0 0 0-.055.131v.934h-2.778v-.934a.195.195 0 0 0-.014-.071.189.189 0 0 0-.172-.114H108.49a.187.187 0 0 0-.172.114.195.195 0 0 0-.014.071v.934h-2.778v-.934a.195.195 0 0 0-.014-.071.189.189 0 0 0-.172-.114h-4.446a.186.186 0 0 0-.185.185v.934H97.93v-.934a.19.19 0 0 0-.054-.131.183.183 0 0 0-.131-.054h-4.446a.191.191 0 0 0-.131.054.187.187 0 0 0-.054.131v.934h-2.78v-.934a.187.187 0 0 0-.053-.131.183.183 0 0 0-.132-.054h-4.446a.191.191 0 0 0-.13.054.187.187 0 0 0-.055.131v.934H82.74v-.934a.19.19 0 0 0-.054-.131.183.183 0 0 0-.13-.054h-4.447a.191.191 0 0 0-.131.054.188.188 0 0 0-.054.131v.934h-2.78v-.934a.19.19 0 0 0-.053-.131.184.184 0 0 0-.131-.054h-4.446a.191.191 0 0 0-.131.054.188.188 0 0 0-.055.131v.934H67.55v-.934a.19.19 0 0 0-.055-.131.183.183 0 0 0-.13-.054h-4.447a.19.19 0 0 0-.13.054.188.188 0 0 0-.055.131v.934H54.21a4.436 4.436 0 0 0-3.144 1.303 4.45 4.45 0 0 0-1.302 3.144v2.01a4.447 4.447 0 0 0 4.446 4.446h147.833a4.446 4.446 0 0 0 4.446-4.446v-2.01c0-.584-.115-1.162-.338-1.702a4.458 4.458 0 0 0-2.407-2.406 4.432 4.432 0 0 0-1.701-.339Z" fill="#3F3D56"/><path d="M169.406 83.629h-88.64v.526h88.64v-.526Z" fill="#00BAFC"/><path d="M87.078 83.366h-21.83c.698-8.227.698-16.498 0-24.725h21.83c-1.202 8.468-1.272 16.723 0 24.725Z" fill="#D0CDE1"/><path d="M84.185 63.639H68.403v1.052h15.782v-1.052ZM84.185 67.058H68.403v1.052h15.782v-1.052ZM84.185 70.478H68.403v1.052h15.782v-1.052ZM84.185 73.897H68.403v1.052h15.782v-1.052ZM84.185 77.316H68.403v1.052h15.782v-1.052Z" fill="#3F3D56"/><path d="M29.066.844s-3.43-1.225-5.635 3.675c-2.205 4.9-5.635 10.29-5.635 10.29l1.96.49s.49-3.43 1.715-3.92l-.49 4.41s14.7 5.146 21.316-.49l-.245-1.715s.98.245.98 1.715l.735-.735s-.735-1.47-2.94-3.43C39.379 9.848 38.882 7.4 38.71 5.87a6.37 6.37 0 0 0-1.467-3.47C35.78.703 33.11-1.102 29.066.845Z" fill="#2F2E41"/><path d="m19.174 108.929 1.052 6.05 4.209-.79.789-5.26h-6.05Z" fill="#FFB9B9"/><path d="m25.224 112.348-5.787.526.263 4.735-.263 6.049s-3.42 6.839 1.578 6.313c4.998-.526 4.471-3.156 4.471-3.156l1.316-1.578-.79-3.946-.788-8.943Z" fill="#2F2E41"/><path d="m42.846 108.929-1.052 6.05-4.208-.79-.79-5.26h6.05Z" fill="#FFB9B9"/><path d="m36.797 112.348 5.786.526-.263 4.735.263 6.049s3.42 6.839-1.578 6.313c-4.997-.526-4.471-3.156-4.471-3.156l-1.316-1.578.79-3.946.789-8.943Z" fill="#2F2E41"/><path d="M30.747 17.133a6.05 6.05 0 1 0 0-12.1 6.05 6.05 0 0 0 0 12.1Z" fill="#FFB9B9"/><path d="m26.802 14.24.789 9.468 7.364-.263s-2.104-6.05-.789-8.417l-7.364-.789Z" fill="#FFB9B9"/><path d="m31.01 21.867 3.03-1.89 3.283 1.627 5.26 2.367-1.84 22.358s4.207 13.94 3.418 20.779c-.789 6.838 8.68 41.032 1.053 42.61-7.628 1.578-13.152 3.156-13.415.526-.263-2.63-.789-42.873-.789-42.873s-.789 42.61-3.945 43.136c-3.157.526-16.834 2.63-15.782-.526 1.052-3.156 8.154-58.392 11.573-61.548l.526-2.63-4.471-21.306 8.397-4.185 3.702 1.555Z" fill="#2F2E41"/><path d="m15.228 54.482-.263 10.784s-2.531 10.647 1.76 10.585c4.29-.063 1.134-10.585 1.134-10.585l1.84-10.52-4.47-.264ZM55.002 43.164l7.392 7.857s8.99 6.24 5.752 9.056c-3.238 2.817-7.907-7.126-7.907-7.126l-8.392-6.607L55 43.164Z" fill="#FFB9B9"/><path d="m22.988 47.775 18.014-.552L40.768 46v-.006l-17.412-.315-.368 2.096Z" fill="#D0CDE1"/><path d="M26.67 48.301a1.578 1.578 0 1 0 0-3.156 1.578 1.578 0 0 0 0 3.156ZM21.015 24.76l-1.71-.394s-2.235.92-2.761 3.814c-.527 2.893-7.365 25.513-3.946 26.828 3.42 1.316 8.417 1.842 8.417 1.316S23.12 36.07 23.12 36.07l-2.104-11.31ZM37.103 25.763l5.48-1.792s2.63 0 2.63 2.894c0 1.193 5.041 10.997 5.041 10.997s12.113 8.634 10.259 8.943c-3.157.526-4.998 6.05-4.998 6.05L43.68 42.334l-6.576-16.571ZM23.369 11.534s1.96-2.696 3.675-3.186c1.715-.49 1.96-2.94 1.96-2.94s4.41 4.9 7.105 5.145c2.696.245.245-5.88.245-5.88l-4.9-1.225-4.655.49-3.675 2.45.245 5.146Z" fill="#2F2E41"/><path d="M24.829 11.346c.436 0 .79-.53.79-1.184 0-.653-.354-1.183-.79-1.183-.436 0-.79.53-.79 1.183 0 .654.354 1.184.79 1.184Z" fill="#FFB9B9"/></g><defs><clipPath id="a"><path fill="#fff" transform="translate(.937)" d="M0 0h222.126v130H0z"/></clipPath></defs></svg>