<svg width="204" height="130" fill="none" xmlns="http://www.w3.org/2000/svg"><g clip-path="url(#a)"><path opacity=".5" d="M191.138 111.268c-.366-1.513-1.57-2.652-2.456-3.933a10.651 10.651 0 0 1-.655-10.808c.853-1.621 2.189-3.298 1.705-5.069-.324-1.19-1.4-2.007-2.457-2.646a24.038 24.038 0 0 0-13.331-3.428c-5.739.234-11.46 2.527-17.089 1.391-5.482-1.11-10.126-3.858-15.862-4.184-4.284-.243-8.522.03-12.815-.439a190 190 0 0 0-31.943-.763 189.999 189.999 0 0 0-31.942.763c-4.282.469-8.522.196-12.815.439-5.752.324-10.386 3.076-15.87 4.184-5.631 1.138-11.35-1.157-17.09-1.39a24.039 24.039 0 0 0-13.33 3.427c-1.066.64-2.131 1.455-2.457 2.646-.481 1.769.852 3.445 1.705 5.069a10.653 10.653 0 0 1-.65 10.808c-.887 1.279-2.09 2.42-2.457 3.933-.737 3.043 2.22 5.723 5.113 6.931 7.894 3.3 17.494 1.704 24.715 6.3 3.236 2.062 6.068 5.373 9.903 5.497 2.593.083 4.951-1.357 7.216-2.625a69.24 69.24 0 0 1 10.59-4.809c3.197-1.137 6.582-2.049 9.955-1.672 5.15.569 27.41 11.324 37.444 4.968 6.873-4.357 12.234-4.393 17.396-4.97 3.373-.377 6.756.534 9.954 1.672a69.144 69.144 0 0 1 10.591 4.809c2.263 1.267 4.624 2.708 7.216 2.625 3.835-.124 6.667-3.435 9.903-5.497 7.216-4.598 16.815-3 24.715-6.3 2.878-1.213 5.837-3.884 5.098-6.929Z" fill="url(#b)"/><path d="M190.094 111.206c-.362-1.491-1.553-2.624-2.429-3.89a10.543 10.543 0 0 1-.639-10.689c.852-1.604 2.165-3.262 1.688-5.011-.322-1.178-1.385-1.986-2.429-2.616a23.776 23.776 0 0 0-13.184-3.392c-5.676.23-11.333 2.499-16.902 1.374-5.424-1.095-10.013-3.818-15.696-4.14-4.237-.238-8.437.03-12.672-.426a187.91 187.91 0 0 0-31.592-.754 187.908 187.908 0 0 0-31.592.754c-4.235.465-8.435.194-12.672.426-5.68.32-10.272 3.043-15.696 4.14-5.567 1.125-11.226-1.144-16.902-1.374-4.631-.179-9.214 1-13.184 3.392-1.044.639-2.107 1.438-2.429 2.616-.477 1.75.853 3.409 1.688 5.011a10.545 10.545 0 0 1-.64 10.689c-.877 1.266-2.066 2.393-2.428 3.89-.748 3.009 2.177 5.659 5.034 6.844 7.809 3.262 17.302 1.683 24.438 6.229 3.196 2.039 6.002 5.316 9.8 5.438 2.557.083 4.9-1.343 7.138-2.598a68.444 68.444 0 0 1 10.476-4.757c3.163-1.127 6.508-2.028 9.845-1.655 5.113.57 27.122 11.2 37.037 4.915 6.799-4.308 12.1-4.345 17.205-4.915 3.336-.373 6.683.528 9.845 1.655a68.45 68.45 0 0 1 10.476 4.757c2.239 1.253 4.572 2.679 7.137 2.598 3.793-.122 6.594-3.396 9.801-5.438 7.137-4.546 16.631-2.967 24.437-6.229 2.847-1.185 5.772-3.835 5.041-6.844Z" fill="#00BAFC"/><path opacity=".6" d="M8.047 46.706c.61-.213 1.257-.416 1.894-.305 1.065.186 1.813 1.196 2.13 2.233.318 1.038.307 2.13.51 3.196.202 1.065.686 2.167 1.64 2.676.955.51 2.082.309 3.14.185 1.39-.16 2.791-.173 4.183-.038 1.167.113 2.54.507 2.883 1.63.28.916-.277 1.851-.64 2.736-.694 1.653-.75 3.607.045 5.213.795 1.606 2.405 2.804 3.079 4.5.195.424.252.899.162 1.357-.1.32-.264.618-.482.873-.528.68-1.159 1.279-1.64 1.995-1.004 1.49-1.279 3.345-1.394 5.136a37.452 37.452 0 0 0 .03 5.29c-1.308-.426-2.753-.046-4.101-.325-2.87-.593-4.662-3.989-7.585-4.196-1.383-.098-2.87.554-4.103-.078a3.098 3.098 0 0 1-1.313-1.492 5.292 5.292 0 0 1-.336-3.558c.213-.822.639-1.628.556-2.473-.07-.725-.505-1.364-1.004-1.894-1.421-1.509-3.483-2.431-4.504-4.236a4.826 4.826 0 0 1 .573-5.43c.364-.356.71-.731 1.034-1.124.49-.69.639-1.561.705-2.407.14-2.026-.213-4.172.45-6.14.594-1.782 2.409-2.727 4.088-3.324Z" fill="#00BAFC"/><path opacity=".6" d="M8.077 46.766S13.895 79.08 21.45 82.934" stroke="#535461" stroke-miterlimit="10"/><path opacity=".6" d="M24.265 55.71s-6.232.852-12.458 7.254M12.902 66.718S8.107 62.031.613 62.826M27.009 68.757s-8.753.744-11.993 4.104M16.326 75.99s-4.9-.852-9.423 2.035" stroke="#535461" stroke-miterlimit="10"/><path opacity=".6" d="M188.183 21.323c-.978-.348-2.015-.665-3.036-.488-1.704.298-2.906 1.917-3.409 3.577-.503 1.66-.492 3.43-.816 5.135-.324 1.704-1.099 3.47-2.629 4.288-1.53.819-3.336.495-5.034.299a31.797 31.797 0 0 0-6.699-.07c-1.873.18-4.069.813-4.619 2.611-.449 1.47.443 2.966 1.04 4.383 1.114 2.648 1.204 5.782-.073 8.358-1.297 2.62-3.856 4.495-4.934 7.212-.273.69-.445 1.455-.26 2.173.16.515.423.992.773 1.402.853 1.09 1.858 2.052 2.63 3.196 1.608 2.386 2.045 5.36 2.232 8.232a59.965 59.965 0 0 1-.047 8.478c2.097-.69 4.415-.075 6.575-.52 4.6-.948 7.472-6.392 12.157-6.724 2.216-.156 4.6.886 6.577-.128.963-.494 1.647-1.417 2.105-2.399a8.49 8.49 0 0 0 .51-5.688c-.348-1.32-1.023-2.608-.891-3.965.113-1.162.807-2.186 1.609-3.034 2.277-2.419 5.584-3.897 7.22-6.788 1.534-2.71 1.146-6.377-.918-8.706-.541-.611-1.185-1.135-1.658-1.8-.786-1.106-1.037-2.503-1.131-3.858-.224-3.25.328-6.686-.722-9.842-.959-2.872-3.867-4.39-6.552-5.334Z" fill="#00BAFC"/><path opacity=".6" d="M188.128 21.408s-9.326 51.796-21.438 57.972" stroke="#535461" stroke-miterlimit="10"/><path opacity=".6" d="M162.18 35.744s9.988 1.372 19.967 11.631M180.392 53.39s7.689-7.52 19.697-6.24M157.793 56.658s14.027 1.19 19.222 6.579M174.905 68.252s7.86-1.376 15.106 3.26" stroke="#535461" stroke-miterlimit="10"/><path d="M16.563 0v105.505h154.876V0H16.563Z" fill="url(#c)"/><path d="M169.798 4.787H18.859v98.809h150.939V4.787Z" fill="#fff"/><path d="M169.798.087H18.859v7.27h150.939V.087Z" fill="#EEE"/><path d="M24.603 5.373a1.762 1.762 0 1 0 0-3.524 1.762 1.762 0 0 0 0 3.524Z" fill="#FF5252"/><path d="M29.45 5.373a1.762 1.762 0 1 0 0-3.524 1.762 1.762 0 0 0 0 3.524Z" fill="#FF0"/><path d="M34.297 5.373a1.762 1.762 0 1 0 0-3.524 1.762 1.762 0 0 0 0 3.524Z" fill="#69F0AE"/><path opacity=".5" d="M80.89 19H24.645v2.344H80.89V19ZM80.89 23.688H24.645v2.343H80.89v-2.343ZM80.89 28.375H24.645v2.343H80.89v-2.343ZM80.89 33.062H44.033v2.344H80.89v-2.344ZM54.259 37.75H24.644v2.343h29.615v-2.344ZM63.42 42.436H40.623v2.344H63.42v-2.344ZM154.608 35.406h-66.26v38.136h66.26V35.406Z" fill="#00BAFC"/><path d="M162.491 39.028h-66.26v38.136h66.26V39.028Z" fill="#EEE"/><path opacity=".5" d="M202.328 74.211a1.01 1.01 0 0 0 .213-.615v-.017c0-.005.013-.045.019-.066v-.028a.637.637 0 0 0 0-.062v-.025a.491.491 0 0 0 0-.077c-.126-.852-5.19-6.405-6.456-13.178-.14-.737-.349-1.46-.624-2.158.039-.35.016-.703-.068-1.044-.213-.867-.639-1.747-.426-2.612.03-.113.069-.224.117-.33.266-.39.51-.795.731-1.212.082-.136.154-.279.213-.426.778-2.05-1.63-4.166-1.187-6.305.192-.927.91-1.736.891-2.68-.024-1.08-1.017-1.918-2.048-2.318-1.031-.4-2.166-.516-3.178-.963-2.218-.982-3.433-3.354-5.457-4.672-2.571-1.673-5.927-1.375-9.01-.942a.624.624 0 0 0-.473.35h-.03a2.14 2.14 0 0 1-.081.2c-.426.726-1.144 1.278-1.853 1.787-.865.61-1.792 1.21-2.32 2.114a4.653 4.653 0 0 0-.203.385c-1.15 2.052.232 2.938 1.918 3.43a5.19 5.19 0 0 0-.077.889c0 2.983 2.495 5.418 5.569 5.418.243 0 .486-.016.727-.047l.179.117h.04c.571.411 1.065.927 1.278 1.54l-1.785 1.364s.073.188.179.486l-7.018 3.234c-2.659.124-6.963-8.252-6.963-8.252s-.639-4.802-2.912-5.665c-.686-.26-.959.284-1.006 1.17-1.016 1.065.691 7.048.691 7.048l5.443 9.607c.507.984.639 1.6 3.038 1.97 1.975.303 8.128-1.883 10.27-2.676l.1.852a4.995 4.995 0 0 0-.324 2.04c0 1.57.701 3.854 4.122 5.673 0 0 3.533 4.566 3.141 8.876 0 0 .17.179.443.413-.038 1.215-.213 2.712-.824 3.296a.325.325 0 0 0-.096.303.308.308 0 0 0 .149.33l-4.459 7.808c-.167.214-.335.427-.508.64a22.772 22.772 0 0 1-2.746 2.93c-.743.662-1.517 1.386-1.67 1.657-.237.426-.831 1.8-.58 2.936.326 1.377.459 2.792.397 4.205l-.578 10.101a26.14 26.14 0 0 1-.799 3.335h-.087s-2.152 2.586-5.569 3.195c-3.418.61-3.292 2.344-2.28 2.587 1.012.243 13.292-.247 13.292-.247s.465-.906.337-1.732c3.92-.377 9.351-1.017 9.351-1.017s.744-1.787-.336-2.567a2.522 2.522 0 0 1-.866-1.229 43.779 43.779 0 0 1-.202-.91c-.017-.16-.017-.258-.017-.258h-.036c-.19-.952-.341-1.973-.254-2.507.318-1.417 1.14-9.607-.886-11.946-.92-1.066-.795-2.276-.386-3.286 2.431-1.591 5.832-5.015 7.798-7.086.111.092.213.183.309.275l.064.062s6.692-3.313 6.72-9.162a9.027 9.027 0 0 0-1.061-4.306Zm-21.436 41.256a3.414 3.414 0 0 1 .024-.639l-.213-.023c.123-.929.426-1.969 1.103-2.687a22.817 22.817 0 0 0 2.438-6.749l1.229 4.651s.124.963.158 1.981h-.022s-1.715 2.448-4.717 3.466Z" fill="url(#d)"/><path d="M186.449 55.228s-3.006 1.082-4.687 2.887c0 0-8.18 3.247-10.466 2.887-2.286-.36-2.405-.963-2.887-1.918l-5.173-9.374s-2.164-7.82 0-6.977c2.165.841 2.77 5.539 2.77 5.539s4.091 8.18 6.615 8.06l6.85-3.264s1.564-2.286 2.286-2.165c.723.122 4.692 4.325 4.692 4.325Z" fill="#FDB797"/><path opacity=".05" d="M186.449 55.228s-3.006 1.082-4.687 2.887c0 0-8.18 3.247-10.466 2.887-2.286-.36-2.405-.963-2.887-1.918l-5.173-9.374s-2.164-7.82 0-6.977c2.165.841 2.77 5.539 2.77 5.539s4.091 8.18 6.615 8.06l6.85-3.264s1.564-2.286 2.286-2.165c.723.122 4.692 4.325 4.692 4.325Z" fill="#000"/><path d="m181.51 50.794-2.399 1.884s1.2 3.138.899 4.238c-.3 1.099 4.798-1.726 4.798-1.726l-2.098-4.709-1.2.313Z" fill="#F9CE43"/><path opacity=".05" d="m181.51 50.794-2.399 1.884s1.2 3.138.899 4.238c-.3 1.099 4.798-1.726 4.798-1.726l-2.098-4.709-1.2.313Z" fill="#000"/><path d="M177.368 48.698s5.352 1.745 2.887 4.81l7.698-3.728s-3.247.241-5.292-4.687l-5.293 3.605ZM187.471 80.094l-6.615 11.908 4.453 17.312s.481 3.85-.241 4.21h5.052s-.974-3.408-.723-4.57c.301-1.382 1.083-9.374-.852-11.666-1.934-2.293.963-5.293.963-5.293l5.774-9.142-7.811-2.76Z" fill="#FDB797"/><path opacity=".05" d="m187.471 80.094-6.615 11.908 4.453 17.312s.481 3.85-.241 4.21h5.052s-.902-3.428-.723-4.57c.179-1.142 1.083-9.374-.852-11.666-1.934-2.293.963-5.293.963-5.293l5.774-9.142-7.811-2.76Z" fill="#000"/><path d="M185.437 111.258s-1.833 2.699-5.028 3.555c-3.196.857-2.936 2.527-1.958 2.689.978.162 12.57-1.242 12.57-1.242s.705-1.745-.32-2.508c-1.024-.762-1.031-2.343-1.031-2.343l-4.233-.151Z" fill="#0D134D"/><path opacity=".1" d="M187.834 75.281s.285 3.912-.757 4.939a.32.32 0 0 0-.097.27.313.313 0 0 0 .161.237l3.098 1.65 2.77-5.291-5.175-1.805Z" fill="#000"/><path d="M187.834 75.162s.285 3.911-.757 4.938a.32.32 0 0 0-.097.27.313.313 0 0 0 .161.237l3.098 1.652 2.77-5.293-5.175-1.804Z" fill="#E23553"/><path opacity=".1" d="M187.834 75.375s.285 3.911-.757 4.938a.32.32 0 0 0-.097.27.314.314 0 0 0 .161.237l3.098 1.652 2.77-5.293-5.175-1.804Z" fill="#000"/><path d="M187.953 82.86s-1.788 1.192-5.54 6.103a22.044 22.044 0 0 1-2.609 2.862c-.706.639-1.441 1.355-1.588 1.619-.226.407-.79 1.76-.549 2.868.309 1.346.436 2.728.377 4.107l-.548 9.867s-.722 4.451-1.683 4.932l4.932.852s-.36-3.127 1.083-4.687c0 0 3.368-5.774 2.526-12.27 0 0-.36-2.886 2.887-4.45s9.865-9.143 9.865-9.143l-9.153-2.66Z" fill="#FDB797"/><path d="M176.646 113.533s-2.045 2.527-5.292 3.128c-3.247.6-3.128 2.286-2.165 2.526.963.241 12.63-.24 12.63-.24s.852-1.683-.119-2.527c-.972-.844-.722-2.406-.722-2.406l-4.332-.481Z" fill="#0D134D"/><path opacity=".1" d="M190.961 76.485s-1.468 4.93-3.328 6.366a.238.238 0 0 0-.077.1.236.236 0 0 0 .139.315c1.538.56 6.481 2.448 8.199 4.165l.059.06s10.284-5.232 4.751-14.134l-9.743 3.128Z" fill="#000"/><path d="M190.961 76.365s-1.468 4.93-3.328 6.367a.238.238 0 0 0-.077.1.236.236 0 0 0 .139.315c1.538.56 6.481 2.448 8.199 4.165l.059.06s10.284-5.233 4.751-14.134l-9.743 3.127Z" fill="#E23553"/><path opacity=".1" d="M182.516 51.92c-.764.514-1.6.913-2.48 1.184l.826 7.357s-1.932 4.325 3.595 7.346c0 0 3.355 4.46 2.983 8.67 0 0 1.8 1.93 3.004 1.45 1.203-.48.119.24.36.122.24-.12.72.965 4.45.01 3.731-.954 6.392-3.47 6.266-4.314-.125-.844-4.915-6.268-6.102-12.888-1.186-6.62-8.27-11.328-8.27-11.328s-.235.13-.64.302a28.003 28.003 0 0 0-3.992 2.088Z" fill="#000"/><g opacity=".1" fill="#000"><path opacity=".1" d="M187.54 82.896a.23.23 0 0 0 .155.24c1.325.484 5.177 1.952 7.317 3.448-1.852-1.496-5.791-3.05-7.472-3.688ZM200.704 73.238l-.213.072c4.728 8.265-4.176 13.257-4.953 13.672.134.11.255.213.366.33l.06.06s10.273-5.233 4.74-14.134Z"/></g><path d="M195.291 77.808c-3.729.963-4.21-.12-4.451 0-.241.12.852-.601-.36-.12-1.213.482-3.006-1.444-3.006-1.444.017-.213.025-.411.025-.618.013-4.022-3.042-8.043-3.042-8.043-5.54-3.006-3.609-7.337-3.609-7.337l-.226-1.973-.62-5.382a9.387 9.387 0 0 0 2.475-1.189 28.162 28.162 0 0 1 3.987-2.096c.407-.175.639-.305.639-.305s7.097 4.687 8.309 11.307c1.212 6.62 6.015 12.029 6.134 12.87.119.842-2.527 3.367-6.255 4.33Z" fill="#F9CE43"/><path opacity=".1" d="m182.78 45.21-5.292 3.61a9.007 9.007 0 0 1 2.064 1.029c1.803-.254 2.906-1.545 3.65-3.134-.29-.465-.162-.88-.422-1.505Z" fill="#000"/><path d="M178.691 49.782a5.293 5.293 0 1 0 0-10.585 5.293 5.293 0 0 0 0 10.585Z" fill="#FDB797"/><path opacity=".1" d="M196.132 77.207c-3.728.963-4.21-.12-4.451 0-.24.12.853-.6-.36-.12-1.212.482-3.006-1.444-3.006-1.444a7.63 7.63 0 0 0 .026-.618c.015-4.016-3.034-8.043-3.034-8.043-5.54-3.006-3.609-7.337-3.609-7.337l-.224-1.975-.586-5.094a5.814 5.814 0 0 1-.876.313l.61 5.384.228 1.973s-1.918 4.331 3.609 7.337c0 0 3.049 4.027 3.034 8.043 0 .213 0 .411-.026.618 0 0 1.805 1.918 3.006 1.445 1.202-.473.12.24.36.119.241-.122.723.963 4.451 0a12.916 12.916 0 0 0 4.66-2.282 13.117 13.117 0 0 1-3.812 1.681Z" fill="#000"/><path d="M186.148 56.276s-3.006 1.083-4.687 2.887c0 0-8.179 3.247-10.465 2.887-2.286-.36-2.406-.963-2.887-1.917l-5.173-9.375s-2.165-7.819 0-6.977c2.165.841 2.77 5.54 2.77 5.54s4.09 8.178 6.615 8.06l6.852-3.27s1.564-2.285 2.286-2.164c.722.122 4.689 4.33 4.689 4.33Z" fill="#FDB797"/><path opacity=".1" d="M182.088 51.873s-2.495-.228-3.218 2.9c-.722 3.127 5.54 5.05 5.54 5.05l3.368-4.686-5.69-3.264Z" fill="#000"/><path d="M182.209 51.873s-2.495-.228-3.217 2.9c-.722 3.127 5.539 5.05 5.539 5.05l3.369-4.686-5.691-3.264Z" fill="#F9CE43"/><g opacity=".1" fill="#000"><path opacity=".1" d="M181.19 52.429a6.42 6.42 0 0 1-1.18.456l.021.18c.398-.19.785-.404 1.159-.636ZM201.546 73.479c-.119-.853-4.932-6.256-6.134-12.871S187.103 49.3 187.103 49.3s-.235.13-.639.305a28.83 28.83 0 0 0-3.149 1.587 28.569 28.569 0 0 1 2.066-.984c.407-.175.64-.305.64-.305s7.096 4.687 8.309 11.307c1.212 6.62 6.014 12.029 6.134 12.87.076.531-.949 1.73-2.651 2.787 2.337-1.16 3.824-2.754 3.733-3.39Z"/></g><path opacity=".1" d="M183.639 51.922s3.11 1.54 3.696 4.501" stroke="#000" stroke-miterlimit="10"/><path opacity=".1" d="M176.033 44.192c.496.11 1.05.266 1.295.712.177.323.145.73.317 1.065.443.835 1.743.547 2.557 1.037 1.491.9.518 3.703 2.003 4.607.279.17.609.238.897.394 1.255.686 1.078 2.501.852 3.914-.226 1.412.043 3.345 1.459 3.545.78.108 1.656-.407 2.312.025.343.226.499.64.786.94a1.435 1.435 0 0 0 1.538.318c.482-.2.829-.659 1.33-.806.805-.236 1.704.416 2.48.115.775-.3.952-1.42.752-2.267-.2-.846-.609-1.704-.396-2.556.176-.703.752-1.24 1.003-1.918.737-2-1.549-4.067-1.127-6.157.183-.906.865-1.705.852-2.619-.021-1.065-.965-1.872-1.947-2.264-.982-.392-2.06-.503-3.021-.94-2.107-.959-3.26-3.277-5.186-4.564a7.272 7.272 0 0 0-2.853-1.095 9.35 9.35 0 0 0-7.444 2.024c-.189.154-.383.299-.579.44-.823.594-1.705 1.18-2.206 2.061-1.828 3.184 2.372 3.548 4.326 3.989Z" fill="#000"/><path d="M176.182 43.892c.496.11 1.05.266 1.295.711.177.324.145.73.317 1.065.444.836 1.743.548 2.557 1.038 1.491.9.518 3.703 2.003 4.606.279.17.609.239.897.394 1.255.686 1.078 2.502.852 3.914-.226 1.413.043 3.345 1.459 3.546.78.108 1.656-.407 2.312.025.343.226.499.64.786.94a1.435 1.435 0 0 0 1.539.317c.481-.2.828-.658 1.329-.805.805-.237 1.704.415 2.48.115.775-.3.952-1.421.752-2.267-.2-.846-.609-1.705-.396-2.557.177-.703.752-1.24 1.003-1.917.737-2-1.549-4.068-1.127-6.158.183-.905.865-1.704.852-2.618-.021-1.065-.965-1.873-1.947-2.265-.982-.392-2.06-.503-3.021-.94-2.107-.958-3.26-3.276-5.186-4.563a7.13 7.13 0 0 0-2.578-1.044 9.362 9.362 0 0 0-7.725 1.977 8.966 8.966 0 0 1-.573.426c-.823.595-1.705 1.18-2.205 2.063-1.828 3.191 2.373 3.558 4.325 3.996ZM133.302 77.164H96.231v-6.986c9.056-4.233 22.992-6.61 37.071 6.986Z" fill="#00BAFC"/><path opacity=".1" d="M162.065 76.165v1h-46.233v-.214s22.75-22.151 46.233-.786Z" fill="#000"/><path d="M162.491 76.165v1h-46.233v-.214s22.75-22.151 46.233-.786ZM103.9 49.254a3.409 3.409 0 1 0 0-6.817 3.409 3.409 0 0 0 0 6.817Z" fill="#00BAFC"/><path d="M132.923 43.267c-.39 0-.825 0-1.121.024a1.37 1.37 0 0 0-.388.079l-2.004.72c1.619.04 3.308.027 4.968.015l9.306-.073c.951 0 1.948-.017 2.738-.072.531-.039.92-.094 1.41-.137 1.762-.157 4.33-.127 6.624-.119 2.295.009 5.065-.051 5.872-.281h-4.926c-.53 0-1.088 0-1.557-.026-.548-.032-.882-.091-1.364-.134-.797-.068-1.896-.077-2.919-.08-5.614-.024-11.157.108-16.639.084ZM138.437 47.396h-.243a.295.295 0 0 0-.085.017l-.427.156h1.076l2.016-.015c.213 0 .426 0 .592-.015.115 0 .2-.021.305-.03.381-.034.937-.028 1.436-.025a7.83 7.83 0 0 0 1.278-.062h-1.402c-.1 0-.191-.02-.296-.03a8.28 8.28 0 0 0-.639-.017c-1.214 0-2.416.028-3.611.021ZM124.162 53.362h-.243a.292.292 0 0 0-.085.017l-.426.155h1.076l2.015-.014c.213 0 .426 0 .593-.015.115 0 .2-.022.304-.03.382-.034.938-.028 1.436-.026.427.015.855-.006 1.279-.062H128.709c-.101 0-.192-.019-.297-.03a8.277 8.277 0 0 0-.639-.017c-1.214 0-2.416.028-3.611.022Z" fill="#F4F4F4"/><path d="M116.153 75.275h-1.602s-.501-17.522 1.602-22.93h.401s-1.402 19.825-.401 22.93Z" fill="#00BAFC"/><path d="M115.052 51.444s-1.302 3.605-.701 5.207c0 0 .901-3.304 1.951-3.805 1.051-.5 2.152 3.805 2.152 3.805s.601-2.703-.5-4.9c0 0 2.203 1.202 3.304 3.505 0 0 .2-1.492-2.403-4.606 0 0 2.303.6 3.805 2.002 0 0 .501-1.101-2.604-2.904 0 0 .401-1.301 2.804-.7 0 0 0-1.705-3.805-1.402 0 0 0-1.102 2.503-.902 0 0 0-1.402-2.903-.9 0 0 .6-.902 1.001-1.102a2.014 2.014 0 0 0-1.402.4s.1-1.802-1.402-2.503l-.2 2.503s-1.683-1.983-1.302-1.602c.1.1.401 1.302.3 1.903 0 0-1.704-1.402-3.805.1 0 0 2.604.2 3.004 1.101 0 0-2.203-.4-2.703-.1 0 0 1.704.6 1.602 1.001 0 0-3.004 0-3.409 1.102 0 0 3.104.4 3.304.7 0 0-3.604 2.604-3.805 3.305 0 0 3.705-2.203 4.306-2.203s-2.704 3.196-2.503 4.006c.008-.007 2.72-3.21 3.411-3.01ZM135.914 74.618h1.223s.384-13.386-1.223-17.517h-.307s1.074 15.142.307 17.517Z" fill="#00BAFC"/><path d="M136.756 56.413s.995 2.755.534 3.978c0 0-.688-2.525-1.491-2.907-.803-.38-1.645 2.907-1.645 2.907s-.458-2.065.384-3.748a6.65 6.65 0 0 0-2.525 2.678s-.153-1.148 1.837-3.52c0 0-1.76.458-2.906 1.53 0 0-.384-.842 1.99-2.218 0 0-.307-.995-2.142-.535 0 0 0-1.3 2.906-1.065 0 0 0-.841-1.917-.688 0 0 0-1.065 2.218-.688 0 0-.458-.688-.765-.842.381-.034.761.076 1.065.307 0 0-.077-1.376 1.065-1.917l.154 1.917s1.278-1.515.995-1.223a3.355 3.355 0 0 0-.23 1.453s1.299-1.065 2.906.077c0 0-1.99.153-2.295.841 0 0 1.683-.306 2.065-.076 0 0-1.3.458-1.223.764 0 0 2.294 0 2.601.842 0 0-2.371.307-2.525.535 0 0 2.755 1.99 2.907 2.525 0 0-2.83-1.684-3.29-1.684-.46 0 2.064 2.448 1.917 3.06.011-.009-2.053-2.452-2.59-2.303ZM150.557 72.002h.759s.236-8.29-.759-10.849h-.189s.662 9.385.189 10.85Z" fill="#00BAFC"/><path d="M151.079 60.727s.616 1.705.333 2.463c0 0-.426-1.564-.925-1.8-.498-.237-1.018 1.8-1.018 1.8s-.284-1.278.236-2.322a4.117 4.117 0 0 0-1.564 1.657s-.093-.711 1.138-2.18a4.8 4.8 0 0 0-1.8.949s-.237-.522 1.231-1.374c0 0-.189-.616-1.327-.333 0 0 0-.805 1.8-.662 0 0 0-.522-1.184-.426 0 0 0-.663 1.374-.427a2.088 2.088 0 0 0-.473-.522.954.954 0 0 1 .663.19s-.047-.852.662-1.184l.094 1.184s.797-.937.616-.758a2.062 2.062 0 0 0-.143.899 1.475 1.475 0 0 1 1.8.047s-1.231.093-1.421.522c0 0 1.042-.19 1.278-.047 0 0-.805.283-.758.473 0 0 1.421 0 1.611.522 0 0-1.468.19-1.564.332 0 0 1.704 1.232 1.8 1.564 0 0-1.753-1.042-2.037-1.042-.283 0 1.279 1.517 1.185 1.894.004.002-1.276-1.515-1.607-1.419Z" fill="#00BAFC"/><path d="m122.86 62.628-.16-.853a.457.457 0 0 0-.144-.334l-.74-.362a.849.849 0 0 1-.132-.213l.013-.02c.041-.05.07-.109.085-.172a.2.2 0 0 0 0-.05h.011a.271.271 0 0 0 .304-.213v-.018a.273.273 0 0 1-.249.213.76.76 0 0 0 .335-.627v-.032a.284.284 0 0 0 .082-.078.254.254 0 0 0 .043-.105v-.019a.277.277 0 0 1-.047.099.26.26 0 0 1-.083.071.74.74 0 0 0-.046-.213h.019a.274.274 0 0 0 .275-.275v-.019a.275.275 0 0 1-.273.256h-.034v-.013a.444.444 0 0 0 .315-.364v-.02a.28.28 0 0 1-.055.148.28.28 0 0 0-.062-.189.272.272 0 0 0-.365-.054.272.272 0 0 0-.114.162l-.049-.028a.273.273 0 0 1 .247-.2h-.019a.274.274 0 0 0-.263.185.753.753 0 0 0-.95.273c-.057.042-.132.104-.13.158a.547.547 0 0 0-.066.08c-.081.178-.11.376-.085.57a.602.602 0 0 1-.196.521.262.262 0 0 0 .2 0 .76.76 0 0 0 .177-.104.398.398 0 0 0 .126-.122v-.01a.591.591 0 0 0 .113.06c.015.127.019.274-.039.323l.011-.023a.691.691 0 0 1-.479.136.598.598 0 0 0-.497.32l-.232.97v.033a.087.087 0 0 0 .02.035c.01.01.022.016.035.019l.073.019c.011.165-.006.332-.049.492-.049.239-.077.48-.083.724.017.122.047.755.062 1.055a2.996 2.996 0 0 0-.062.311l-.343 2.058s-.256 1.647-.243 2.146l-.045.287s-.697.874-.492.997c.204.124.52.177.82-.287a.76.76 0 0 1 .192-.288.284.284 0 0 0 .096-.24l-.021-.214.036.013h.021s.343-1.127.305-1.917c0 0 .639-2.263 1.118-2.619v-.015l.045-.021.102 2.192-.104 2.416-.024.145s-.696.874-.492.997c.205.124.52.177.821-.287a.747.747 0 0 1 .191-.288.283.283 0 0 0 .096-.24l-.032-.32c.12-.407.426-1.58.301-2.259l.213-1.444c.213-.241.185-.852.185-.852.168-.352.213-1.73.213-1.73l.043-.682a.57.57 0 0 1 .096 0h.034v-.013a.073.073 0 0 0 .015-.02h.012v-.016l-.002-.002Zm-.596 1.385a2.161 2.161 0 0 0-.064-.141h-.017v-.017a.049.049 0 0 1 0-.017v-.017a.575.575 0 0 0 .025-.07.264.264 0 0 0 .041-.148c.025.135.03.273.015.41Zm-.064-.584-.043-.456.013-.036.057.58-.027-.088Zm-2.02.061a.147.147 0 0 0-.032.058.147.147 0 0 0-.006.066v.015c0 .046.006.092.019.136l-.066.286v-.546c.044-.057.082-.118.115-.183a.297.297 0 0 1-.03.168Z" fill="url(#e)"/><path d="M120.61 59.97a1.01 1.01 0 0 0-.083.548.584.584 0 0 1-.189.503.247.247 0 0 0 .194 0 .742.742 0 0 0 .17-.1c.049-.03.09-.07.121-.117a.45.45 0 0 0 .028-.232c0-.14.013-.279.036-.416.013-.085.094-.317 0-.362-.093-.045-.236.113-.277.177Z" fill="#72351C"/><path d="m119.202 69.028-.066.426s-.671.852-.473.96c.198.11.501.171.79-.276a.725.725 0 0 1 .184-.277.28.28 0 0 0 .074-.105.263.263 0 0 0 .017-.127l-.066-.65-.46.049ZM121.222 69.196l-.066.426s-.671.853-.473.961c.198.109.5.17.79-.277a.735.735 0 0 1 .183-.277.271.271 0 0 0 .092-.232l-.066-.65-.46.05Z" fill="#333"/><path d="M120.176 64.102s-.316.228-.426 1.02l-.331 1.984s-.279 1.798-.228 2.143l.559.192s.33-1.086.294-1.843c0 0 .671-2.39 1.142-2.556l.1 2.11-.107 2.376.478.096s.483-1.512.33-2.313l.249-1.705s.286-.91-.111-1.704l-1.949.2Z" fill="#4D8AF0"/><g opacity=".1" fill="#000"><path opacity=".1" d="M121.137 65.073v-.036c-.471.169-1.142 2.557-1.142 2.557a6.752 6.752 0 0 1-.288 1.824l.06.021s.33-1.087.294-1.843c-.002.002.611-2.17 1.076-2.523ZM122.144 63.912h-.064c.23.534.267 1.131.107 1.69l-.249 1.704c.147.759-.282 2.154-.326 2.301l.062.013s.483-1.513.33-2.314l.249-1.704s.288-.906-.109-1.69Z"/></g><path d="M119.748 62.549a.063.063 0 0 0 .015.045.07.07 0 0 0 .04.025c.156.04.301.112.426.213.234.183-.249-.366-.249-.366l-.162.036-.066.06-.004-.013Z" fill="#F55F44"/><path opacity=".1" d="M119.748 62.549a.063.063 0 0 0 .015.045.07.07 0 0 0 .04.025c.156.04.301.112.426.213.234.183-.249-.366-.249-.366l-.162.036-.066.06-.004-.013Z" fill="#000"/><path d="M122.053 63.035c.197-.14.425-.23.664-.262a.06.06 0 0 0 .044-.019.06.06 0 0 0 .018-.043s-.558-.22-.726.324Z" fill="#F55F44"/><path opacity=".1" d="M122.779 62.709s-.558-.214-.726.323c0 0 .411-.315.696-.264" fill="#000"/><path d="M121.405 60.868a.727.727 0 1 0 0-1.454.727.727 0 0 0 0 1.454Z" fill="#72351C"/><path d="M120.904 60.65s.103.427 0 .514c-.102.087-.309.25-.153.375.156.126.712.339.897.234.185-.104.396-.072.345-.285-.051-.213-.456-.169-.462-1.227l-.627.39Z" fill="#FDB797"/><path opacity=".1" d="M119.875 62.421a2.62 2.62 0 0 1-.044.69 3.98 3.98 0 0 0-.081.697c.021.153.066 1.167.066 1.167s-.081.889.351.808c.433-.081-.066-1.014-.066-1.014l.021-1.213c.118-.159.191-.346.214-.543.032-.292-.461-.592-.461-.592Z" fill="#000"/><path d="M119.869 62.421c.015.231 0 .463-.045.69-.047.23-.074.463-.081.697.022.153.066 1.167.066 1.167s-.081.889.352.808c.432-.081-.066-1.014-.066-1.014l.021-1.213c.117-.159.191-.346.213-.543.03-.292-.46-.592-.46-.592Z" fill="#FDB797"/><path opacity=".1" d="m122.636 62.487-.059.948s-.036 1.33-.198 1.666c0 0 .044.933-.39.91-.435-.023.072-1.02.072-1.02s.232-1.038.113-1.366l-.113-1.138h.575Z" fill="#000"/><path d="m122.643 62.487-.06.948s-.036 1.33-.198 1.666c0 0 .045.933-.39.91-.434-.023.073-1.02.073-1.02s.232-1.038.113-1.366l-.113-1.138h.575Z" fill="#FDB797"/><path opacity=".1" d="M121.235 61.569s.351.162.543-.32l.714.35a.444.444 0 0 1 .138.323l.154.823s-.522-.177-.684.309l.044.462a.495.495 0 0 1-.023.345.083.083 0 0 0-.007.031c0 .01.003.021.007.031a.23.23 0 0 1 .008.104.226.226 0 0 1-.221.19 4.327 4.327 0 0 0-.573.045c-.154.044-.618-.088-.771 0-.154.087-.478-.066-.478-.066l.088-.375s-.06-.183.015-.25c.074-.066.029-.639-.037-.8 0 0-.264-.25-.426-.214l.213-.948a.573.573 0 0 1 .477-.309.67.67 0 0 0 .463-.132s-.16.35.356.4Z" fill="#000"/><path opacity=".1" d="M121.271 61.552c.096.025.351.053.505-.333l.714.35a.46.46 0 0 1 .138.324l.153.822s-.522-.177-.683.309l.044.462.03.092a.263.263 0 0 1-.036.234.088.088 0 0 0-.02.04.085.085 0 0 0 .005.045.23.23 0 0 1 .008.105.225.225 0 0 1-.221.19 4.326 4.326 0 0 0-.573.044c-.154.045-.618-.087-.771 0-.154.088-.478-.066-.478-.066l.088-.375s-.06-.183.015-.25c.074-.065.029-.638-.037-.8 0 0-.264-.25-.426-.213l.213-.948a.573.573 0 0 1 .477-.31.67.67 0 0 0 .463-.131s-.173.315.281.383l.111.026Z" fill="#000"/><path d="M121.271 61.567c.096.025.351.053.505-.333l.714.35a.46.46 0 0 1 .138.323l.153.823s-.522-.177-.684.309l.045.462a.495.495 0 0 1-.023.345.082.082 0 0 0-.007.031c0 .01.003.021.007.031a.23.23 0 0 1-.112.269.223.223 0 0 1-.101.025 4.313 4.313 0 0 0-.573.045c-.154.045-.618-.088-.772 0-.153.087-.477-.066-.477-.066l.087-.375s-.059-.183.015-.25c.075-.066.03-.639-.036-.8 0 0-.264-.25-.426-.214l.213-.948a.573.573 0 0 1 .477-.309.67.67 0 0 0 .463-.132s-.173.316.281.384l.113.03Z" fill="#F55F44"/><path opacity=".1" d="m121.541 60.299-.624.39c.016.07.028.141.036.213a.604.604 0 0 0 .224.042.64.64 0 0 0 .405-.183 2.473 2.473 0 0 1-.041-.462Z" fill="#000"/><path d="M121.164 60.898a.603.603 0 1 0 0-1.206.603.603 0 0 0 0 1.206Z" fill="#FDB797"/><path d="M122.053 59.832a.264.264 0 1 0 0-.527.264.264 0 0 0 0 .527Z" fill="#72351C"/><path d="M122.104 59.847a.264.264 0 0 1-.264-.245v.02a.265.265 0 0 0 .451.187.266.266 0 0 0 .077-.188v-.019a.265.265 0 0 1-.264.245Z" fill="#72351C"/><path d="M121.953 60.099a.265.265 0 0 1-.213-.29v.017a.262.262 0 0 0 .212.308.263.263 0 0 0 .307-.212v-.02a.263.263 0 0 1-.306.197ZM121.748 60.738a.263.263 0 0 1-.213-.29v.017a.265.265 0 0 0 .52.096v-.02a.263.263 0 0 1-.307.197ZM122.104 59.707a.264.264 0 0 1-.264-.248v.02a.266.266 0 0 0 .451.187.266.266 0 0 0 .077-.187v-.02a.263.263 0 0 1-.264.248Z" fill="#72351C"/><path d="M121.735 59.564a.265.265 0 0 1 .25-.262h-.02a.263.263 0 1 0 0 .528h.02a.265.265 0 0 1-.25-.266Z" fill="#72351C"/><path opacity=".1" d="M122.002 62.057a.98.98 0 0 1 0 .396s-.037.345.021.405M120.216 62.138a.945.945 0 0 1 0 .396s-.036.345.022.405M120.201 63.554c.057.02.12.02.177 0a.366.366 0 0 1 .213 0M120.291 63.035c.207.01.415-.023.609-.096 0 0 .75.183.963.05" fill="#000"/><path d="M120.065 66.2h-.177a.143.143 0 1 0 0 .286h.177a.143.143 0 1 0 0-.285Z" fill="#FDB797"/><path d="m119.747 66.277.248-.01.213.034h-.075l-.386-.024ZM121.414 65.082h.247l.213.021h-.075l-.385-.021ZM121.414 65.133h.247l.213.022h-.075l-.385-.022ZM121.414 65.186h.247l.213.022h-.075l-.385-.022ZM121.414 65.237h.247l.213.022h-.075l-.385-.022ZM119.747 66.475h.248l.213.026h-.075l-.386-.026ZM119.747 66.45h.248l.213.025h-.075l-.386-.025ZM119.747 66.424h.248l.213.026h-.075l-.386-.026ZM119.747 66.399h.248l.213.025h-.075l-.386-.025ZM119.747 66.239l.248-.01.213.033h-.075l-.386-.023ZM119.747 66.194l.248-.01.213.034h-.075l-.386-.024Z" fill="#F0E4E4"/><path opacity=".1" d="M121.267 59.909c-.024.225.005.453.085.665a.79.79 0 0 1-.032.639.21.21 0 0 0 .187-.047.743.743 0 0 0 .137-.16.432.432 0 0 0 .083-.166.658.658 0 0 0-.043-.281 3.632 3.632 0 0 1-.089-.497c-.013-.102 0-.396-.115-.426-.115-.03-.192.188-.213.273Z" fill="#000"/><path d="M121.282 59.903c-.024.225.005.452.085.664a.79.79 0 0 1-.032.64.212.212 0 0 0 .187-.047.743.743 0 0 0 .137-.16.432.432 0 0 0 .083-.166.658.658 0 0 0-.043-.282 3.632 3.632 0 0 1-.089-.496c-.013-.102 0-.396-.115-.426-.115-.03-.192.185-.213.273Z" fill="#72351C"/><path opacity=".1" d="M121.022 60.06c.051.054.061.132.104.192a.376.376 0 0 0 .298.12.17.17 0 0 1 .088.019c.046.03.049.098.078.144a.174.174 0 0 0 .193.04.178.178 0 0 0 .057-.04.417.417 0 0 0 .096-.262c.01-.105.01-.212 0-.317a.484.484 0 0 0-.135-.324.563.563 0 0 0-.236-.102.7.7 0 0 0-.364-.028.662.662 0 0 0-.167.083 9.626 9.626 0 0 0-.213.143c-.079.055-.228.166-.083.226.092.042.207.023.284.106Z" fill="#000"/><path d="M121.036 60.052c.052.053.062.132.105.191a.375.375 0 0 0 .298.12.172.172 0 0 1 .088.019c.046.03.049.098.078.145a.176.176 0 0 0 .125.054.173.173 0 0 0 .125-.054.41.41 0 0 0 .095-.262 1.53 1.53 0 0 0 0-.318.48.48 0 0 0-.134-.324.57.57 0 0 0-.236-.102.703.703 0 0 0-.365-.027.652.652 0 0 0-.166.083 9.287 9.287 0 0 0-.213.142c-.079.056-.228.167-.083.226.092.043.213.026.283.107Z" fill="#72351C"/><path d="M121.428 65.082h.248l.213.021h-.071l-.39-.021ZM121.428 65.133h.248l.213.022h-.071l-.39-.022ZM121.428 65.186h.248l.213.022h-.071l-.39-.022ZM121.428 65.237h.248l.213.022h-.071l-.39-.022ZM121.322 68.065h.247l.213.021h-.074l-.386-.021ZM121.322 68.118h.247l.213.021h-.074l-.386-.02ZM121.322 68.17h.247l.213.02h-.074l-.386-.02ZM121.322 68.22h.247l.213.022h-.074l-.386-.022Z" fill="#F0E4E4"/></g><defs><linearGradient id="b" x1="96.23" y1="129.998" x2="96.23" y2="81.05" gradientUnits="userSpaceOnUse"><stop stop-color="gray" stop-opacity=".25"/><stop offset=".54" stop-color="gray" stop-opacity=".12"/><stop offset="1" stop-color="gray" stop-opacity=".1"/></linearGradient><linearGradient id="c" x1="67909.7" y1="52246.1" x2="67909.7" y2="0" gradientUnits="userSpaceOnUse"><stop stop-color="gray" stop-opacity=".25"/><stop offset=".54" stop-color="gray" stop-opacity=".12"/><stop offset="1" stop-color="gray" stop-opacity=".1"/></linearGradient><linearGradient id="d" x1="41634.5" y1="61047.3" x2="41634.5" y2="26293.6" gradientUnits="userSpaceOnUse"><stop stop-color="gray" stop-opacity=".25"/><stop offset=".54" stop-color="gray" stop-opacity=".12"/><stop offset="1" stop-color="gray" stop-opacity=".1"/></linearGradient><linearGradient id="e" x1="3089.72" y1="5676.23" x2="3089.72" y2="5025.35" gradientUnits="userSpaceOnUse"><stop stop-color="gray" stop-opacity=".25"/><stop offset=".54" stop-color="gray" stop-opacity=".12"/><stop offset="1" stop-color="gray" stop-opacity=".1"/></linearGradient><clipPath id="a"><path fill="#fff" transform="translate(.603)" d="M0 0h202.795v130H0z"/></clipPath></defs></svg>